<svg width="13" height="22" viewBox="0 0 13 22" fill="none" xmlns="http://www.w3.org/2000/svg">
<path d="M0.5 11.0391C0.5 10.8359 0.535156 10.6484 0.605469 10.4766C0.683594 10.3047 0.800781 10.1406 0.957031 9.98438L10.0859 1.05469C10.3516 0.796875 10.6719 0.667969 11.0469 0.667969C11.3047 0.667969 11.5352 0.730469 11.7383 0.855469C11.9492 0.972656 12.1172 1.13281 12.2422 1.33594C12.3672 1.53906 12.4297 1.76953 12.4297 2.02734C12.4297 2.39453 12.2852 2.72266 11.9961 3.01172L3.76953 11.0391L11.9961 19.0664C12.2852 19.3555 12.4297 19.6875 12.4297 20.0625C12.4297 20.3125 12.3672 20.5391 12.2422 20.7422C12.1172 20.9531 11.9492 21.1172 11.7383 21.2344C11.5352 21.3594 11.3047 21.4219 11.0469 21.4219C10.6719 21.4219 10.3516 21.2891 10.0859 21.0234L0.957031 12.0938C0.800781 11.9375 0.683594 11.7734 0.605469 11.6016C0.535156 11.4297 0.5 11.2422 0.5 11.0391Z" fill="white"/>
</svg>
