<svg width="32" height="32" viewBox="0 0 32 32" fill="none" xmlns="http://www.w3.org/2000/svg">
<path d="M28.3867 12.8594C28.3867 14.1484 28.168 15.3164 27.7305 16.3633C27.293 17.4023 26.6953 18.2305 25.9375 18.8477C25.1875 19.457 24.3398 19.7617 23.3945 19.7617H21.7305C22.1211 19.2461 22.4844 18.6562 22.8203 17.9922C23.1641 17.3281 23.4453 16.582 23.6641 15.7539C23.8828 14.918 24 13.9961 24.0156 12.9883C24.0391 11.5664 23.7852 10.2539 23.2539 9.05078C22.7305 7.84766 21.9258 6.83203 20.8398 6.00391H22.9492C23.9805 6.00391 24.9062 6.31641 25.7266 6.94141C26.5547 7.55859 27.2031 8.38672 27.6719 9.42578C28.1484 10.457 28.3867 11.6016 28.3867 12.8594ZM22.2812 12.9531C22.2656 13.9219 22.168 14.793 21.9883 15.5664C21.8164 16.332 21.5508 17.0625 21.1914 17.7578C20.8398 18.4453 20.3906 19.1484 19.8438 19.8672C18.9062 21.1094 17.875 22.4688 16.75 23.9453C15.625 25.4141 14.6055 27.043 13.6914 28.832C13.4258 29.332 13.1523 29.7227 12.8711 30.0039C12.5977 30.293 12.2344 30.4375 11.7812 30.4375C11.2578 30.4375 10.8242 30.2617 10.4805 29.9102C10.1367 29.5664 9.96484 29.0977 9.96484 28.5039C9.96484 27.9414 10.0664 27.3438 10.2695 26.7109C10.4805 26.0859 10.7227 25.457 10.9961 24.8242C11.2695 24.1914 11.5117 23.5977 11.7227 23.043C11.9336 22.4883 12.0391 22.0039 12.0391 21.5898C12.0391 21.1758 11.8789 20.8438 11.5586 20.5938C11.2461 20.3438 10.8242 20.2188 10.293 20.2188H5.93359C5.50391 20.2188 5.11719 20.1172 4.77344 19.9141C4.4375 19.7109 4.16797 19.4375 3.96484 19.0938C3.76953 18.75 3.67188 18.3672 3.67188 17.9453C3.67188 17.5938 3.72656 17.2773 3.83594 16.9961C3.94531 16.707 4.09766 16.4805 4.29297 16.3164C4.45703 16.1758 4.47266 16.0391 4.33984 15.9062C4.17578 15.7422 4.05078 15.5195 3.96484 15.2383C3.87891 14.957 3.83594 14.6719 3.83594 14.3828C3.83594 13.9766 3.92188 13.6055 4.09375 13.2695C4.26562 12.9336 4.49609 12.6758 4.78516 12.4961C4.95703 12.3867 4.98438 12.25 4.86719 12.0859C4.58594 11.7031 4.44531 11.2344 4.44531 10.6797C4.44531 10.1875 4.57812 9.76562 4.84375 9.41406C5.11719 9.05469 5.45312 8.78516 5.85156 8.60547C5.97656 8.54297 5.99609 8.44141 5.91016 8.30078C5.83984 8.16797 5.77734 8.01562 5.72266 7.84375C5.66797 7.66406 5.64062 7.45703 5.64062 7.22266C5.64062 6.62891 5.83984 6.16016 6.23828 5.81641C6.64453 5.47266 7.11328 5.23437 7.64453 5.10156C7.98828 5.00781 8.45703 4.9375 9.05078 4.89062C9.64453 4.83594 10.3359 4.8125 11.125 4.82031L12.8242 4.83203C14.2617 4.84766 15.5664 5.0625 16.7383 5.47656C17.9102 5.88281 18.9102 6.45312 19.7383 7.1875C20.5742 7.91406 21.2109 8.76953 21.6484 9.75391C22.0859 10.7305 22.2969 11.7969 22.2812 12.9531Z" fill="white"/>
</svg>
