<svg width="48" height="49" viewBox="0 0 48 49" fill="none" xmlns="http://www.w3.org/2000/svg">
<path d="M0 24.5C0 11.2452 10.7452 0.5 24 0.5C37.2548 0.5 48 11.2452 48 24.5C48 37.7548 37.2548 48.5 24 48.5C10.7452 48.5 0 37.7548 0 24.5Z" fill="white" fill-opacity="0.05"/>
<path d="M17.7305 37.7305C16.4883 37.7305 15.5469 37.4062 14.9062 36.7578C14.2656 36.1172 13.9453 35.1719 13.9453 33.9219V16.2148C13.9453 14.9492 14.2656 13.9922 14.9062 13.3438C15.5469 12.6953 16.4961 12.3711 17.7539 12.3711H30.2344C31.4922 12.3711 32.4414 12.6992 33.082 13.3555C33.7227 14.0039 34.043 14.957 34.043 16.2148V29.2227C34.043 29.8164 33.9414 30.2812 33.7383 30.6172C33.5352 30.9531 33.2891 31.25 33 31.5078C32.5078 31.9766 32.2031 32.4844 32.0859 33.0312C31.9766 33.5703 32.0234 34.0703 32.2266 34.5312C32.4297 34.9922 32.7734 35.3281 33.2578 35.5391C33.4766 35.6328 33.6641 35.7734 33.8203 35.9609C33.9766 36.1562 34.0547 36.3828 34.0547 36.6406C34.0547 36.9453 33.9492 37.2031 33.7383 37.4141C33.5352 37.625 33.2773 37.7305 32.9648 37.7305H17.7305ZM18.0234 35.5508H30.3164C30.0039 35.0195 29.8359 34.4336 29.8125 33.793C29.7891 33.1602 29.918 32.5352 30.1992 31.918C30.0898 31.9336 29.9648 31.9414 29.8242 31.9414H18.1172C17.5 31.9414 17.0117 32.1094 16.6523 32.4453C16.3008 32.7812 16.125 33.2109 16.125 33.7344C16.125 34.2891 16.2852 34.7305 16.6055 35.0586C16.9258 35.3867 17.3984 35.5508 18.0234 35.5508ZM17.5664 30.0547C17.7617 30.0547 17.9297 29.9844 18.0703 29.8438C18.2109 29.7031 18.2812 29.5352 18.2812 29.3398V15.043C18.2812 14.8398 18.2109 14.6719 18.0703 14.5391C17.9297 14.3984 17.7617 14.3281 17.5664 14.3281C17.3789 14.3281 17.2148 14.3984 17.0742 14.5391C16.9336 14.6719 16.8633 14.8398 16.8633 15.043V29.3398C16.8633 29.5352 16.9336 29.7031 17.0742 29.8438C17.2148 29.9844 17.3789 30.0547 17.5664 30.0547Z" fill="white"/>
</svg>
