<svg width="33" height="33" viewBox="0 0 33 33" fill="none" xmlns="http://www.w3.org/2000/svg">
<path d="M8.36719 28.5234C8.09375 28.3203 7.92578 28.0469 7.86328 27.7031C7.80859 27.3672 7.85938 26.9688 8.01562 26.5078L10.4297 19.3477L4.27734 14.9297C3.87891 14.6484 3.60156 14.3555 3.44531 14.0508C3.28906 13.7383 3.26562 13.418 3.375 13.0898C3.48438 12.7695 3.69141 12.5312 3.99609 12.375C4.30078 12.2188 4.69922 12.1406 5.19141 12.1406H12.7266L15.0234 4.99219C15.1719 4.52344 15.3672 4.16797 15.6094 3.92578C15.8594 3.67578 16.1523 3.55078 16.4883 3.55078C16.832 3.55078 17.125 3.67578 17.3672 3.92578C17.6172 4.16797 17.8164 4.52344 17.9648 4.99219L20.2617 12.1406H27.7969C28.2891 12.1406 28.6875 12.2188 28.9922 12.375C29.2969 12.5312 29.5039 12.7695 29.6133 13.0898C29.7227 13.418 29.6992 13.7383 29.543 14.0508C29.3867 14.3555 29.1094 14.6484 28.7109 14.9297L22.5586 19.3477L24.9727 26.5078C25.1289 26.9688 25.1758 27.3672 25.1133 27.7031C25.0586 28.0469 24.8945 28.3203 24.6211 28.5234C24.3477 28.7422 24.0391 28.8203 23.6953 28.7578C23.3516 28.6953 22.9844 28.5234 22.5938 28.2422L16.4883 23.7539L10.3945 28.2422C10.0039 28.5234 9.63672 28.6953 9.29297 28.7578C8.94922 28.8203 8.64062 28.7422 8.36719 28.5234Z" fill="white"/>
</svg>
