<svg width="32" height="32" viewBox="0 0 32 32" fill="none" xmlns="http://www.w3.org/2000/svg">
<path d="M7.9375 27.4961C6.67188 27.4961 5.71484 27.1719 5.06641 26.5234C4.41797 25.8828 4.09375 24.9375 4.09375 23.6875V9.42578C4.09375 8.16797 4.41797 7.21875 5.06641 6.57812C5.71484 5.9375 6.67188 5.61719 7.9375 5.61719H24.0625C25.3359 5.61719 26.293 5.9375 26.9336 6.57812C27.582 7.21875 27.9062 8.16797 27.9062 9.42578V23.6875C27.9062 24.9375 27.582 25.8828 26.9336 26.5234C26.293 27.1719 25.3359 27.4961 24.0625 27.4961H7.9375ZM7.91406 25.1875H24.0742C24.5664 25.1875 24.9414 25.0625 25.1992 24.8125C25.4648 24.5547 25.5977 24.1719 25.5977 23.6641V12.8359C25.5977 12.3281 25.4648 11.9453 25.1992 11.6875C24.9414 11.4297 24.5664 11.3008 24.0742 11.3008H7.91406C7.42188 11.3008 7.04688 11.4297 6.78906 11.6875C6.53125 11.9453 6.40234 12.3281 6.40234 12.8359V23.6641C6.40234 24.1719 6.53125 24.5547 6.78906 24.8125C7.04688 25.0625 7.42188 25.1875 7.91406 25.1875ZM13.75 15.3789C13.5391 15.3789 13.3906 15.3398 13.3047 15.2617C13.2266 15.1758 13.1875 15.0312 13.1875 14.8281V14.1367C13.1875 13.9258 13.2266 13.7852 13.3047 13.7148C13.3906 13.6367 13.5391 13.5977 13.75 13.5977H14.4414C14.6445 13.5977 14.7891 13.6367 14.875 13.7148C14.9609 13.7852 15.0039 13.9258 15.0039 14.1367V14.8281C15.0039 15.0312 14.9609 15.1758 14.875 15.2617C14.7891 15.3398 14.6445 15.3789 14.4414 15.3789H13.75ZM17.5703 15.3789C17.3672 15.3789 17.2227 15.3398 17.1367 15.2617C17.0586 15.1758 17.0195 15.0312 17.0195 14.8281V14.1367C17.0195 13.9258 17.0586 13.7852 17.1367 13.7148C17.2227 13.6367 17.3672 13.5977 17.5703 13.5977H18.2617C18.4805 13.5977 18.6289 13.6367 18.707 13.7148C18.7852 13.7852 18.8242 13.9258 18.8242 14.1367V14.8281C18.8242 15.0312 18.7852 15.1758 18.707 15.2617C18.6289 15.3398 18.4805 15.3789 18.2617 15.3789H17.5703ZM21.4141 15.3789C21.2031 15.3789 21.0547 15.3398 20.9688 15.2617C20.8906 15.1758 20.8516 15.0312 20.8516 14.8281V14.1367C20.8516 13.9258 20.8906 13.7852 20.9688 13.7148C21.0547 13.6367 21.2031 13.5977 21.4141 13.5977H22.0938C22.3125 13.5977 22.4609 13.6367 22.5391 13.7148C22.6172 13.7852 22.6562 13.9258 22.6562 14.1367V14.8281C22.6562 15.0312 22.6172 15.1758 22.5391 15.2617C22.4609 15.3398 22.3125 15.3789 22.0938 15.3789H21.4141ZM9.91797 19.1406C9.70703 19.1406 9.55859 19.1016 9.47266 19.0234C9.39453 18.9453 9.35547 18.8047 9.35547 18.6016V17.9102C9.35547 17.6992 9.39453 17.5547 9.47266 17.4766C9.55859 17.3984 9.70703 17.3594 9.91797 17.3594H10.6094C10.8125 17.3594 10.9531 17.3984 11.0312 17.4766C11.1172 17.5547 11.1602 17.6992 11.1602 17.9102V18.6016C11.1602 18.8047 11.1172 18.9453 11.0312 19.0234C10.9531 19.1016 10.8125 19.1406 10.6094 19.1406H9.91797ZM13.75 19.1406C13.5391 19.1406 13.3906 19.1016 13.3047 19.0234C13.2266 18.9453 13.1875 18.8047 13.1875 18.6016V17.9102C13.1875 17.6992 13.2266 17.5547 13.3047 17.4766C13.3906 17.3984 13.5391 17.3594 13.75 17.3594H14.4414C14.6445 17.3594 14.7891 17.3984 14.875 17.4766C14.9609 17.5547 15.0039 17.6992 15.0039 17.9102V18.6016C15.0039 18.8047 14.9609 18.9453 14.875 19.0234C14.7891 19.1016 14.6445 19.1406 14.4414 19.1406H13.75ZM17.5703 19.1406C17.3672 19.1406 17.2227 19.1016 17.1367 19.0234C17.0586 18.9453 17.0195 18.8047 17.0195 18.6016V17.9102C17.0195 17.6992 17.0586 17.5547 17.1367 17.4766C17.2227 17.3984 17.3672 17.3594 17.5703 17.3594H18.2617C18.4805 17.3594 18.6289 17.3984 18.707 17.4766C18.7852 17.5547 18.8242 17.6992 18.8242 17.9102V18.6016C18.8242 18.8047 18.7852 18.9453 18.707 19.0234C18.6289 19.1016 18.4805 19.1406 18.2617 19.1406H17.5703ZM21.4141 19.1406C21.2031 19.1406 21.0547 19.1016 20.9688 19.0234C20.8906 18.9453 20.8516 18.8047 20.8516 18.6016V17.9102C20.8516 17.6992 20.8906 17.5547 20.9688 17.4766C21.0547 17.3984 21.2031 17.3594 21.4141 17.3594H22.0938C22.3125 17.3594 22.4609 17.3984 22.5391 17.4766C22.6172 17.5547 22.6562 17.6992 22.6562 17.9102V18.6016C22.6562 18.8047 22.6172 18.9453 22.5391 19.0234C22.4609 19.1016 22.3125 19.1406 22.0938 19.1406H21.4141ZM9.91797 22.9141C9.70703 22.9141 9.55859 22.8789 9.47266 22.8086C9.39453 22.7305 9.35547 22.582 9.35547 22.3633V21.6836C9.35547 21.4727 9.39453 21.3281 9.47266 21.25C9.55859 21.1719 9.70703 21.1328 9.91797 21.1328H10.6094C10.8125 21.1328 10.9531 21.1719 11.0312 21.25C11.1172 21.3281 11.1602 21.4727 11.1602 21.6836V22.3633C11.1602 22.582 11.1172 22.7305 11.0312 22.8086C10.9531 22.8789 10.8125 22.9141 10.6094 22.9141H9.91797ZM13.75 22.9141C13.5391 22.9141 13.3906 22.8789 13.3047 22.8086C13.2266 22.7305 13.1875 22.582 13.1875 22.3633V21.6836C13.1875 21.4727 13.2266 21.3281 13.3047 21.25C13.3906 21.1719 13.5391 21.1328 13.75 21.1328H14.4414C14.6445 21.1328 14.7891 21.1719 14.875 21.25C14.9609 21.3281 15.0039 21.4727 15.0039 21.6836V22.3633C15.0039 22.582 14.9609 22.7305 14.875 22.8086C14.7891 22.8789 14.6445 22.9141 14.4414 22.9141H13.75ZM17.5703 22.9141C17.3672 22.9141 17.2227 22.8789 17.1367 22.8086C17.0586 22.7305 17.0195 22.582 17.0195 22.3633V21.6836C17.0195 21.4727 17.0586 21.3281 17.1367 21.25C17.2227 21.1719 17.3672 21.1328 17.5703 21.1328H18.2617C18.4805 21.1328 18.6289 21.1719 18.707 21.25C18.7852 21.3281 18.8242 21.4727 18.8242 21.6836V22.3633C18.8242 22.582 18.7852 22.7305 18.707 22.8086C18.6289 22.8789 18.4805 22.9141 18.2617 22.9141H17.5703Z" fill="white" fill-opacity="0.2"/>
</svg>
