<svg width="32" height="32" viewBox="0 0 32 32" fill="none" xmlns="http://www.w3.org/2000/svg">
<path d="M10.0938 18.0156H15.9883C16.2539 18.0156 16.4766 17.9258 16.6562 17.7461C16.8359 17.5664 16.9258 17.3438 16.9258 17.0781V9.41406C16.9258 9.15625 16.8359 8.9375 16.6562 8.75781C16.4766 8.57812 16.2539 8.48828 15.9883 8.48828C15.7227 8.48828 15.5 8.57812 15.3203 8.75781C15.1406 8.9375 15.0508 9.15625 15.0508 9.41406V16.1406H10.0938C9.82812 16.1406 9.60156 16.2305 9.41406 16.4102C9.23438 16.5898 9.14453 16.8125 9.14453 17.0781C9.14453 17.3438 9.23438 17.5664 9.41406 17.7461C9.60156 17.9258 9.82812 18.0156 10.0938 18.0156ZM15.9883 28.668C14.332 28.668 12.7734 28.3516 11.3125 27.7188C9.85156 27.0859 8.5625 26.2109 7.44531 25.0938C6.32812 23.9766 5.45312 22.6875 4.82031 21.2266C4.1875 19.7578 3.87109 18.1953 3.87109 16.5391C3.87109 14.8828 4.1875 13.3242 4.82031 11.8633C5.45312 10.4023 6.32422 9.11328 7.43359 7.99609C8.55078 6.87891 9.83984 6.00391 11.3008 5.37109C12.7617 4.73828 14.3242 4.42188 15.9883 4.42188C17.6445 4.42188 19.2031 4.73828 20.6641 5.37109C22.1328 6.00391 23.4258 6.87891 24.543 7.99609C25.6602 9.11328 26.5352 10.4023 27.168 11.8633C27.8008 13.3242 28.1172 14.8828 28.1172 16.5391C28.1172 18.1953 27.8008 19.7578 27.168 21.2266C26.5352 22.6875 25.6602 23.9766 24.543 25.0938C23.4258 26.2109 22.1367 27.0859 20.6758 27.7188C19.2148 28.3516 17.6523 28.668 15.9883 28.668Z" fill="white"/>
</svg>
