<svg width="32" height="32" viewBox="0 0 32 32" fill="none" xmlns="http://www.w3.org/2000/svg">
<path d="M7.50391 17.875C7.13672 17.875 6.82031 17.7461 6.55469 17.4883C6.29688 17.2305 6.16797 16.9141 6.16797 16.5391C6.16797 16.1719 6.29688 15.8555 6.55469 15.5898C6.82031 15.3242 7.13672 15.1914 7.50391 15.1914H24.4727C24.8398 15.1914 25.1562 15.3242 25.4219 15.5898C25.6875 15.8555 25.8203 16.1719 25.8203 16.5391C25.8203 16.9141 25.6875 17.2305 25.4219 17.4883C25.1562 17.7461 24.8398 17.875 24.4727 17.875H7.50391ZM15.9883 26.3711C15.6211 26.3711 15.3047 26.2383 15.0391 25.9727C14.7812 25.707 14.6523 25.3906 14.6523 25.0234V8.05469C14.6523 7.6875 14.7812 7.375 15.0391 7.11719C15.3047 6.85156 15.6211 6.71875 15.9883 6.71875C16.3633 6.71875 16.6797 6.85156 16.9375 7.11719C17.2031 7.375 17.3359 7.6875 17.3359 8.05469V25.0234C17.3359 25.3906 17.2031 25.707 16.9375 25.9727C16.6797 26.2383 16.3633 26.3711 15.9883 26.3711Z" fill="white"/>
</svg>
