<svg width="38" height="32" viewBox="0 0 38 32" fill="none" xmlns="http://www.w3.org/2000/svg">
<path d="M12.916 24.9531C12.1087 24.9531 11.5456 24.8327 11.2266 24.5918C10.9076 24.3509 10.748 24.0059 10.748 23.5566C10.748 22.9316 10.9401 22.2741 11.3242 21.584C11.7083 20.8874 12.2585 20.2363 12.9746 19.6309C13.6973 19.0254 14.5664 18.5339 15.582 18.1562C16.5977 17.7786 17.737 17.5898 19 17.5898C20.2695 17.5898 21.4121 17.7786 22.4277 18.1562C23.4434 18.5339 24.3092 19.0254 25.0254 19.6309C25.748 20.2363 26.3014 20.8874 26.6855 21.584C27.0697 22.2741 27.2617 22.9316 27.2617 23.5566C27.2617 24.0059 27.1022 24.3509 26.7832 24.5918C26.4642 24.8327 25.8978 24.9531 25.084 24.9531H12.916ZM19.0098 15.8613C18.3001 15.8613 17.6458 15.6693 17.0469 15.2852C16.4479 14.901 15.9661 14.3835 15.6016 13.7324C15.2435 13.0749 15.0645 12.3424 15.0645 11.5352C15.0645 10.7409 15.2435 10.0247 15.6016 9.38672C15.9661 8.74219 16.4479 8.23112 17.0469 7.85352C17.6458 7.47591 18.3001 7.28711 19.0098 7.28711C19.7194 7.28711 20.3704 7.47266 20.9629 7.84375C21.5618 8.21484 22.0436 8.72266 22.4082 9.36719C22.7728 10.0052 22.9551 10.7214 22.9551 11.5156C22.9551 12.3359 22.7728 13.0749 22.4082 13.7324C22.0501 14.3835 21.5716 14.901 20.9727 15.2852C20.3737 15.6693 19.7194 15.8613 19.0098 15.8613ZM2.32031 24.9531C1.66276 24.9531 1.19727 24.8197 0.923828 24.5527C0.650391 24.2858 0.513672 23.9115 0.513672 23.4297C0.513672 22.7656 0.682943 22.0918 1.02148 21.4082C1.36003 20.7181 1.8418 20.0833 2.4668 19.5039C3.09831 18.9245 3.85677 18.4557 4.74219 18.0977C5.6276 17.7396 6.61393 17.5605 7.70117 17.5605C8.58008 17.5605 9.37109 17.6777 10.0742 17.9121C10.7773 18.14 11.3958 18.4264 11.9297 18.7715C11.3763 19.2077 10.8978 19.7025 10.4941 20.2559C10.0905 20.8092 9.78125 21.3757 9.56641 21.9551C9.35156 22.5345 9.24414 23.0846 9.24414 23.6055C9.24414 24.1263 9.37435 24.5755 9.63477 24.9531H2.32031ZM7.70117 16.0859C7.08268 16.0859 6.51302 15.9199 5.99219 15.5879C5.47135 15.2493 5.05469 14.7969 4.74219 14.2305C4.42969 13.6576 4.27344 13.0195 4.27344 12.3164C4.26693 11.6263 4.42318 11.0013 4.74219 10.4414C5.0612 9.88151 5.48112 9.4388 6.00195 9.11328C6.52279 8.78125 7.08919 8.61523 7.70117 8.61523C8.31966 8.61523 8.88932 8.77799 9.41016 9.10352C9.93099 9.42253 10.3477 9.86198 10.6602 10.4219C10.9727 10.9753 11.1289 11.6003 11.1289 12.2969C11.1289 13.0065 10.9727 13.6478 10.6602 14.2207C10.3477 14.7936 9.93099 15.2493 9.41016 15.5879C8.89583 15.9199 8.32617 16.0859 7.70117 16.0859ZM35.6699 24.9531H28.3555C28.6159 24.5755 28.7461 24.1263 28.7461 23.6055C28.7526 23.0846 28.6452 22.5345 28.4238 21.9551C28.209 21.3757 27.8997 20.8092 27.4961 20.2559C27.0924 19.7025 26.6139 19.2077 26.0605 18.7715C26.6009 18.4264 27.2194 18.14 27.916 17.9121C28.6191 17.6777 29.4102 17.5605 30.2891 17.5605C31.3763 17.5605 32.3626 17.7396 33.248 18.0977C34.1335 18.4557 34.8919 18.9245 35.5234 19.5039C36.1549 20.0833 36.6367 20.7181 36.9688 21.4082C37.3073 22.0918 37.4766 22.7656 37.4766 23.4297C37.4766 23.9115 37.3398 24.2858 37.0664 24.5527C36.793 24.8197 36.3275 24.9531 35.6699 24.9531ZM30.2891 16.0859C29.6641 16.0859 29.0911 15.9199 28.5703 15.5879C28.056 15.2493 27.6426 14.7936 27.3301 14.2207C27.0176 13.6478 26.8613 13.0065 26.8613 12.2969C26.8613 11.6003 27.0176 10.9753 27.3301 10.4219C27.6426 9.86198 28.0592 9.42253 28.5801 9.10352C29.1009 8.77799 29.6706 8.61523 30.2891 8.61523C30.901 8.61523 31.4674 8.78125 31.9883 9.11328C32.5091 9.4388 32.929 9.88151 33.248 10.4414C33.5671 11.0013 33.7233 11.6263 33.7168 12.3164C33.7168 13.0195 33.5605 13.6576 33.248 14.2305C32.9355 14.7969 32.5189 15.2493 31.998 15.5879C31.4772 15.9199 30.9076 16.0859 30.2891 16.0859Z" fill="white" fill-opacity="0.2"/>
</svg>
