<svg width="36" height="22" viewBox="0 0 36 22" fill="none" xmlns="http://www.w3.org/2000/svg">
<path d="M23.4004 19.6602C23.5241 19.875 23.5534 20.1061 23.4883 20.3535C23.4232 20.6074 23.2832 20.7962 23.0684 20.9199C22.847 21.0501 22.6159 21.0794 22.375 21.0078C22.1341 20.9362 21.9486 20.793 21.8184 20.5781L15.8906 10.3047C15.6823 10.3893 15.4219 10.4935 15.1094 10.6172C14.8034 10.7344 14.4779 10.8939 14.1328 11.0957C13.5599 11.4277 13.0521 11.8021 12.6094 12.2188C12.1667 12.6354 11.7435 13.0684 11.3398 13.5176C10.9427 13.9668 10.5163 14.403 10.0605 14.8262C9.61133 15.2493 9.08398 15.6335 8.47852 15.9785C8.11393 16.1999 7.74284 16.3854 7.36523 16.5352C6.98763 16.6849 6.64583 16.7728 6.33984 16.7988C5.97526 16.8379 5.63672 16.7923 5.32422 16.6621C5.01172 16.5254 4.74479 16.265 4.52344 15.8809L0.607422 9.09375C0.438151 8.78125 0.405599 8.48828 0.509766 8.21484C0.613932 7.9349 0.8125 7.71029 1.10547 7.54102C1.32682 7.41732 1.64583 7.28385 2.0625 7.14062C2.47917 6.99089 2.9349 6.77279 3.42969 6.48633C4.0026 6.16081 4.50716 5.78971 4.94336 5.37305C5.38607 4.94987 5.80924 4.51693 6.21289 4.07422C6.61654 3.625 7.04297 3.1888 7.49219 2.76562C7.94792 2.34245 8.47526 1.95508 9.07422 1.60352C9.45182 1.38867 9.82617 1.20638 10.1973 1.05664C10.5749 0.906901 10.9167 0.815755 11.2227 0.783203C11.5872 0.750651 11.9225 0.802734 12.2285 0.939453C12.541 1.06966 12.8079 1.33008 13.0293 1.7207L23.4004 19.6602ZM18.7129 9.07422L22.9707 1.7207C23.1921 1.33008 23.4557 1.06966 23.7617 0.939453C24.0742 0.802734 24.4128 0.750651 24.7773 0.783203C25.0833 0.815755 25.4219 0.906901 25.793 1.05664C26.1706 1.20638 26.5482 1.38867 26.9258 1.60352C27.5247 1.95508 28.0488 2.34245 28.498 2.76562C28.9538 3.1888 29.3835 3.625 29.7871 4.07422C30.1908 4.51693 30.6107 4.94987 31.0469 5.37305C31.4831 5.78971 31.9876 6.16081 32.5605 6.48633C33.0618 6.77279 33.5208 6.99089 33.9375 7.14062C34.3542 7.28385 34.6732 7.41732 34.8945 7.54102C35.1875 7.71029 35.3861 7.9349 35.4902 8.21484C35.5944 8.48828 35.5618 8.78125 35.3926 9.09375L31.4668 15.8809C31.252 16.265 30.9883 16.5254 30.6758 16.6621C30.3633 16.7923 30.0215 16.8379 29.6504 16.7988C29.3509 16.7728 29.0124 16.6849 28.6348 16.5352C28.2572 16.3854 27.8828 16.1999 27.5117 15.9785C26.9128 15.6335 26.3854 15.2493 25.9297 14.8262C25.4805 14.403 25.054 13.9668 24.6504 13.5176C24.2467 13.0684 23.8236 12.6354 23.3809 12.2188C22.9447 11.8021 22.4401 11.4277 21.8672 11.0957C21.5221 10.8939 21.1934 10.7344 20.8809 10.6172C20.5749 10.4935 20.3177 10.3893 20.1094 10.3047L19.7676 10.9004L18.7129 9.07422ZM17.2871 15.207L14.1719 20.5781C14.0482 20.793 13.8659 20.9362 13.625 21.0078C13.3841 21.0794 13.153 21.0501 12.9316 20.9199C12.7168 20.7962 12.5768 20.6074 12.5117 20.3535C12.4466 20.1061 12.4759 19.875 12.5996 19.6602L16.2227 13.3711L17.2871 15.207Z" fill="white" fill-opacity="0.2"/>
</svg>
