<svg width="32" height="32" viewBox="0 0 32 32" fill="none" xmlns="http://www.w3.org/2000/svg">
<path d="M8.26562 5.79297C8.53125 5.51172 8.84375 5.375 9.20312 5.38281C9.57031 5.38281 9.88281 5.51953 10.1406 5.79297L16.0469 11.8398C16.2969 12.1055 16.4219 12.4102 16.4219 12.7539C16.4219 13.1211 16.3047 13.4219 16.0703 13.6562C15.8438 13.8906 15.5508 14.0078 15.1914 14.0078C15.0195 14.0078 14.8594 13.9766 14.7109 13.9141C14.5625 13.8516 14.4336 13.7617 14.3242 13.6445L11.8984 11.1367L10.375 9.36719L10.457 11.8398V26.4414C10.457 26.8086 10.3398 27.1094 10.1055 27.3438C9.87109 27.5859 9.57031 27.707 9.20312 27.707C8.83594 27.707 8.53516 27.5859 8.30078 27.3438C8.06641 27.1094 7.94922 26.8086 7.94922 26.4414V11.8398L8.04297 9.36719L6.50781 11.1367L4.09375 13.6445C3.97656 13.7617 3.84375 13.8516 3.69531 13.9141C3.55469 13.9766 3.39453 14.0078 3.21484 14.0078C2.84766 14.0078 2.54688 13.8906 2.3125 13.6562C2.08594 13.4219 1.97266 13.1211 1.97266 12.7539C1.97266 12.4102 2.10156 12.1055 2.35938 11.8398L8.26562 5.79297ZM23.7227 27.3086C23.457 27.582 23.1445 27.7148 22.7852 27.707C22.4258 27.707 22.1172 27.5742 21.8594 27.3086L15.9531 21.25C15.6875 20.9844 15.5547 20.6758 15.5547 20.3242C15.5547 19.957 15.6719 19.6602 15.9062 19.4336C16.1406 19.1992 16.4414 19.082 16.8086 19.082C16.9805 19.082 17.1367 19.1133 17.2773 19.1758C17.4258 19.2305 17.5586 19.3203 17.6758 19.4453L20.0898 21.9414L21.625 23.7227L21.5312 21.25V6.64844C21.5312 6.28125 21.6484 5.98047 21.8828 5.74609C22.125 5.50391 22.4258 5.38281 22.7852 5.38281C23.1523 5.38281 23.4531 5.50391 23.6875 5.74609C23.9219 5.98047 24.0391 6.28125 24.0391 6.64844V21.25L23.957 23.7227L25.4922 21.9414L27.9062 19.4453C28.0156 19.3203 28.1445 19.2305 28.293 19.1758C28.4414 19.1133 28.6016 19.082 28.7734 19.082C29.1406 19.082 29.4375 19.1992 29.6641 19.4336C29.8984 19.6602 30.0156 19.957 30.0156 20.3242C30.0156 20.6758 29.8867 20.9844 29.6289 21.25L23.7227 27.3086Z" fill="white"/>
</svg>
