<svg width="48" height="49" viewBox="0 0 48 49" fill="none" xmlns="http://www.w3.org/2000/svg">
<path d="M0 24.5C0 11.2452 10.7452 0.5 24 0.5C37.2548 0.5 48 11.2452 48 24.5C48 37.7548 37.2548 48.5 24 48.5C10.7452 48.5 0 37.7548 0 24.5Z" fill="white" fill-opacity="0.05"/>
<path d="M14.1914 25.0391C14.1914 24.6797 14.3203 24.3711 14.5781 24.1133C14.8359 23.8477 15.1445 23.7148 15.5039 23.7148H22.6875V16.543C22.6875 16.1836 22.8164 15.875 23.0742 15.6172C23.332 15.3594 23.6406 15.2305 24 15.2305C24.3672 15.2305 24.6797 15.3594 24.9375 15.6172C25.1953 15.875 25.3242 16.1836 25.3242 16.543V23.7148H32.4961C32.8555 23.7148 33.1641 23.8477 33.4219 24.1133C33.6797 24.3711 33.8086 24.6797 33.8086 25.0391C33.8086 25.4062 33.6797 25.7188 33.4219 25.9766C33.1641 26.2266 32.8555 26.3516 32.4961 26.3516H25.3242V33.5469C25.3242 33.8984 25.1953 34.2031 24.9375 34.4609C24.6797 34.7188 24.3672 34.8477 24 34.8477C23.6406 34.8477 23.332 34.7188 23.0742 34.4609C22.8164 34.2031 22.6875 33.8984 22.6875 33.5469V26.3516H15.5039C15.1445 26.3516 14.8359 26.2266 14.5781 25.9766C14.3203 25.7188 14.1914 25.4062 14.1914 25.0391Z" fill="white"/>
</svg>
