<svg width="200" height="200" viewBox="0 0 200 200" fill="none" xmlns="http://www.w3.org/2000/svg">
<path d="M35.2129 148.614C35.1307 149 35.2272 149.402 35.4753 149.709C35.7235 150.015 36.0968 150.193 36.4911 150.193H60.0475C60.6645 150.193 61.1974 149.762 61.3258 149.158L78.3819 68.9889C78.464 68.6031 78.3675 68.201 78.1194 67.8945C77.8712 67.588 77.498 67.41 77.1036 67.41H53.5473C53.312 67.41 53.081 67.4735 52.8788 67.5939L53.5473 68.7169L52.8788 67.5939L52.8788 67.5939L52.8787 67.5939L52.8782 67.5942L52.8765 67.5952L52.8697 67.5993L52.8423 67.6156L52.733 67.6807L52.2955 67.9411L50.5553 68.9769C48.998 69.8669 47.0725 70.9777 44.7796 72.3091L44.7796 72.309L44.7716 72.3137C42.515 73.6455 40.2398 74.9774 37.9461 76.3092L37.946 76.3092L37.9381 76.3139C35.6827 77.6449 33.777 78.7735 32.2214 79.6995L30.4814 80.6937L30.0439 80.9437L29.9345 81.0062L29.9072 81.0219L29.9003 81.0258L29.8986 81.0267L29.8982 81.027L29.8981 81.0271L29.8981 81.0271L30.5465 82.1618L29.8981 81.0271C29.5741 81.2122 29.3447 81.5269 29.2677 81.892L24.9898 102.171C24.8839 102.672 25.0814 103.19 25.4946 103.493C25.9079 103.797 26.4607 103.831 26.908 103.58L26.908 103.58L26.9081 103.58L26.9085 103.58L26.9102 103.579L26.9169 103.575L26.9436 103.56L27.0503 103.5L27.4774 103.261L29.1858 102.302L29.2066 102.29C30.7244 101.402 32.5943 100.31 34.8162 99.0134L34.8301 99.0052C37.0478 97.6746 39.2655 96.3625 41.4831 95.0689C43.7018 93.7747 45.5654 92.7045 47.0753 91.8575L47.0961 91.8455L47.3268 91.7105L35.2129 148.614ZM127.585 68.179L107.227 113.257L108.415 68.7518C108.424 68.3992 108.291 68.0578 108.045 67.8052C107.799 67.5525 107.461 67.41 107.108 67.41H82.8852C82.5282 67.41 82.1867 67.556 81.9402 67.8141C81.6936 68.0722 81.5633 68.42 81.5796 68.7766L85.2464 148.946C85.2783 149.644 85.8534 150.193 86.552 150.193H108.83C109.336 150.193 109.797 149.901 110.013 149.444L129.712 107.652L132.026 148.959C132.065 149.652 132.638 150.193 133.331 150.193H155.332C155.839 150.193 156.3 149.901 156.515 149.442L194.183 69.2727C194.373 68.8678 194.343 68.3939 194.103 68.0163C193.864 67.6387 193.447 67.41 193 67.41H168.777C168.238 67.41 167.755 67.7406 167.559 68.2427L149.995 113.358L148.304 68.6675C148.278 67.9654 147.701 67.41 146.998 67.41H128.776C128.262 67.41 127.796 67.7109 127.585 68.179Z" fill="#001724" stroke="#001724" stroke-width="2.61384" stroke-linejoin="round"/>
<path d="M22.8688 71.0397C22.4499 70.7005 21.8658 70.6532 21.3979 70.9206L19.0645 72.254C18.6899 72.4681 18.445 72.8532 18.4102 73.2833C18.3754 73.7134 18.5551 74.1329 18.8904 74.4044L29.7242 83.1774C30.143 83.5166 30.7271 83.5639 31.1951 83.2965L33.5285 81.9631C33.9031 81.749 34.1479 81.3639 34.1827 80.9338C34.2176 80.5038 34.0379 80.0842 33.7026 79.8127L22.8688 71.0397Z" fill="#001724" stroke="#001724" stroke-width="2.61384" stroke-linejoin="round"/>
<path d="M28.5908 67.6507C28.1667 67.3073 27.574 67.2635 27.1041 67.5408C24.8439 68.8747 22.9349 70.0053 21.3774 70.9323C21.0102 71.1509 20.773 71.5352 20.7424 71.9615C20.7117 72.3877 20.8913 72.8021 21.2234 73.071L32.0572 81.844C32.4827 82.1886 33.0777 82.2314 33.5481 81.9514C35.1019 81.0266 37.0079 79.8978 39.2663 78.5649C39.6351 78.3473 39.8739 77.9627 39.9055 77.5357C39.937 77.1086 39.7574 76.6932 39.4246 76.4237L28.5908 67.6507Z" fill="#001724" stroke="#001724" stroke-width="2.61384" stroke-linejoin="round"/>
<path d="M35.4246 63.6505C35.0005 63.3071 34.4078 63.2633 33.9379 63.5406C31.6812 64.8724 29.406 66.2042 27.1123 67.5361C26.7406 67.7519 26.4987 68.1368 26.4655 68.5654C26.4323 68.994 26.612 69.4115 26.9461 69.682L37.7799 78.455C38.2013 78.7963 38.7896 78.8418 39.2586 78.5695C41.5576 77.2346 43.8381 75.8997 46.1002 74.5647C46.4689 74.3471 46.7077 73.9626 46.7393 73.5355C46.7708 73.1084 46.5912 72.693 46.2584 72.4235L35.4246 63.6505Z" fill="#001724" stroke="#001724" stroke-width="2.61384" stroke-linejoin="round"/>
<path d="M20.535 72.3731C20.1813 72.0867 19.7041 72.0049 19.2753 72.1571C18.8464 72.3093 18.5277 72.6737 18.4337 73.119L14.1558 93.3974C14.0545 93.8776 14.2307 94.374 14.6121 94.6829L25.4459 103.456C25.7995 103.742 26.2767 103.824 26.7056 103.672C27.1344 103.52 27.4532 103.155 27.5471 102.71L31.8251 82.4315C31.9263 81.9514 31.7501 81.4549 31.3687 81.1461L20.535 72.3731Z" fill="#001724" stroke="#001724" stroke-width="2.61384" stroke-linejoin="round"/>
<path d="M41.202 60.3171C40.7832 59.9779 40.1991 59.9306 39.7311 60.198C38.172 61.0889 36.2432 62.2017 33.9453 63.536C33.5736 63.7518 33.3317 64.1367 33.2985 64.5652C33.2653 64.9938 33.445 65.4113 33.7791 65.6818L44.6129 74.4549C45.0343 74.7961 45.6227 74.8417 46.0916 74.5694C48.3865 73.2369 50.3097 72.1274 51.8617 71.2405C52.2363 71.0264 52.4812 70.6413 52.516 70.2112C52.5508 69.7811 52.3711 69.3616 52.0358 69.0901L41.202 60.3171Z" fill="#001724" stroke="#001724" stroke-width="2.61384" stroke-linejoin="round"/>
<path d="M43.5358 58.9282C43.1103 58.5836 42.5152 58.5408 42.0448 58.8208L39.7114 60.2097C39.3442 60.4283 39.107 60.8126 39.0763 61.2389C39.0456 61.6651 39.2253 62.0795 39.5574 62.3484L50.3912 71.1214C50.8166 71.466 51.4117 71.5088 51.8821 71.2288L54.2155 69.8399C54.5828 69.6213 54.8199 69.237 54.8506 68.8107C54.8813 68.3845 54.7017 67.9701 54.3695 67.7012L43.5358 58.9282Z" fill="#001724" stroke="#001724" stroke-width="2.61384" stroke-linejoin="round"/>
<path d="M14.7952 92.5273C14.4173 92.7393 14.169 93.1248 14.1323 93.5566C14.0957 93.9883 14.2754 94.4102 14.6121 94.6828L25.4459 103.456C25.8618 103.793 26.441 103.842 26.9078 103.58L29.1856 102.302C29.5635 102.09 29.8118 101.705 29.8484 101.273C29.8851 100.841 29.7054 100.419 29.3687 100.147L18.5349 91.3737C18.119 91.0369 17.5398 90.9877 17.073 91.2495L14.7952 92.5273Z" fill="#001724" stroke="#001724" stroke-width="2.61384" stroke-linejoin="round"/>
<path d="M17.0527 91.2615C16.6824 91.4782 16.4421 91.8629 16.4097 92.2907C16.3773 92.7185 16.557 93.135 16.8904 93.405L27.7242 102.178C28.1469 102.52 28.7375 102.565 29.2069 102.29C30.7247 101.402 32.5945 100.31 34.8165 99.0134C35.1874 98.797 35.4284 98.4122 35.4611 97.9841C35.4938 97.5559 35.3142 97.139 34.9804 96.8688L24.1467 88.0958C23.7245 87.7539 23.1349 87.7088 22.6657 87.9826C20.443 89.2791 18.572 90.3721 17.0527 91.2615Z" fill="#001724" stroke="#001724" stroke-width="2.61384" stroke-linejoin="round"/>
<path d="M22.6518 87.9908C22.2861 88.2102 22.0504 88.5944 22.0205 89.0199C21.9906 89.4454 22.1703 89.8587 22.5017 90.1271L33.3355 98.9001C33.7623 99.2457 34.3595 99.2877 34.8304 99.0051C37.0481 97.6745 39.2658 96.3624 41.4834 95.0688C41.8543 94.8524 42.0953 94.4677 42.128 94.0395C42.1607 93.6114 41.9811 93.1945 41.6474 92.9242L30.8136 84.1512C30.3914 83.8093 29.8018 83.7643 29.3326 84.038C27.1056 85.3371 24.8787 86.6546 22.6518 87.9908Z" fill="#001724" stroke="#001724" stroke-width="2.61384" stroke-linejoin="round"/>
<path d="M29.3327 84.038C28.9618 84.2544 28.7208 84.6391 28.6881 85.0673C28.6554 85.4954 28.835 85.9124 29.1687 86.1826L40.0025 94.9556C40.4247 95.2975 41.0143 95.3425 41.4835 95.0688C43.7022 93.7746 45.5658 92.7045 47.0757 91.8574C47.4536 91.6454 47.7019 91.2599 47.7385 90.8282C47.7752 90.3965 47.5955 89.9746 47.2588 89.7019L36.425 80.9289C36.0091 80.5921 35.4299 80.5429 34.9631 80.8048C33.4359 81.6615 31.5586 82.7395 29.3327 84.038Z" fill="#001724" stroke="#001724" stroke-width="2.61384" stroke-linejoin="round"/>
<path d="M34.9413 80.8167C34.5711 81.0334 34.3308 81.4181 34.2984 81.8459C34.266 82.2738 34.4457 82.6902 34.7791 82.9603L45.6129 91.7333C46.0356 92.0756 46.6261 92.1203 47.0956 91.8455L49.3734 90.5121C49.7437 90.2954 49.984 89.9107 50.0164 89.4829C50.0488 89.055 49.8691 88.6386 49.5357 88.3686L38.7019 79.5955C38.2792 79.2532 37.6886 79.2085 37.2192 79.4833L34.9413 80.8167Z" fill="#001724" stroke="#001724" stroke-width="2.61384" stroke-linejoin="round"/>
<path d="M67.0927 58.9282C66.86 58.7397 66.5697 58.6369 66.2702 58.6369H42.7139C42.1603 58.6369 41.6667 58.9857 41.4819 59.5076C41.2971 60.0294 41.4612 60.6111 41.8914 60.9595L52.7252 69.7325C52.9579 69.9209 53.2482 70.0238 53.5476 70.0238H77.104C77.6576 70.0238 78.1512 69.675 78.336 69.1531C78.5208 68.6312 78.3567 68.0496 77.9265 67.7012L67.0927 58.9282Z" fill="#001724" stroke="#001724" stroke-width="2.61384" stroke-linejoin="round"/>
<path d="M37.8799 79.3043C37.3263 79.3043 36.8327 79.6531 36.6479 80.1749C36.4631 80.6968 36.6272 81.2785 37.0574 81.6269L47.8912 90.3999C48.1239 90.5883 48.4142 90.6911 48.7137 90.6911H49.1581C49.7117 90.6911 50.2053 90.3423 50.3901 89.8205C50.5749 89.2986 50.4108 88.717 49.9806 88.3686L39.1468 79.5955C38.9141 79.4071 38.6238 79.3043 38.3243 79.3043H37.8799Z" fill="#001724" stroke="#001724" stroke-width="2.61384" stroke-linejoin="round"/>
<path d="M39.1468 79.5955C38.7935 79.3094 38.3169 79.2275 37.8883 79.3792C37.4597 79.5309 37.1407 79.8944 37.0461 80.3391L24.379 139.841C24.2766 140.322 24.4527 140.82 24.8348 141.129L35.6685 149.902C36.0219 150.188 36.4985 150.27 36.9271 150.118C37.3557 149.967 37.6746 149.603 37.7693 149.158L50.4364 89.6564C50.5387 89.1755 50.3626 88.6779 49.9806 88.3686L39.1468 79.5955Z" fill="#001724" stroke="#001724" stroke-width="2.61384" stroke-linejoin="round"/>
<path d="M97.0973 58.9282C96.8646 58.7397 96.5742 58.6369 96.2748 58.6369H72.0518C71.4981 58.6369 71.0046 58.9857 70.8198 59.5076C70.635 60.0294 70.7991 60.6111 71.2293 60.9595L82.0631 69.7325C82.2958 69.9209 82.5861 70.0238 82.8855 70.0238H107.109C107.662 70.0238 108.156 69.675 108.341 69.1531C108.525 68.6312 108.361 68.0496 107.931 67.7012L97.0973 58.9282Z" fill="#001724" stroke="#001724" stroke-width="2.61384" stroke-linejoin="round"/>
<path d="M47.9356 139.841C47.8333 140.322 48.0094 140.82 48.3914 141.129L59.2252 149.902C59.5785 150.188 60.0552 150.27 60.4838 150.118C60.9124 149.967 61.2313 149.603 61.326 149.158L78.3821 68.9888C78.4844 68.508 78.3083 68.0105 77.9263 67.7012L67.0925 58.9282C66.7391 58.642 66.2625 58.5601 65.8339 58.7118C65.4053 58.8636 65.0863 59.2271 64.9917 59.6719L47.9356 139.841Z" fill="#001724" stroke="#001724" stroke-width="2.61384" stroke-linejoin="round"/>
<path d="M25.6572 138.806C25.1036 138.806 24.6101 139.155 24.4253 139.677C24.2405 140.199 24.4045 140.781 24.8348 141.129L35.6685 149.902C35.9012 150.09 36.1916 150.193 36.491 150.193H60.0474C60.601 150.193 61.0945 149.844 61.2793 149.323C61.4641 148.801 61.3001 148.219 60.8698 147.871L50.0361 139.098C49.8034 138.909 49.513 138.806 49.2136 138.806H25.6572Z" fill="#001724" stroke="#001724" stroke-width="2.61384" stroke-linejoin="round"/>
<path d="M72.8742 58.9282C72.4743 58.6043 71.9216 58.5453 71.4623 58.7774C71.003 59.0095 70.7227 59.4895 70.7462 60.0035L74.413 140.173C74.4301 140.546 74.6059 140.894 74.8961 141.129L85.7299 149.902C86.1298 150.226 86.6825 150.285 87.1418 150.053C87.6011 149.821 87.8814 149.341 87.8579 148.827L84.1911 68.6571C84.174 68.2841 83.9982 67.9362 83.708 67.7012L72.8742 58.9282Z" fill="#001724" stroke="#001724" stroke-width="2.61384" stroke-linejoin="round"/>
<path d="M93.635 109.855C93.6241 110.262 93.803 110.65 94.1189 110.906L104.953 119.679C105.339 119.992 105.87 120.058 106.322 119.85C106.774 119.642 107.068 119.195 107.082 118.698L108.415 68.7517C108.426 68.3453 108.247 67.957 107.931 67.7012L97.0973 58.9282C96.7106 58.6151 96.1798 58.5486 95.7279 58.7568C95.2761 58.965 94.9816 59.4116 94.9683 59.9089L93.635 109.855Z" fill="#001724" stroke="#001724" stroke-width="2.61384" stroke-linejoin="round"/>
<path d="M118.765 58.9282C118.45 58.6732 118.035 58.5787 117.64 58.6722C117.246 58.7657 116.918 59.0367 116.751 59.4059L94.1947 109.352C93.9501 109.894 94.1016 110.532 94.5633 110.906L105.397 119.679C105.712 119.934 106.127 120.028 106.521 119.935C106.915 119.841 107.244 119.57 107.411 119.201L129.967 69.2548C130.211 68.7133 130.06 68.0751 129.598 67.7012L118.765 58.9282Z" fill="#001724" stroke="#001724" stroke-width="2.61384" stroke-linejoin="round"/>
<path d="M136.987 58.9282C136.754 58.7397 136.464 58.6369 136.164 58.6369H117.941C117.388 58.6369 116.894 58.9857 116.709 59.5076C116.525 60.0294 116.689 60.6111 117.119 60.9595L127.953 69.7325C128.185 69.9209 128.476 70.0238 128.775 70.0238H146.998C147.552 70.0238 148.045 69.675 148.23 69.1531C148.415 68.6312 148.251 68.0496 147.821 67.7012L136.987 58.9282Z" fill="#001724" stroke="#001724" stroke-width="2.61384" stroke-linejoin="round"/>
<path d="M96.2083 108.874C95.9756 108.686 95.6853 108.583 95.3859 108.583H94.9414C94.3878 108.583 93.8942 108.932 93.7095 109.454C93.5247 109.976 93.6887 110.557 94.1189 110.906L104.953 119.679C105.185 119.867 105.476 119.97 105.775 119.97H106.22C106.773 119.97 107.267 119.621 107.452 119.099C107.636 118.577 107.472 117.996 107.042 117.647L96.2083 108.874Z" fill="#001724" stroke="#001724" stroke-width="2.61384" stroke-linejoin="round"/>
<path d="M119.498 93.1936C118.944 93.1936 118.451 93.5424 118.266 94.0643C118.081 94.5861 118.245 95.1678 118.676 95.5162L129.509 104.289C129.742 104.478 130.032 104.58 130.332 104.58H130.776C131.33 104.58 131.823 104.232 132.008 103.71C132.193 103.188 132.029 102.606 131.599 102.258L120.765 93.4849C120.532 93.2964 120.242 93.1936 119.943 93.1936H119.498Z" fill="#001724" stroke="#001724" stroke-width="2.61384" stroke-linejoin="round"/>
<path d="M75.7188 138.806C75.1651 138.806 74.6716 139.155 74.4868 139.677C74.302 140.199 74.466 140.781 74.8963 141.129L85.7301 149.902C85.9628 150.09 86.2531 150.193 86.5525 150.193H108.831C109.385 150.193 109.878 149.844 110.063 149.323C110.248 148.801 110.084 148.219 109.654 147.871L98.8198 139.098C98.5871 138.909 98.2967 138.806 97.9973 138.806H75.7188Z" fill="#001724" stroke="#001724" stroke-width="2.61384" stroke-linejoin="round"/>
<path d="M96.8149 139.556C96.5582 140.101 96.7067 140.75 97.1746 141.129L108.008 149.902C108.32 150.154 108.731 150.25 109.122 150.16C109.513 150.071 109.842 149.807 110.013 149.443L131.514 103.831C131.77 103.286 131.622 102.637 131.154 102.258L120.32 93.4849C120.008 93.2323 119.598 93.137 119.206 93.2265C118.815 93.316 118.487 93.5803 118.316 93.9433L96.8149 139.556Z" fill="#001724" stroke="#001724" stroke-width="2.61384" stroke-linejoin="round"/>
<path d="M136.747 109.939C136.761 110.316 136.938 110.668 137.231 110.906L148.064 119.679C148.463 120.001 149.013 120.061 149.472 119.832C149.93 119.602 150.212 119.126 150.193 118.614L148.304 68.6674C148.29 68.2907 148.113 67.9384 147.82 67.7012L136.987 58.9282C136.588 58.6055 136.038 58.5456 135.579 58.7751C135.121 59.0045 134.839 59.4809 134.858 59.9932L136.747 109.939Z" fill="#001724" stroke="#001724" stroke-width="2.61384" stroke-linejoin="round"/>
<path d="M120.764 93.4849C120.362 93.1595 119.806 93.1016 119.346 93.3371C118.886 93.5727 118.608 94.0574 118.637 94.5737L121.192 140.186C121.213 140.555 121.388 140.897 121.675 141.129L132.508 149.902C132.91 150.227 133.466 150.285 133.926 150.05C134.387 149.814 134.665 149.329 134.636 148.813L132.08 103.2C132.059 102.832 131.884 102.49 131.598 102.258L120.764 93.4849Z" fill="#001724" stroke="#001724" stroke-width="2.61384" stroke-linejoin="round"/>
<path d="M158.766 58.9282C158.441 58.6656 158.011 58.5736 157.608 58.6806C157.205 58.7877 156.877 59.0808 156.725 59.4697L137.28 109.416C137.074 109.946 137.234 110.548 137.676 110.906L148.509 119.679C148.834 119.941 149.264 120.033 149.667 119.926C150.07 119.819 150.398 119.526 150.55 119.137L169.995 69.191C170.201 68.6612 170.041 68.0589 169.599 67.7012L158.766 58.9282Z" fill="#001724" stroke="#001724" stroke-width="2.61384" stroke-linejoin="round"/>
<path d="M182.989 58.9282C182.756 58.7397 182.466 58.6369 182.166 58.6369H157.943C157.39 58.6369 156.896 58.9857 156.711 59.5076C156.527 60.0294 156.691 60.6111 157.121 60.9595L167.955 69.7325C168.187 69.9209 168.478 70.0238 168.777 70.0238H193C193.554 70.0238 194.047 69.675 194.232 69.1531C194.417 68.6312 194.253 68.0496 193.823 67.7012L182.989 58.9282Z" fill="#001724" stroke="#001724" stroke-width="2.61384" stroke-linejoin="round"/>
<path d="M139.321 108.874C139.088 108.686 138.798 108.583 138.498 108.583H138.054C137.5 108.583 137.007 108.932 136.822 109.454C136.637 109.976 136.801 110.557 137.231 110.906L148.065 119.679C148.298 119.867 148.588 119.97 148.887 119.97H149.332C149.886 119.97 150.379 119.621 150.564 119.099C150.749 118.577 150.585 117.996 150.154 117.647L139.321 108.874Z" fill="#001724" stroke="#001724" stroke-width="2.61384" stroke-linejoin="round"/>
<path d="M143.315 139.557C143.059 140.102 143.208 140.75 143.676 141.129L154.509 149.902C154.821 150.155 155.232 150.25 155.624 150.16C156.015 150.07 156.344 149.806 156.515 149.442L194.183 69.2726C194.438 68.7283 194.29 68.0797 193.822 67.7012L182.988 58.9282C182.676 58.6754 182.265 58.5802 181.874 58.67C181.482 58.7597 181.154 59.0245 180.983 59.388L143.315 139.557Z" fill="#001724" stroke="#001724" stroke-width="2.61384" stroke-linejoin="round"/>
<path d="M122.497 138.806C121.943 138.806 121.45 139.155 121.265 139.677C121.08 140.199 121.244 140.781 121.675 141.129L132.508 149.902C132.741 150.09 133.031 150.193 133.331 150.193H155.332C155.885 150.193 156.379 149.844 156.564 149.323C156.748 148.801 156.584 148.219 156.154 147.871L145.32 139.098C145.088 138.909 144.797 138.806 144.498 138.806H122.497Z" fill="#001724" stroke="#001724" stroke-width="2.61384" stroke-linejoin="round"/>
<mask id="path-34-outside-1_488_3167" maskUnits="userSpaceOnUse" x="13" y="57.6289" width="173" height="86" fill="black">
<rect fill="white" x="13" y="57.6289" width="173" height="86"/>
<path d="M25.8849 140.629L38.552 81.1268H38.1076C38.1076 81.1268 37.3483 81.5713 35.8297 82.4602C34.3111 83.3121 32.4407 84.3862 30.2184 85.6825C27.9961 86.9789 25.7738 88.2937 23.5515 89.6271C21.3292 90.9235 19.4588 92.0161 17.9402 92.905C16.4216 93.7569 15.6623 94.1828 15.6623 94.1828L19.9403 73.9044C19.9403 73.9044 20.7181 73.4599 22.2737 72.571C23.8293 71.645 25.7368 70.5154 27.9961 69.182C30.2925 67.8486 32.5703 66.5152 34.8297 65.1818C37.126 63.8485 39.052 62.7373 40.6076 61.8484C42.1633 60.9224 42.9411 60.4595 42.9411 60.4595H66.4974L49.4413 140.629H25.8849ZM119.725 95.0162L98.2243 140.629H75.9457L72.2789 60.4595H96.502L95.1686 110.406H95.6131L118.169 60.4595H136.392L138.281 110.406H138.726L158.171 60.4595H182.394L144.726 140.629H122.725L120.169 95.0162H119.725Z"/>
</mask>
<path d="M25.8849 140.629L38.552 81.1268H38.1076C38.1076 81.1268 37.3483 81.5713 35.8297 82.4602C34.3111 83.3121 32.4407 84.3862 30.2184 85.6825C27.9961 86.9789 25.7738 88.2937 23.5515 89.6271C21.3292 90.9235 19.4588 92.0161 17.9402 92.905C16.4216 93.7569 15.6623 94.1828 15.6623 94.1828L19.9403 73.9044C19.9403 73.9044 20.7181 73.4599 22.2737 72.571C23.8293 71.645 25.7368 70.5154 27.9961 69.182C30.2925 67.8486 32.5703 66.5152 34.8297 65.1818C37.126 63.8485 39.052 62.7373 40.6076 61.8484C42.1633 60.9224 42.9411 60.4595 42.9411 60.4595H66.4974L49.4413 140.629H25.8849ZM119.725 95.0162L98.2243 140.629H75.9457L72.2789 60.4595H96.502L95.1686 110.406H95.6131L118.169 60.4595H136.392L138.281 110.406H138.726L158.171 60.4595H182.394L144.726 140.629H122.725L120.169 95.0162H119.725Z" fill="white"/>
<path d="M25.8849 140.629L23.3284 140.085C23.1641 140.856 23.357 141.66 23.8533 142.273C24.3496 142.887 25.0962 143.243 25.8849 143.243V140.629ZM38.552 81.1268L41.1086 81.6711C41.2728 80.8996 41.0799 80.0953 40.5836 79.4822C40.0873 78.8692 39.3408 78.513 38.552 78.513V81.1268ZM38.1076 81.1268V78.513C37.6434 78.513 37.1877 78.6366 36.7871 78.8711L38.1076 81.1268ZM35.8297 82.4602L37.1085 84.7399C37.1225 84.732 37.1364 84.7241 37.1502 84.716L35.8297 82.4602ZM23.5515 89.6271L24.8685 91.8849C24.8778 91.8795 24.8871 91.874 24.8963 91.8685L23.5515 89.6271ZM17.9402 92.905L19.219 95.1847C19.233 95.1768 19.2469 95.1689 19.2607 95.1608L17.9402 92.905ZM15.6623 94.1828L13.1048 93.6433C12.8931 94.647 13.288 95.6817 14.1145 96.2891C14.9411 96.8965 16.0466 96.9643 16.9412 96.4625L15.6623 94.1828ZM19.9403 73.9044L18.6434 71.6349C17.9955 72.0052 17.5368 72.6347 17.3827 73.3648L19.9403 73.9044ZM22.2737 72.571L23.5705 74.8404C23.584 74.8328 23.5973 74.825 23.6106 74.817L22.2737 72.571ZM27.9961 69.182L26.6836 66.9216C26.6783 66.9247 26.6729 66.9278 26.6676 66.9309L27.9961 69.182ZM34.8297 65.1818L33.5172 62.9214C33.5118 62.9245 33.5065 62.9276 33.5012 62.9308L34.8297 65.1818ZM40.6076 61.8484L41.9045 64.1178C41.9179 64.1102 41.9313 64.1024 41.9446 64.0945L40.6076 61.8484ZM42.9411 60.4595V57.8456C42.4704 57.8456 42.0085 57.9727 41.6041 58.2134L42.9411 60.4595ZM66.4974 60.4595L69.054 61.0034C69.2182 60.232 69.0252 59.4277 68.5289 58.8147C68.0326 58.2017 67.2861 57.8456 66.4974 57.8456V60.4595ZM49.4413 140.629V143.243C50.6752 143.243 51.7411 142.38 51.9979 141.173L49.4413 140.629ZM28.4415 141.173L41.1086 81.6711L35.9955 80.5826L23.3284 140.085L28.4415 141.173ZM38.552 78.513H38.1076V83.7407H38.552V78.513ZM38.1076 81.1268C36.7871 78.8711 36.7871 78.8711 36.7871 78.8711C36.7871 78.8711 36.7871 78.8711 36.7871 78.8711C36.7871 78.8711 36.787 78.8711 36.787 78.8711C36.787 78.8711 36.787 78.8711 36.787 78.8711C36.7864 78.8715 36.7872 78.871 36.7865 78.8714C36.7865 78.8714 36.786 78.8717 36.7859 78.8718C36.7836 78.8731 36.7872 78.871 36.7849 78.8724C36.7848 78.8724 36.7847 78.8725 36.7846 78.8725C36.7845 78.8726 36.7844 78.8726 36.7843 78.8727C36.7842 78.8728 36.7841 78.8728 36.784 78.8729C36.7839 78.873 36.7837 78.873 36.7836 78.8731C36.7835 78.8732 36.7823 78.8738 36.7821 78.874C36.777 78.877 36.7855 78.872 36.7803 78.875C36.7799 78.8753 36.7797 78.8754 36.7793 78.8756C36.7791 78.8757 36.7789 78.8758 36.7788 78.8759C36.7786 78.876 36.7784 78.8762 36.7782 78.8763C36.7538 78.8905 36.7818 78.8741 36.7515 78.8919C36.7489 78.8934 36.6711 78.939 36.6447 78.9544C36.6447 78.9544 36.6084 78.9757 36.6069 78.9765C36.6027 78.979 36.6061 78.977 36.6019 78.9795C36.601 78.98 36.6002 78.9805 36.5993 78.981C36.5985 78.9815 36.5976 78.982 36.5968 78.9825C36.5959 78.983 36.5951 78.9835 36.5942 78.984C36.5933 78.9845 36.5925 78.985 36.5916 78.9855C36.5907 78.986 36.5899 78.9865 36.589 78.987C36.5881 78.9875 36.5872 78.9881 36.5863 78.9886C36.5535 79.0078 36.6086 78.9755 36.5756 78.9948C36.5747 78.9954 36.5738 78.9959 36.5729 78.9964C36.572 78.997 36.5711 78.9975 36.5702 78.998C36.5628 79.0023 36.572 78.997 36.5647 79.0013C36.5032 79.0372 36.5809 78.9918 36.5179 79.0286C36.5098 79.0334 36.52 79.0274 36.5118 79.0322C36.5073 79.0348 36.5101 79.0332 36.5056 79.0359C36.501 79.0385 36.5038 79.0369 36.4993 79.0395C36.4908 79.0445 36.5014 79.0383 36.4929 79.0433C36.4837 79.0487 36.4957 79.0416 36.4865 79.047C36.4854 79.0477 36.4843 79.0483 36.4832 79.0489C36.4822 79.0496 36.4811 79.0502 36.48 79.0508C36.4712 79.056 36.4822 79.0495 36.4734 79.0547C36.4723 79.0553 36.4712 79.056 36.4701 79.0566C36.469 79.0573 36.4679 79.0579 36.4668 79.0586C36.3655 79.1178 36.5139 79.031 36.4112 79.0911C36.3719 79.1141 36.3919 79.1024 36.3511 79.1263C36.2653 79.1765 36.3094 79.1507 36.2176 79.2044C35.9967 79.3337 35.8217 79.4362 35.5058 79.6211C35.3578 79.7077 35.6002 79.5658 35.4519 79.6527C35.4153 79.674 35.4337 79.6633 35.3968 79.6849C35.3219 79.7287 35.3597 79.7066 35.2834 79.7513C35.1998 79.8002 35.2505 79.7705 35.1655 79.8203C35.1639 79.8212 35.137 79.837 35.1353 79.838C35.115 79.8498 35.1252 79.8439 35.1048 79.8558C35.0946 79.8618 35.0997 79.8588 35.0895 79.8648C35.0477 79.8892 35.116 79.8493 35.0741 79.8738C34.9894 79.9233 35.1279 79.8423 35.0431 79.8919C34.9593 79.941 35.0016 79.9162 34.9163 79.9661C34.8731 79.9914 34.8948 79.9787 34.8513 80.0042C34.8485 80.0058 34.8458 80.0074 34.843 80.009C34.8403 80.0106 34.8376 80.0122 34.8348 80.0139C34.8119 80.0273 34.8413 80.0101 34.8183 80.0235C34.7613 80.0569 34.8422 80.0096 34.7851 80.043C34.7777 80.0473 34.7758 80.0484 34.7684 80.0528C34.7572 80.0593 34.7628 80.056 34.7516 80.0626C34.7291 80.0757 34.7404 80.0691 34.7178 80.0824C34.6724 80.1089 34.6952 80.0956 34.6494 80.1224C34.5574 80.1762 34.6722 80.1091 34.5799 80.1631C34.577 80.1648 34.574 80.1665 34.5711 80.1682C34.5682 80.1699 34.5653 80.1717 34.5623 80.1734C34.5594 80.1751 34.5565 80.1768 34.5535 80.1785C34.5506 80.1802 34.5476 80.182 34.5447 80.1837C34.5211 80.1975 34.5329 80.1906 34.5092 80.2044L37.1502 84.716C37.5921 84.4573 37.7997 84.3358 38.1467 84.1326C38.1709 84.1185 38.2285 84.0848 38.2513 84.0714C38.2776 84.0561 38.2378 84.0794 38.264 84.064C38.2661 84.0627 38.2683 84.0615 38.2704 84.0603C38.2725 84.059 38.2746 84.0578 38.2767 84.0565C38.2788 84.0553 38.2809 84.0541 38.283 84.0529C38.2851 84.0516 38.2872 84.0504 38.2893 84.0492C38.3033 84.041 38.2879 84.05 38.3019 84.0418C38.3512 84.013 38.3024 84.0415 38.3514 84.0128C38.5254 83.911 38.2745 84.0578 38.447 83.9569C38.577 83.8807 38.4097 83.9787 38.5382 83.9035C38.5704 83.8847 38.5504 83.8963 38.5822 83.8778C38.6405 83.8436 38.5455 83.8992 38.6037 83.8651C38.638 83.845 38.5908 83.8727 38.625 83.8527C38.6379 83.8451 38.6332 83.8479 38.646 83.8404C38.6477 83.8394 38.6495 83.8384 38.6512 83.8373C38.6529 83.8363 38.6546 83.8353 38.6564 83.8343C38.6581 83.8333 38.6598 83.8323 38.6615 83.8313C38.6633 83.8303 38.665 83.8293 38.6667 83.8283C38.6684 83.8273 38.6701 83.8263 38.6718 83.8253C38.6735 83.8243 38.6752 83.8233 38.6769 83.8223C38.6798 83.8206 38.6843 83.818 38.6871 83.8163C38.7345 83.7886 38.66 83.8322 38.7073 83.8045C38.7607 83.7733 38.8111 83.7437 38.8586 83.716C38.8823 83.7021 38.8526 83.7195 38.8762 83.7056C38.8917 83.6966 38.8695 83.7096 38.8849 83.7005C38.8864 83.6997 38.8878 83.6988 38.8893 83.698C38.8907 83.6971 38.8922 83.6963 38.8936 83.6955C38.93 83.6741 38.8915 83.6967 38.9275 83.6756C38.9395 83.6686 38.9322 83.6728 38.9441 83.6659C38.9454 83.6651 38.9468 83.6643 38.9481 83.6635C38.9495 83.6627 38.9509 83.6619 38.9522 83.6611C38.9608 83.6561 38.9518 83.6614 38.9603 83.6564C38.9617 83.6556 38.963 83.6548 38.9643 83.654C38.9657 83.6533 38.967 83.6525 38.9684 83.6517C38.9737 83.6486 38.971 83.6501 38.9763 83.647C38.9776 83.6463 38.979 83.6455 38.9803 83.6447C38.9816 83.6439 38.9829 83.6432 38.9842 83.6424C38.9855 83.6416 38.9868 83.6409 38.9881 83.6401C38.9894 83.6394 38.9907 83.6386 38.992 83.6378C38.9989 83.6338 39.1067 83.5707 39.1077 83.5701C39.1789 83.5285 39.2382 83.4937 39.2857 83.466C39.428 83.3826 39.2115 83.5094 39.3479 83.4295C39.3766 83.4127 39.3452 83.4311 39.3724 83.4152C39.3824 83.4093 39.3651 83.4194 39.3752 83.4136C39.3784 83.4117 39.3746 83.4139 39.3778 83.412C39.3787 83.4115 39.3822 83.4094 39.383 83.409C39.4014 83.3982 39.3695 83.4169 39.3878 83.4061C39.3882 83.4059 39.3886 83.4057 39.389 83.4054C39.3894 83.4052 39.3898 83.405 39.3902 83.4048C39.3935 83.4028 39.3891 83.4054 39.3924 83.4035C39.43 83.3815 39.3719 83.4155 39.408 83.3943C39.4149 83.3903 39.4137 83.391 39.4191 83.3878C39.4231 83.3855 39.4233 83.3854 39.4258 83.3839C39.4282 83.3825 39.4254 83.3841 39.4275 83.3829C39.4288 83.3822 39.4264 83.3835 39.4277 83.3828C39.4277 83.3828 39.4278 83.3828 39.4278 83.3827C39.4278 83.3827 39.4279 83.3827 39.4279 83.3827C39.428 83.3826 39.4279 83.3827 39.428 83.3826C39.428 83.3826 39.428 83.3826 39.428 83.3826C39.428 83.3826 39.428 83.3826 38.1076 81.1268ZM34.5509 80.1806C33.0151 81.0421 31.131 82.1242 28.9014 83.4248L31.5354 87.9403C33.7504 86.6483 35.6072 85.5821 37.1085 84.7399L34.5509 80.1806ZM28.9014 83.4248C26.6697 84.7266 24.4382 86.0469 22.2067 87.3858L24.8963 91.8685C27.1095 90.5406 29.3225 89.2312 31.5354 87.9403L28.9014 83.4248ZM22.2345 87.3694C20.0115 88.6661 18.1398 89.7594 16.6197 90.6492L19.2607 95.1608C20.7777 94.2728 22.6469 93.1809 24.8685 91.8849L22.2345 87.3694ZM16.6614 90.6254C16.1984 90.8851 16.0328 90.978 15.6648 91.1844C15.655 91.1899 15.6613 91.1864 15.6515 91.1919C15.65 91.1928 15.6398 91.1985 15.6383 91.1993C15.6366 91.2003 15.6136 91.2132 15.612 91.2141C15.5858 91.2288 15.5861 91.2286 15.5603 91.2431C15.5146 91.2687 15.5044 91.2744 15.4602 91.2992C15.3733 91.3479 15.3542 91.3587 15.2733 91.404C15.1696 91.4622 15.0329 91.5389 14.953 91.5837C14.7344 91.7064 14.6496 91.7539 14.5259 91.8233C14.4678 91.8559 14.4535 91.8639 14.4191 91.8832C14.4064 91.8903 14.3992 91.8944 14.3924 91.8982C14.389 91.9001 14.3916 91.8987 14.3885 91.9004C14.3859 91.9019 14.388 91.9007 14.3857 91.902C14.3849 91.9024 14.3845 91.9026 14.3841 91.9029C14.3838 91.903 14.3838 91.903 14.3837 91.9031C14.3836 91.9032 14.3836 91.9032 14.3836 91.9032C14.3835 91.9032 14.3835 91.9032 14.3835 91.9032C14.3835 91.9032 14.3835 91.9032 15.6623 94.1828C16.9412 96.4625 16.9412 96.4625 16.9412 96.4625C16.9412 96.4625 16.9412 96.4625 16.9412 96.4625C16.9412 96.4625 16.9412 96.4624 16.9412 96.4624C16.9413 96.4624 16.9413 96.4624 16.9413 96.4624C16.9414 96.4624 16.9414 96.4624 16.9415 96.4623C16.9415 96.4623 16.9416 96.4623 16.9416 96.4622C16.9416 96.4622 16.9417 96.4622 16.9417 96.4622C16.9419 96.4621 16.9422 96.4619 16.9424 96.4618C16.9425 96.4617 16.9426 96.4617 16.9426 96.4617C16.9427 96.4616 16.9428 96.4616 16.9429 96.4615C16.943 96.4615 16.943 96.4614 16.9431 96.4614C16.9432 96.4613 16.9433 96.4613 16.9434 96.4612C16.9447 96.4605 16.9427 96.4616 16.944 96.4609C16.9441 96.4608 16.9442 96.4608 16.9443 96.4607C16.9444 96.4607 16.9445 96.4606 16.9446 96.4605C16.9448 96.4605 16.9449 96.4604 16.945 96.4603C16.9451 96.4603 16.9452 96.4602 16.9454 96.4601C16.9455 96.46 16.9456 96.46 16.9458 96.4599C16.9459 96.4598 16.946 96.4598 16.9462 96.4597C16.9463 96.4596 16.9465 96.4595 16.9466 96.4594C16.9467 96.4594 16.9469 96.4593 16.947 96.4592C16.9472 96.4591 16.9473 96.459 16.9475 96.4589C16.9477 96.4588 16.9478 96.4587 16.948 96.4587C16.9484 96.4584 16.9486 96.4583 16.949 96.4581C16.9492 96.458 16.9493 96.4579 16.9495 96.4578C16.9497 96.4577 16.9499 96.4576 16.9501 96.4575C16.9576 96.4532 16.9521 96.4563 16.9612 96.4512C16.9634 96.45 16.9624 96.4506 16.9647 96.4493C16.9667 96.4482 16.9645 96.4494 16.9665 96.4483C16.9685 96.4472 16.9664 96.4483 16.9684 96.4472C16.9783 96.4417 16.9625 96.4505 16.9725 96.4449C16.9794 96.441 16.9697 96.4465 16.9768 96.4425C16.9806 96.4404 16.9751 96.4434 16.979 96.4412C16.9794 96.441 16.9798 96.4408 16.9802 96.4406C16.9806 96.4404 16.981 96.4402 16.9813 96.4399C16.9947 96.4325 16.9728 96.4447 16.9862 96.4372C16.9907 96.4347 16.9919 96.434 16.9968 96.4313C17.0027 96.4279 16.9964 96.4315 17.0025 96.4281C17.0145 96.4213 16.9963 96.4315 17.0085 96.4247C17.0116 96.4229 17.0083 96.4248 17.0116 96.423C17.0175 96.4197 17.0088 96.4245 17.0147 96.4212C17.0152 96.4209 17.0158 96.4206 17.0163 96.4203C17.0169 96.42 17.0174 96.4197 17.0179 96.4194C17.0185 96.4191 17.019 96.4188 17.0196 96.4185C17.0201 96.4182 17.0207 96.4179 17.0213 96.4176C17.0244 96.4158 17.0215 96.4174 17.0246 96.4157C17.0252 96.4153 17.0258 96.415 17.0263 96.4147C17.0269 96.4144 17.0275 96.4141 17.0281 96.4137C17.0312 96.412 17.0284 96.4135 17.0316 96.4118C17.0359 96.4093 17.0308 96.4122 17.0352 96.4098C17.0392 96.4075 17.0384 96.4079 17.0425 96.4056C17.053 96.3997 17.0396 96.4073 17.0502 96.4013C17.0868 96.3808 17.0293 96.4131 17.0663 96.3923C17.0829 96.383 17.0665 96.3921 17.0835 96.3826C17.1111 96.3671 17.0923 96.3777 17.1214 96.3614C17.1529 96.3437 17.11 96.3678 17.1419 96.3499C17.1456 96.3478 17.1488 96.346 17.1526 96.3439C17.1816 96.3276 17.1346 96.354 17.1636 96.3377C17.1644 96.3372 17.1684 96.335 17.1692 96.3346C17.1702 96.334 17.1711 96.3335 17.172 96.333C17.173 96.3324 17.1739 96.3319 17.1749 96.3314C17.1758 96.3308 17.1768 96.3303 17.1777 96.3298C17.1787 96.3292 17.1797 96.3287 17.1806 96.3282C17.1816 96.3276 17.1825 96.3271 17.1835 96.3265C17.1845 96.326 17.1854 96.3254 17.1864 96.3249C17.1955 96.3198 17.2008 96.3168 17.2103 96.3115C17.2312 96.2998 17.2018 96.3163 17.2227 96.3045C17.2335 96.2985 17.2245 96.3036 17.2354 96.2975C17.2445 96.2923 17.2326 96.299 17.2418 96.2938C17.2578 96.2848 17.2322 96.2992 17.2483 96.2902C17.2642 96.2813 17.2455 96.2918 17.2615 96.2828C17.2694 96.2784 17.2603 96.2835 17.2682 96.279C17.2693 96.2784 17.2705 96.2778 17.2716 96.2771C17.2727 96.2765 17.2738 96.2759 17.275 96.2752C17.2855 96.2693 17.2712 96.2773 17.2818 96.2714C17.2935 96.2648 17.277 96.2741 17.2887 96.2675C17.3081 96.2567 17.2834 96.2705 17.3028 96.2596C17.3038 96.2591 17.316 96.2522 17.3171 96.2516C17.3306 96.244 17.3109 96.2551 17.3244 96.2475C17.328 96.2455 17.328 96.2455 17.3317 96.2434C17.3329 96.2427 17.3342 96.242 17.3354 96.2413C17.3366 96.2406 17.3379 96.2399 17.3391 96.2392C17.354 96.2309 17.3316 96.2434 17.3466 96.2351C17.3476 96.2345 17.353 96.2314 17.3541 96.2308C17.3554 96.2301 17.3567 96.2294 17.3579 96.2287C17.3592 96.228 17.3605 96.2273 17.3617 96.2266C17.3675 96.2233 17.3714 96.2212 17.3772 96.2179C17.3859 96.213 17.3841 96.214 17.3929 96.2091C17.4114 96.1987 17.3903 96.2106 17.4089 96.2001C17.4372 96.1842 17.4129 96.1978 17.4417 96.1817C17.556 96.1176 17.3949 96.208 17.5106 96.143C17.6641 96.0569 17.5025 96.1476 17.6619 96.0582C17.8899 95.9303 17.597 96.0946 17.831 95.9633C17.8343 95.9614 17.8499 95.9527 17.8533 95.9508C17.8845 95.9333 17.8447 95.9556 17.876 95.9381C17.9006 95.9243 17.8972 95.9262 17.9222 95.9122C18.066 95.8315 17.8725 95.94 18.0178 95.8585C18.1122 95.8055 18.1221 95.8 18.2225 95.7437C18.2247 95.7425 18.2269 95.7412 18.2291 95.74C18.2314 95.7387 18.2336 95.7375 18.2358 95.7362C18.2381 95.7349 18.2403 95.7337 18.2426 95.7324C18.2448 95.7312 18.247 95.7299 18.2493 95.7287C18.2669 95.7188 18.2452 95.731 18.2628 95.7211C18.278 95.7126 18.2612 95.722 18.2764 95.7134C18.3127 95.6931 18.2674 95.7185 18.3038 95.6981C18.34 95.6778 18.2952 95.7029 18.3315 95.6826C18.3693 95.6613 18.3494 95.6725 18.3876 95.6511C18.4108 95.6381 18.4214 95.6321 18.4449 95.6189C18.563 95.5526 18.4432 95.6199 18.5628 95.5528C18.5989 95.5325 18.587 95.5392 18.6234 95.5188C18.6367 95.5113 18.6715 95.4918 18.6852 95.4841C18.704 95.4736 18.6975 95.4772 18.7164 95.4666C18.7568 95.4439 18.7075 95.4716 18.748 95.4489C18.7842 95.4286 18.7753 95.4336 18.8119 95.413C18.9474 95.337 18.8063 95.4162 18.9432 95.3394C19.1308 95.2341 18.8898 95.3694 19.0789 95.2633C19.1956 95.1978 19.0313 95.29 19.1484 95.2243C19.2948 95.1422 19.0723 95.267 19.219 95.1847L16.6614 90.6254ZM18.2199 94.7224L22.4978 74.4439L17.3827 73.3648L13.1048 93.6433L18.2199 94.7224ZM19.9403 73.9044C21.2371 76.1738 21.2371 76.1738 21.2371 76.1738C21.2371 76.1738 21.2371 76.1738 21.2371 76.1738C21.2371 76.1738 21.2372 76.1738 21.2372 76.1738C21.2372 76.1738 21.2372 76.1737 21.2372 76.1737C21.2373 76.1737 21.2373 76.1737 21.2373 76.1737C21.2374 76.1737 21.2374 76.1737 21.2374 76.1736C21.2375 76.1736 21.2375 76.1736 21.2375 76.1736C21.2376 76.1735 21.2376 76.1735 21.2377 76.1735C21.2377 76.1735 21.2378 76.1734 21.2378 76.1734C21.2379 76.1734 21.2379 76.1733 21.238 76.1733C21.238 76.1733 21.2381 76.1732 21.2382 76.1732C21.2382 76.1732 21.2383 76.1731 21.2384 76.1731C21.2385 76.173 21.2385 76.173 21.2386 76.173C21.2387 76.1729 21.2388 76.1729 21.2388 76.1728C21.2389 76.1728 21.239 76.1727 21.2391 76.1727C21.2392 76.1726 21.2393 76.1726 21.2394 76.1725C21.2395 76.1725 21.2396 76.1724 21.2397 76.1723C21.2398 76.1723 21.2399 76.1722 21.24 76.1722C21.2401 76.1721 21.2402 76.172 21.2403 76.172C21.2404 76.1719 21.2405 76.1718 21.2407 76.1718C21.2408 76.1717 21.2409 76.1716 21.241 76.1716C21.2411 76.1715 21.2413 76.1714 21.2414 76.1714C21.2415 76.1713 21.2417 76.1712 21.2418 76.1711C21.2419 76.171 21.2421 76.171 21.2422 76.1709C21.2424 76.1708 21.2425 76.1707 21.2427 76.1706C21.2428 76.1705 21.243 76.1705 21.2431 76.1704C21.2433 76.1703 21.2434 76.1702 21.2436 76.1701C21.2437 76.17 21.2439 76.1699 21.2441 76.1698C21.2442 76.1697 21.2444 76.1696 21.2446 76.1695C21.2448 76.1694 21.2449 76.1693 21.2451 76.1692C21.2453 76.1691 21.2455 76.169 21.2457 76.1689C21.2458 76.1688 21.246 76.1687 21.2462 76.1686C21.2464 76.1685 21.2466 76.1684 21.2468 76.1683C21.247 76.1682 21.2472 76.168 21.2474 76.1679C21.2476 76.1678 21.2478 76.1677 21.248 76.1676C21.2482 76.1675 21.2484 76.1673 21.2486 76.1672C21.2488 76.1671 21.2491 76.167 21.2493 76.1669C21.2495 76.1667 21.2497 76.1666 21.25 76.1665C21.2502 76.1663 21.2504 76.1662 21.2506 76.1661C21.2509 76.1659 21.2511 76.1658 21.2513 76.1657C21.2516 76.1655 21.2518 76.1654 21.2521 76.1653C21.2523 76.1651 21.2526 76.165 21.2528 76.1648C21.253 76.1647 21.2533 76.1646 21.2536 76.1644C21.2538 76.1643 21.2541 76.1641 21.2543 76.164C21.2546 76.1638 21.2549 76.1637 21.2551 76.1635C21.2554 76.1634 21.2557 76.1632 21.2559 76.1631C21.2562 76.1629 21.2565 76.1627 21.2568 76.1626C21.257 76.1624 21.2573 76.1623 21.2576 76.1621C21.2579 76.1619 21.2582 76.1618 21.2585 76.1616C21.2588 76.1614 21.2591 76.1613 21.2594 76.1611C21.2596 76.1609 21.2599 76.1608 21.2603 76.1606C21.2606 76.1604 21.2609 76.1602 21.2612 76.1601C21.2615 76.1599 21.2618 76.1597 21.2621 76.1595C21.2624 76.1593 21.2627 76.1592 21.2631 76.159C21.2634 76.1588 21.2637 76.1586 21.264 76.1584C21.2644 76.1582 21.2647 76.1581 21.265 76.1579C21.2653 76.1577 21.2657 76.1575 21.266 76.1573C21.2664 76.1571 21.2667 76.1569 21.267 76.1567C21.2674 76.1565 21.2677 76.1563 21.2681 76.1561C21.2684 76.1559 21.2688 76.1557 21.2691 76.1555C21.2695 76.1553 21.2699 76.1551 21.2702 76.1549C21.2706 76.1547 21.2709 76.1545 21.2713 76.1543C21.2717 76.1541 21.2721 76.1538 21.2724 76.1536C21.2728 76.1534 21.2732 76.1532 21.2736 76.153C21.2739 76.1528 21.2743 76.1525 21.2747 76.1523C21.2751 76.1521 21.2755 76.1519 21.2759 76.1517C21.2763 76.1514 21.2767 76.1512 21.2771 76.151C21.2775 76.1508 21.2779 76.1505 21.2783 76.1503C21.2787 76.1501 21.2791 76.1498 21.2795 76.1496C21.2799 76.1494 21.2803 76.1491 21.2807 76.1489C21.2811 76.1487 21.2815 76.1484 21.282 76.1482C21.2824 76.1479 21.2828 76.1477 21.2832 76.1474C21.2837 76.1472 21.2841 76.147 21.2845 76.1467C21.285 76.1465 21.2854 76.1462 21.2858 76.146C21.2863 76.1457 21.2867 76.1455 21.2872 76.1452C21.2876 76.1449 21.2881 76.1447 21.2885 76.1444C21.289 76.1442 21.2894 76.1439 21.2899 76.1437C21.2903 76.1434 21.2908 76.1431 21.2913 76.1429C21.2917 76.1426 21.2922 76.1423 21.2927 76.1421C21.2931 76.1418 21.2936 76.1415 21.2941 76.1413C21.2945 76.141 21.295 76.1407 21.2955 76.1404C21.296 76.1402 21.2965 76.1399 21.297 76.1396C21.2974 76.1393 21.2979 76.1391 21.2984 76.1388C21.2989 76.1385 21.2994 76.1382 21.2999 76.1379C21.3004 76.1376 21.3009 76.1374 21.3014 76.1371C21.3019 76.1368 21.3024 76.1365 21.3029 76.1362C21.3034 76.1359 21.304 76.1356 21.3045 76.1353C21.305 76.135 21.3055 76.1347 21.306 76.1344C21.3066 76.1341 21.3071 76.1338 21.3076 76.1335C21.3081 76.1332 21.3087 76.1329 21.3092 76.1326C21.3097 76.1323 21.3103 76.132 21.3108 76.1317C21.3113 76.1314 21.3119 76.1311 21.3124 76.1308C21.313 76.1305 21.3135 76.1301 21.3141 76.1298C21.3146 76.1295 21.3152 76.1292 21.3158 76.1289C21.3163 76.1286 21.3169 76.1282 21.3174 76.1279C21.318 76.1276 21.3186 76.1273 21.3191 76.1269C21.3197 76.1266 21.3203 76.1263 21.3209 76.126C21.3214 76.1256 21.322 76.1253 21.3226 76.125C21.3232 76.1246 21.3238 76.1243 21.3243 76.124C21.3249 76.1236 21.3255 76.1233 21.3261 76.1229C21.3267 76.1226 21.3273 76.1223 21.3279 76.1219C21.3285 76.1216 21.3291 76.1212 21.3297 76.1209C21.3303 76.1205 21.3309 76.1202 21.3315 76.1199C21.3321 76.1195 21.3328 76.1192 21.3334 76.1188C21.334 76.1184 21.3346 76.1181 21.3352 76.1177C21.3359 76.1174 21.3365 76.117 21.3371 76.1167C21.3377 76.1163 21.3384 76.1159 21.339 76.1156C21.3396 76.1152 21.3403 76.1149 21.3409 76.1145C21.3416 76.1141 21.3422 76.1138 21.3429 76.1134C21.3435 76.113 21.3442 76.1126 21.3448 76.1123C21.3455 76.1119 21.3461 76.1115 21.3468 76.1111C21.3474 76.1108 21.3481 76.1104 21.3488 76.11C21.3494 76.1096 21.3501 76.1092 21.3508 76.1089C21.3514 76.1085 21.3521 76.1081 21.3528 76.1077C21.3535 76.1073 21.3541 76.1069 21.3548 76.1065C21.3555 76.1062 21.3562 76.1058 21.3569 76.1054C21.3576 76.105 21.3583 76.1046 21.3589 76.1042C21.3596 76.1038 21.3603 76.1034 21.361 76.103C21.3617 76.1026 21.3624 76.1022 21.3631 76.1018C21.3639 76.1014 21.3646 76.101 21.3653 76.1006C21.366 76.1002 21.3667 76.0998 21.3674 76.0993C21.3681 76.0989 21.3689 76.0985 21.3696 76.0981C21.3703 76.0977 21.371 76.0973 21.3718 76.0969C21.3725 76.0964 21.3732 76.096 21.374 76.0956C21.3747 76.0952 21.3754 76.0948 21.3762 76.0943C21.3769 76.0939 21.3777 76.0935 21.3784 76.0931C21.3792 76.0926 21.3799 76.0922 21.3807 76.0918C21.3814 76.0913 21.3822 76.0909 21.3829 76.0905C21.3837 76.09 21.3845 76.0896 21.3852 76.0892C21.386 76.0887 21.3868 76.0883 21.3875 76.0879C21.3883 76.0874 21.3891 76.087 21.3899 76.0865C21.3906 76.0861 21.3914 76.0856 21.3922 76.0852C21.393 76.0847 21.3938 76.0843 21.3946 76.0838C21.3953 76.0834 21.3961 76.0829 21.3969 76.0825C21.3977 76.082 21.3985 76.0816 21.3993 76.0811C21.4001 76.0807 21.4009 76.0802 21.4017 76.0797C21.4025 76.0793 21.4034 76.0788 21.4042 76.0783C21.405 76.0779 21.4058 76.0774 21.4066 76.0769C21.4074 76.0765 21.4083 76.076 21.4091 76.0755C21.4099 76.0751 21.4107 76.0746 21.4116 76.0741C21.4124 76.0736 21.4132 76.0732 21.4141 76.0727C21.4149 76.0722 21.4157 76.0717 21.4166 76.0713C21.4174 76.0708 21.4183 76.0703 21.4191 76.0698C21.42 76.0693 21.4208 76.0688 21.4217 76.0683C21.4225 76.0679 21.4234 76.0674 21.4242 76.0669C21.4251 76.0664 21.426 76.0659 21.4268 76.0654C21.4277 76.0649 21.4286 76.0644 21.4294 76.0639C21.4303 76.0634 21.4312 76.0629 21.4321 76.0624C21.433 76.0619 21.4338 76.0614 21.4347 76.0609C21.4356 76.0604 21.4365 76.0599 21.4374 76.0594C21.4383 76.0589 21.4392 76.0583 21.4401 76.0578C21.441 76.0573 21.4419 76.0568 21.4428 76.0563C21.4437 76.0558 21.4446 76.0553 21.4455 76.0547C21.4464 76.0542 21.4473 76.0537 21.4482 76.0532C21.4491 76.0527 21.45 76.0521 21.451 76.0516C21.4519 76.0511 21.4528 76.0506 21.4537 76.05C21.4546 76.0495 21.4556 76.049 21.4565 76.0484C21.4574 76.0479 21.4584 76.0474 21.4593 76.0468C21.4602 76.0463 21.4612 76.0458 21.4621 76.0452C21.4631 76.0447 21.464 76.0441 21.465 76.0436C21.4659 76.0431 21.4669 76.0425 21.4678 76.042C21.4688 76.0414 21.4697 76.0409 21.4707 76.0403C21.4717 76.0398 21.4726 76.0392 21.4736 76.0387C21.4746 76.0381 21.4755 76.0376 21.4765 76.037C21.4775 76.0365 21.4785 76.0359 21.4794 76.0353C21.4804 76.0348 21.4814 76.0342 21.4824 76.0337C21.4834 76.0331 21.4844 76.0325 21.4853 76.032C21.4863 76.0314 21.4873 76.0308 21.4883 76.0303C21.4893 76.0297 21.4903 76.0291 21.4913 76.0285C21.4923 76.028 21.4933 76.0274 21.4943 76.0268C21.4954 76.0262 21.4964 76.0257 21.4974 76.0251C21.4984 76.0245 21.4994 76.0239 21.5004 76.0233C21.5015 76.0228 21.5025 76.0222 21.5035 76.0216C21.5045 76.021 21.5056 76.0204 21.5066 76.0198C21.5076 76.0192 21.5087 76.0186 21.5097 76.018C21.5107 76.0174 21.5118 76.0169 21.5128 76.0163C21.5139 76.0157 21.5149 76.0151 21.516 76.0145C21.517 76.0139 21.5181 76.0133 21.5191 76.0127C21.5202 76.0121 21.5212 76.0114 21.5223 76.0108C21.5234 76.0102 21.5244 76.0096 21.5255 76.009C21.5266 76.0084 21.5276 76.0078 21.5287 76.0072C21.5298 76.0066 21.5309 76.0059 21.5319 76.0053C21.533 76.0047 21.5341 76.0041 21.5352 76.0035C21.5363 76.0029 21.5374 76.0022 21.5385 76.0016C21.5396 76.001 21.5406 76.0004 21.5417 75.9997C21.5428 75.9991 21.5439 75.9985 21.545 75.9978C21.5462 75.9972 21.5473 75.9966 21.5484 75.9959C21.5495 75.9953 21.5506 75.9947 21.5517 75.994C21.5528 75.9934 21.5539 75.9928 21.5551 75.9921C21.5562 75.9915 21.5573 75.9908 21.5584 75.9902C21.5596 75.9895 21.5607 75.9889 21.5618 75.9883C21.563 75.9876 21.5641 75.987 21.5652 75.9863C21.5664 75.9857 21.5675 75.985 21.5687 75.9843C21.5698 75.9837 21.571 75.983 21.5721 75.9824C21.5733 75.9817 21.5744 75.9811 21.5756 75.9804C21.5767 75.9797 21.5779 75.9791 21.579 75.9784C21.5802 75.9777 21.5814 75.9771 21.5825 75.9764C21.5837 75.9757 21.5849 75.9751 21.5861 75.9744C21.5872 75.9737 21.5884 75.9731 21.5896 75.9724C21.5908 75.9717 21.592 75.971 21.5931 75.9704C21.5943 75.9697 21.5955 75.969 21.5967 75.9683C21.5979 75.9676 21.5991 75.967 21.6003 75.9663C21.6015 75.9656 21.6027 75.9649 21.6039 75.9642C21.6051 75.9635 21.6063 75.9628 21.6075 75.9621C21.6087 75.9614 21.61 75.9608 21.6112 75.9601C21.6124 75.9594 21.6136 75.9587 21.6148 75.958C21.6161 75.9573 21.6173 75.9566 21.6185 75.9559C21.6197 75.9552 21.621 75.9545 21.6222 75.9538C21.6234 75.953 21.6247 75.9523 21.6259 75.9516C21.6272 75.9509 21.6284 75.9502 21.6296 75.9495C21.6309 75.9488 21.6321 75.9481 21.6334 75.9474C21.6346 75.9466 21.6359 75.9459 21.6372 75.9452C21.6384 75.9445 21.6397 75.9438 21.6409 75.943C21.6422 75.9423 21.6435 75.9416 21.6447 75.9409C21.646 75.9401 21.6473 75.9394 21.6486 75.9387C21.6498 75.938 21.6511 75.9372 21.6524 75.9365C21.6537 75.9358 21.655 75.935 21.6562 75.9343C21.6575 75.9336 21.6588 75.9328 21.6601 75.9321C21.6614 75.9313 21.6627 75.9306 21.664 75.9299C21.6653 75.9291 21.6666 75.9284 21.6679 75.9276C21.6692 75.9269 21.6705 75.9261 21.6718 75.9254C21.6732 75.9246 21.6745 75.9239 21.6758 75.9231C21.6771 75.9224 21.6784 75.9216 21.6797 75.9209C21.6811 75.9201 21.6824 75.9194 21.6837 75.9186C21.6851 75.9178 21.6864 75.9171 21.6877 75.9163C21.6891 75.9156 21.6904 75.9148 21.6917 75.914C21.6931 75.9133 21.6944 75.9125 21.6958 75.9117C21.6971 75.9109 21.6985 75.9102 21.6998 75.9094C21.7012 75.9086 21.7025 75.9079 21.7039 75.9071C21.7052 75.9063 21.7066 75.9055 21.708 75.9047C21.7093 75.904 21.7107 75.9032 21.7121 75.9024C21.7134 75.9016 21.7148 75.9008 21.7162 75.9C21.7176 75.8993 21.719 75.8985 21.7203 75.8977C21.7217 75.8969 21.7231 75.8961 21.7245 75.8953C21.7259 75.8945 21.7273 75.8937 21.7287 75.8929C21.7301 75.8921 21.7315 75.8913 21.7329 75.8905C21.7343 75.8897 21.7357 75.8889 21.7371 75.8881C21.7385 75.8873 21.7399 75.8865 21.7413 75.8857C21.7427 75.8849 21.7441 75.8841 21.7455 75.8833C21.747 75.8825 21.7484 75.8816 21.7498 75.8808C21.7512 75.88 21.7527 75.8792 21.7541 75.8784C21.7555 75.8776 21.757 75.8768 21.7584 75.8759C21.7598 75.8751 21.7613 75.8743 21.7627 75.8735C21.7642 75.8726 21.7656 75.8718 21.767 75.871C21.7685 75.8702 21.7699 75.8693 21.7714 75.8685C21.7729 75.8677 21.7743 75.8668 21.7758 75.866C21.7772 75.8652 21.7787 75.8643 21.7802 75.8635C21.7816 75.8627 21.7831 75.8618 21.7846 75.861C21.786 75.8601 21.7875 75.8593 21.789 75.8584C21.7905 75.8576 21.7919 75.8568 21.7934 75.8559C21.7949 75.8551 21.7964 75.8542 21.7979 75.8534C21.7994 75.8525 21.8009 75.8517 21.8024 75.8508C21.8039 75.85 21.8054 75.8491 21.8069 75.8482C21.8084 75.8474 21.8099 75.8465 21.8114 75.8457C21.8129 75.8448 21.8144 75.8439 21.8159 75.8431C21.8174 75.8422 21.8189 75.8413 21.8205 75.8405C21.822 75.8396 21.8235 75.8387 21.825 75.8379C21.8265 75.837 21.8281 75.8361 21.8296 75.8352C21.8311 75.8344 21.8327 75.8335 21.8342 75.8326C21.8357 75.8317 21.8373 75.8309 21.8388 75.83C21.8404 75.8291 21.8419 75.8282 21.8435 75.8273C21.845 75.8264 21.8466 75.8255 21.8481 75.8247C21.8497 75.8238 21.8512 75.8229 21.8528 75.822C21.8544 75.8211 21.8559 75.8202 21.8575 75.8193C21.859 75.8184 21.8606 75.8175 21.8622 75.8166C21.8638 75.8157 21.8653 75.8148 21.8669 75.8139C21.8685 75.813 21.8701 75.8121 21.8717 75.8112C21.8732 75.8103 21.8748 75.8094 21.8764 75.8085C21.878 75.8076 21.8796 75.8067 21.8812 75.8058C21.8828 75.8048 21.8844 75.8039 21.886 75.803C21.8876 75.8021 21.8892 75.8012 21.8908 75.8003C21.8924 75.7993 21.894 75.7984 21.8956 75.7975C21.8973 75.7966 21.8989 75.7957 21.9005 75.7947C21.9021 75.7938 21.9037 75.7929 21.9054 75.7919C21.907 75.791 21.9086 75.7901 21.9103 75.7892C21.9119 75.7882 21.9135 75.7873 21.9152 75.7864C21.9168 75.7854 21.9184 75.7845 21.9201 75.7835C21.9217 75.7826 21.9234 75.7817 21.925 75.7807C21.9267 75.7798 21.9283 75.7788 21.93 75.7779C21.9316 75.7769 21.9333 75.776 21.935 75.775C21.9366 75.7741 21.9383 75.7731 21.94 75.7722C21.9416 75.7712 21.9433 75.7703 21.945 75.7693C21.9466 75.7684 21.9483 75.7674 21.95 75.7664C21.9517 75.7655 21.9534 75.7645 21.955 75.7636C21.9567 75.7626 21.9584 75.7616 21.9601 75.7607C21.9618 75.7597 21.9635 75.7587 21.9652 75.7578C21.9669 75.7568 21.9686 75.7558 21.9703 75.7548C21.972 75.7539 21.9737 75.7529 21.9754 75.7519C21.9771 75.7509 21.9788 75.75 21.9805 75.749C21.9823 75.748 21.984 75.747 21.9857 75.746C21.9874 75.7451 21.9891 75.7441 21.9909 75.7431C21.9926 75.7421 21.9943 75.7411 21.9961 75.7401C21.9978 75.7391 21.9995 75.7381 22.0013 75.7371C22.003 75.7362 22.0047 75.7352 22.0065 75.7342C22.0082 75.7332 22.01 75.7322 22.0117 75.7312C22.0135 75.7302 22.0152 75.7292 22.017 75.7282C22.0187 75.7272 22.0205 75.7262 22.0223 75.7251C22.024 75.7241 22.0258 75.7231 22.0276 75.7221C22.0293 75.7211 22.0311 75.7201 22.0329 75.7191C22.0347 75.7181 22.0364 75.7171 22.0382 75.716C22.04 75.715 22.0418 75.714 22.0436 75.713C22.0453 75.712 22.0471 75.7109 22.0489 75.7099C22.0507 75.7089 22.0525 75.7079 22.0543 75.7068C22.0561 75.7058 22.0579 75.7048 22.0597 75.7037C22.0615 75.7027 22.0633 75.7017 22.0651 75.7006C22.0669 75.6996 22.0688 75.6986 22.0706 75.6975C22.0724 75.6965 22.0742 75.6955 22.076 75.6944C22.0779 75.6934 22.0797 75.6923 22.0815 75.6913C22.0833 75.6903 22.0852 75.6892 22.087 75.6882C22.0888 75.6871 22.0907 75.6861 22.0925 75.685C22.0943 75.684 22.0962 75.6829 22.098 75.6818C22.0999 75.6808 22.1017 75.6797 22.1036 75.6787C22.1054 75.6776 22.1073 75.6766 22.1091 75.6755C22.111 75.6744 22.1129 75.6734 22.1147 75.6723C22.1166 75.6712 22.1185 75.6702 22.1203 75.6691C22.1222 75.668 22.1241 75.667 22.1259 75.6659C22.1278 75.6648 22.1297 75.6638 22.1316 75.6627C22.1335 75.6616 22.1353 75.6605 22.1372 75.6595C22.1391 75.6584 22.141 75.6573 22.1429 75.6562C22.1448 75.6551 22.1467 75.654 22.1486 75.653C22.1505 75.6519 22.1524 75.6508 22.1543 75.6497C22.1562 75.6486 22.1581 75.6475 22.16 75.6464C22.1619 75.6453 22.1638 75.6442 22.1658 75.6432C22.1677 75.6421 22.1696 75.641 22.1715 75.6399C22.1734 75.6388 22.1754 75.6377 22.1773 75.6366C22.1792 75.6355 22.1812 75.6344 22.1831 75.6332C22.185 75.6321 22.187 75.631 22.1889 75.6299C22.1908 75.6288 22.1928 75.6277 22.1947 75.6266C22.1967 75.6255 22.1986 75.6244 22.2006 75.6233C22.2025 75.6221 22.2045 75.621 22.2064 75.6199C22.2084 75.6188 22.2104 75.6177 22.2123 75.6165C22.2143 75.6154 22.2163 75.6143 22.2182 75.6132C22.2202 75.612 22.2222 75.6109 22.2242 75.6098C22.2261 75.6087 22.2281 75.6075 22.2301 75.6064C22.2321 75.6053 22.2341 75.6041 22.236 75.603C22.238 75.6019 22.24 75.6007 22.242 75.5996C22.244 75.5984 22.246 75.5973 22.248 75.5962C22.25 75.595 22.252 75.5939 22.254 75.5927C22.256 75.5916 22.258 75.5904 22.26 75.5893C22.2621 75.5881 22.2641 75.587 22.2661 75.5858C22.2681 75.5847 22.2701 75.5835 22.2721 75.5824C22.2742 75.5812 22.2762 75.58 22.2782 75.5789C22.2803 75.5777 22.2823 75.5766 22.2843 75.5754C22.2864 75.5742 22.2884 75.5731 22.2904 75.5719C22.2925 75.5707 22.2945 75.5696 22.2966 75.5684C22.2986 75.5672 22.3007 75.5661 22.3027 75.5649C22.3048 75.5637 22.3068 75.5625 22.3089 75.5614C22.3109 75.5602 22.313 75.559 22.3151 75.5578C22.3171 75.5566 22.3192 75.5555 22.3213 75.5543C22.3234 75.5531 22.3254 75.5519 22.3275 75.5507C22.3296 75.5495 22.3317 75.5483 22.3337 75.5472C22.3358 75.546 22.3379 75.5448 22.34 75.5436C22.3421 75.5424 22.3442 75.5412 22.3463 75.54C22.3484 75.5388 22.3505 75.5376 22.3526 75.5364C22.3547 75.5352 22.3568 75.534 22.3589 75.5328C22.361 75.5316 22.3631 75.5304 22.3652 75.5292C22.3673 75.528 22.3694 75.5268 22.3716 75.5256C22.3737 75.5243 22.3758 75.5231 22.3779 75.5219C22.38 75.5207 22.3822 75.5195 22.3843 75.5183C22.3864 75.5171 22.3886 75.5158 22.3907 75.5146C22.3928 75.5134 22.395 75.5122 22.3971 75.5109C22.3993 75.5097 22.4014 75.5085 22.4036 75.5073C22.4057 75.506 22.4079 75.5048 22.41 75.5036C22.4122 75.5023 22.4143 75.5011 22.4165 75.4999C22.4186 75.4986 22.4208 75.4974 22.423 75.4962C22.4251 75.4949 22.4273 75.4937 22.4295 75.4925C22.4316 75.4912 22.4338 75.49 22.436 75.4887C22.4382 75.4875 22.4404 75.4862 22.4425 75.485C22.4447 75.4837 22.4469 75.4825 22.4491 75.4812C22.4513 75.48 22.4535 75.4787 22.4557 75.4775C22.4579 75.4762 22.4601 75.475 22.4623 75.4737C22.4645 75.4725 22.4667 75.4712 22.4689 75.4699C22.4711 75.4687 22.4733 75.4674 22.4755 75.4661C22.4777 75.4649 22.48 75.4636 22.4822 75.4623C22.4844 75.4611 22.4866 75.4598 22.4888 75.4585C22.4911 75.4573 22.4933 75.456 22.4955 75.4547C22.4978 75.4534 22.5 75.4522 22.5022 75.4509C22.5045 75.4496 22.5067 75.4483 22.5089 75.447C22.5112 75.4458 22.5134 75.4445 22.5157 75.4432C22.5179 75.4419 22.5202 75.4406 22.5224 75.4393C22.5247 75.438 22.527 75.4368 22.5292 75.4355C22.5315 75.4342 22.5337 75.4329 22.536 75.4316C22.5383 75.4303 22.5405 75.429 22.5428 75.4277C22.5451 75.4264 22.5474 75.4251 22.5496 75.4238C22.5519 75.4225 22.5542 75.4212 22.5565 75.4199C22.5588 75.4186 22.5611 75.4173 22.5634 75.416C22.5656 75.4146 22.5679 75.4133 22.5702 75.412C22.5725 75.4107 22.5748 75.4094 22.5771 75.4081C22.5794 75.4068 22.5817 75.4054 22.584 75.4041C22.5864 75.4028 22.5887 75.4015 22.591 75.4002C22.5933 75.3988 22.5956 75.3975 22.5979 75.3962C22.6003 75.3949 22.6026 75.3935 22.6049 75.3922C22.6072 75.3909 22.6096 75.3896 22.6119 75.3882C22.6142 75.3869 22.6166 75.3856 22.6189 75.3842C22.6212 75.3829 22.6236 75.3815 22.6259 75.3802C22.6283 75.3789 22.6306 75.3775 22.633 75.3762C22.6353 75.3748 22.6377 75.3735 22.64 75.3721C22.6424 75.3708 22.6447 75.3695 22.6471 75.3681C22.6495 75.3668 22.6518 75.3654 22.6542 75.364C22.6566 75.3627 22.6589 75.3613 22.6613 75.36C22.6637 75.3586 22.6661 75.3573 22.6684 75.3559C22.6708 75.3545 22.6732 75.3532 22.6756 75.3518C22.678 75.3505 22.6804 75.3491 22.6827 75.3477C22.6851 75.3464 22.6875 75.345 22.6899 75.3436C22.6923 75.3423 22.6947 75.3409 22.6971 75.3395C22.6995 75.3381 22.7019 75.3368 22.7043 75.3354C22.7068 75.334 22.7092 75.3326 22.7116 75.3313C22.714 75.3299 22.7164 75.3285 22.7188 75.3271C22.7213 75.3257 22.7237 75.3243 22.7261 75.323C22.7285 75.3216 22.731 75.3202 22.7334 75.3188C22.7358 75.3174 22.7383 75.316 22.7407 75.3146C22.7431 75.3132 22.7456 75.3118 22.748 75.3104C22.7505 75.309 22.7529 75.3076 22.7554 75.3062C22.7578 75.3048 22.7603 75.3034 22.7627 75.302C22.7652 75.3006 22.7677 75.2992 22.7701 75.2978C22.7726 75.2964 22.775 75.295 22.7775 75.2936C22.78 75.2922 22.7825 75.2908 22.7849 75.2893C22.7874 75.2879 22.7899 75.2865 22.7924 75.2851C22.7948 75.2837 22.7973 75.2823 22.7998 75.2808C22.8023 75.2794 22.8048 75.278 22.8073 75.2766C22.8098 75.2751 22.8123 75.2737 22.8148 75.2723C22.8173 75.2709 22.8198 75.2694 22.8223 75.268C22.8248 75.2666 22.8273 75.2651 22.8298 75.2637C22.8323 75.2623 22.8348 75.2608 22.8373 75.2594C22.8398 75.258 22.8424 75.2565 22.8449 75.2551C22.8474 75.2536 22.8499 75.2522 22.8525 75.2507C22.855 75.2493 22.8575 75.2479 22.8601 75.2464C22.8626 75.245 22.8651 75.2435 22.8677 75.2421C22.8702 75.2406 22.8728 75.2392 22.8753 75.2377C22.8778 75.2362 22.8804 75.2348 22.8829 75.2333C22.8855 75.2319 22.888 75.2304 22.8906 75.229C22.8932 75.2275 22.8957 75.226 22.8983 75.2246C22.9009 75.2231 22.9034 75.2216 22.906 75.2202C22.9086 75.2187 22.9111 75.2172 22.9137 75.2158C22.9163 75.2143 22.9189 75.2128 22.9214 75.2113C22.924 75.2099 22.9266 75.2084 22.9292 75.2069C22.9318 75.2054 22.9344 75.2039 22.937 75.2025C22.9396 75.201 22.9422 75.1995 22.9448 75.198C22.9474 75.1965 22.95 75.195 22.9526 75.1936C22.9552 75.1921 22.9578 75.1906 22.9604 75.1891C22.963 75.1876 22.9656 75.1861 22.9682 75.1846C22.9708 75.1831 22.9735 75.1816 22.9761 75.1801C22.9787 75.1786 22.9813 75.1771 22.984 75.1756C22.9866 75.1741 22.9892 75.1726 22.9919 75.1711C22.9945 75.1696 22.9971 75.1681 22.9998 75.1666C23.0024 75.1651 23.0051 75.1636 23.0077 75.162C23.0103 75.1605 23.013 75.159 23.0157 75.1575C23.0183 75.156 23.021 75.1545 23.0236 75.1529C23.0263 75.1514 23.0289 75.1499 23.0316 75.1484C23.0343 75.1469 23.0369 75.1453 23.0396 75.1438C23.0423 75.1423 23.0449 75.1408 23.0476 75.1392C23.0503 75.1377 23.053 75.1362 23.0557 75.1346C23.0583 75.1331 23.061 75.1316 23.0637 75.13C23.0664 75.1285 23.0691 75.127 23.0718 75.1254C23.0745 75.1239 23.0772 75.1223 23.0799 75.1208C23.0826 75.1193 23.0853 75.1177 23.088 75.1162C23.0907 75.1146 23.0934 75.1131 23.0961 75.1115C23.0988 75.11 23.1015 75.1084 23.1043 75.1069C23.107 75.1053 23.1097 75.1038 23.1124 75.1022C23.1151 75.1006 23.1179 75.0991 23.1206 75.0975C23.1233 75.096 23.1261 75.0944 23.1288 75.0928C23.1315 75.0913 23.1343 75.0897 23.137 75.0881C23.1398 75.0866 23.1425 75.085 23.1453 75.0834C23.148 75.0819 23.1508 75.0803 23.1535 75.0787C23.1563 75.0772 23.159 75.0756 23.1618 75.074C23.1645 75.0724 23.1673 75.0708 23.1701 75.0693C23.1728 75.0677 23.1756 75.0661 23.1784 75.0645C23.1811 75.0629 23.1839 75.0613 23.1867 75.0598C23.1895 75.0582 23.1922 75.0566 23.195 75.055C23.1978 75.0534 23.2006 75.0518 23.2034 75.0502C23.2062 75.0486 23.209 75.047 23.2118 75.0454C23.2146 75.0438 23.2174 75.0422 23.2202 75.0406C23.223 75.039 23.2258 75.0374 23.2286 75.0358C23.2314 75.0342 23.2342 75.0326 23.237 75.031C23.2398 75.0294 23.2426 75.0278 23.2454 75.0262C23.2483 75.0246 23.2511 75.023 23.2539 75.0213C23.2567 75.0197 23.2596 75.0181 23.2624 75.0165C23.2652 75.0149 23.2681 75.0133 23.2709 75.0116C23.2737 75.01 23.2766 75.0084 23.2794 75.0068C23.2823 75.0052 23.2851 75.0035 23.288 75.0019C23.2908 75.0003 23.2936 74.9986 23.2965 74.997C23.2994 74.9954 23.3022 74.9937 23.3051 74.9921C23.3079 74.9905 23.3108 74.9888 23.3137 74.9872C23.3165 74.9856 23.3194 74.9839 23.3223 74.9823C23.3251 74.9806 23.328 74.979 23.3309 74.9774C23.3338 74.9757 23.3367 74.9741 23.3395 74.9724C23.3424 74.9708 23.3453 74.9691 23.3482 74.9675C23.3511 74.9658 23.354 74.9642 23.3569 74.9625C23.3598 74.9609 23.3627 74.9592 23.3656 74.9575C23.3685 74.9559 23.3714 74.9542 23.3743 74.9526C23.3772 74.9509 23.3801 74.9492 23.383 74.9476C23.3859 74.9459 23.3889 74.9442 23.3918 74.9426C23.3947 74.9409 23.3976 74.9392 23.4005 74.9376C23.4035 74.9359 23.4064 74.9342 23.4093 74.9325C23.4123 74.9309 23.4152 74.9292 23.4181 74.9275C23.4211 74.9258 23.424 74.9242 23.427 74.9225C23.4299 74.9208 23.4328 74.9191 23.4358 74.9174C23.4387 74.9157 23.4417 74.914 23.4446 74.9124C23.4476 74.9107 23.4506 74.909 23.4535 74.9073C23.4565 74.9056 23.4594 74.9039 23.4624 74.9022C23.4654 74.9005 23.4684 74.8988 23.4713 74.8971C23.4743 74.8954 23.4773 74.8937 23.4803 74.892C23.4832 74.8903 23.4862 74.8886 23.4892 74.8869C23.4922 74.8852 23.4952 74.8835 23.4982 74.8818C23.5012 74.8801 23.5041 74.8784 23.5071 74.8766C23.5101 74.8749 23.5131 74.8732 23.5161 74.8715C23.5191 74.8698 23.5222 74.8681 23.5252 74.8664C23.5282 74.8646 23.5312 74.8629 23.5342 74.8612C23.5372 74.8595 23.5402 74.8577 23.5432 74.856C23.5463 74.8543 23.5493 74.8526 23.5523 74.8508C23.5553 74.8491 23.5584 74.8474 23.5614 74.8456C23.5644 74.8439 23.5675 74.8422 23.5705 74.8404L20.9769 70.3015C20.9738 70.3033 20.9708 70.305 20.9678 70.3067C20.9647 70.3085 20.9617 70.3102 20.9587 70.3119C20.9556 70.3137 20.9526 70.3154 20.9496 70.3171C20.9466 70.3188 20.9436 70.3206 20.9405 70.3223C20.9375 70.324 20.9345 70.3257 20.9315 70.3275C20.9285 70.3292 20.9255 70.3309 20.9225 70.3326C20.9195 70.3343 20.9165 70.336 20.9135 70.3378C20.9105 70.3395 20.9075 70.3412 20.9045 70.3429C20.9015 70.3446 20.8985 70.3463 20.8955 70.348C20.8926 70.3497 20.8896 70.3514 20.8866 70.3531C20.8836 70.3548 20.8806 70.3565 20.8777 70.3582C20.8747 70.3599 20.8717 70.3616 20.8688 70.3633C20.8658 70.365 20.8628 70.3667 20.8599 70.3684C20.8569 70.3701 20.8539 70.3718 20.851 70.3735C20.848 70.3752 20.8451 70.3768 20.8421 70.3785C20.8392 70.3802 20.8362 70.3819 20.8333 70.3836C20.8304 70.3853 20.8274 70.3869 20.8245 70.3886C20.8215 70.3903 20.8186 70.392 20.8157 70.3936C20.8127 70.3953 20.8098 70.397 20.8069 70.3987C20.804 70.4003 20.801 70.402 20.7981 70.4037C20.7952 70.4053 20.7923 70.407 20.7894 70.4087C20.7865 70.4103 20.7835 70.412 20.7806 70.4137C20.7777 70.4153 20.7748 70.417 20.7719 70.4186C20.769 70.4203 20.7661 70.422 20.7632 70.4236C20.7603 70.4253 20.7574 70.4269 20.7545 70.4286C20.7517 70.4302 20.7488 70.4319 20.7459 70.4335C20.743 70.4352 20.7401 70.4368 20.7372 70.4385C20.7344 70.4401 20.7315 70.4417 20.7286 70.4434C20.7257 70.445 20.7229 70.4467 20.72 70.4483C20.7171 70.4499 20.7143 70.4516 20.7114 70.4532C20.7086 70.4549 20.7057 70.4565 20.7029 70.4581C20.7 70.4597 20.6971 70.4614 20.6943 70.463C20.6914 70.4646 20.6886 70.4663 20.6858 70.4679C20.6829 70.4695 20.6801 70.4711 20.6772 70.4727C20.6744 70.4744 20.6716 70.476 20.6687 70.4776C20.6659 70.4792 20.6631 70.4808 20.6603 70.4825C20.6574 70.4841 20.6546 70.4857 20.6518 70.4873C20.649 70.4889 20.6462 70.4905 20.6433 70.4921C20.6405 70.4937 20.6377 70.4953 20.6349 70.4969C20.6321 70.4985 20.6293 70.5001 20.6265 70.5017C20.6237 70.5033 20.6209 70.5049 20.6181 70.5065C20.6153 70.5081 20.6125 70.5097 20.6097 70.5113C20.6069 70.5129 20.6042 70.5145 20.6014 70.5161C20.5986 70.5177 20.5958 70.5193 20.593 70.5209C20.5903 70.5225 20.5875 70.524 20.5847 70.5256C20.5819 70.5272 20.5792 70.5288 20.5764 70.5304C20.5736 70.5319 20.5709 70.5335 20.5681 70.5351C20.5654 70.5367 20.5626 70.5383 20.5599 70.5398C20.5571 70.5414 20.5543 70.543 20.5516 70.5445C20.5489 70.5461 20.5461 70.5477 20.5434 70.5492C20.5406 70.5508 20.5379 70.5524 20.5352 70.5539C20.5324 70.5555 20.5297 70.5571 20.527 70.5586C20.5242 70.5602 20.5215 70.5617 20.5188 70.5633C20.516 70.5649 20.5133 70.5664 20.5106 70.568C20.5079 70.5695 20.5052 70.5711 20.5025 70.5726C20.4998 70.5742 20.497 70.5757 20.4943 70.5773C20.4916 70.5788 20.4889 70.5804 20.4862 70.5819C20.4835 70.5834 20.4808 70.585 20.4781 70.5865C20.4754 70.5881 20.4728 70.5896 20.4701 70.5911C20.4674 70.5927 20.4647 70.5942 20.462 70.5957C20.4593 70.5973 20.4566 70.5988 20.454 70.6003C20.4513 70.6019 20.4486 70.6034 20.446 70.6049C20.4433 70.6064 20.4406 70.608 20.4379 70.6095C20.4353 70.611 20.4326 70.6125 20.43 70.6141C20.4273 70.6156 20.4247 70.6171 20.422 70.6186C20.4193 70.6201 20.4167 70.6216 20.414 70.6231C20.4114 70.6247 20.4088 70.6262 20.4061 70.6277C20.4035 70.6292 20.4008 70.6307 20.3982 70.6322C20.3956 70.6337 20.3929 70.6352 20.3903 70.6367C20.3877 70.6382 20.3851 70.6397 20.3824 70.6412C20.3798 70.6427 20.3772 70.6442 20.3746 70.6457C20.372 70.6472 20.3693 70.6487 20.3667 70.6502C20.3641 70.6517 20.3615 70.6532 20.3589 70.6547C20.3563 70.6561 20.3537 70.6576 20.3511 70.6591C20.3485 70.6606 20.3459 70.6621 20.3433 70.6636C20.3407 70.6651 20.3381 70.6665 20.3355 70.668C20.333 70.6695 20.3304 70.671 20.3278 70.6724C20.3252 70.6739 20.3226 70.6754 20.3201 70.6769C20.3175 70.6783 20.3149 70.6798 20.3123 70.6813C20.3098 70.6827 20.3072 70.6842 20.3046 70.6857C20.3021 70.6871 20.2995 70.6886 20.297 70.6901C20.2944 70.6915 20.2918 70.693 20.2893 70.6944C20.2867 70.6959 20.2842 70.6974 20.2816 70.6988C20.2791 70.7003 20.2766 70.7017 20.274 70.7032C20.2715 70.7046 20.2689 70.7061 20.2664 70.7075C20.2639 70.709 20.2613 70.7104 20.2588 70.7119C20.2563 70.7133 20.2538 70.7147 20.2512 70.7162C20.2487 70.7176 20.2462 70.7191 20.2437 70.7205C20.2412 70.7219 20.2386 70.7234 20.2361 70.7248C20.2336 70.7262 20.2311 70.7277 20.2286 70.7291C20.2261 70.7305 20.2236 70.732 20.2211 70.7334C20.2186 70.7348 20.2161 70.7362 20.2136 70.7377C20.2111 70.7391 20.2086 70.7405 20.2062 70.7419C20.2037 70.7434 20.2012 70.7448 20.1987 70.7462C20.1962 70.7476 20.1938 70.749 20.1913 70.7504C20.1888 70.7519 20.1863 70.7533 20.1839 70.7547C20.1814 70.7561 20.1789 70.7575 20.1765 70.7589C20.174 70.7603 20.1715 70.7617 20.1691 70.7631C20.1666 70.7645 20.1642 70.7659 20.1617 70.7673C20.1593 70.7687 20.1568 70.7701 20.1544 70.7715C20.1519 70.7729 20.1495 70.7743 20.1471 70.7757C20.1446 70.7771 20.1422 70.7785 20.1397 70.7799C20.1373 70.7813 20.1349 70.7827 20.1325 70.7841C20.13 70.7854 20.1276 70.7868 20.1252 70.7882C20.1228 70.7896 20.1203 70.791 20.1179 70.7924C20.1155 70.7937 20.1131 70.7951 20.1107 70.7965C20.1083 70.7979 20.1059 70.7992 20.1035 70.8006C20.1011 70.802 20.0987 70.8034 20.0963 70.8047C20.0939 70.8061 20.0915 70.8075 20.0891 70.8088C20.0867 70.8102 20.0843 70.8116 20.0819 70.8129C20.0795 70.8143 20.0772 70.8157 20.0748 70.817C20.0724 70.8184 20.07 70.8197 20.0676 70.8211C20.0653 70.8224 20.0629 70.8238 20.0605 70.8252C20.0582 70.8265 20.0558 70.8279 20.0534 70.8292C20.0511 70.8306 20.0487 70.8319 20.0464 70.8333C20.044 70.8346 20.0417 70.8359 20.0393 70.8373C20.037 70.8386 20.0346 70.84 20.0323 70.8413C20.0299 70.8426 20.0276 70.844 20.0252 70.8453C20.0229 70.8467 20.0206 70.848 20.0182 70.8493C20.0159 70.8507 20.0136 70.852 20.0112 70.8533C20.0089 70.8546 20.0066 70.856 20.0043 70.8573C20.002 70.8586 19.9996 70.86 19.9973 70.8613C19.995 70.8626 19.9927 70.8639 19.9904 70.8652C19.9881 70.8666 19.9858 70.8679 19.9835 70.8692C19.9812 70.8705 19.9789 70.8718 19.9766 70.8731C19.9743 70.8744 19.972 70.8758 19.9697 70.8771C19.9674 70.8784 19.9651 70.8797 19.9628 70.881C19.9605 70.8823 19.9583 70.8836 19.956 70.8849C19.9537 70.8862 19.9514 70.8875 19.9492 70.8888C19.9469 70.8901 19.9446 70.8914 19.9424 70.8927C19.9401 70.894 19.9378 70.8953 19.9356 70.8966C19.9333 70.8979 19.931 70.8991 19.9288 70.9004C19.9265 70.9017 19.9243 70.903 19.922 70.9043C19.9198 70.9056 19.9175 70.9069 19.9153 70.9081C19.913 70.9094 19.9108 70.9107 19.9086 70.912C19.9063 70.9133 19.9041 70.9145 19.9019 70.9158C19.8996 70.9171 19.8974 70.9184 19.8952 70.9196C19.893 70.9209 19.8907 70.9222 19.8885 70.9234C19.8863 70.9247 19.8841 70.926 19.8819 70.9272C19.8797 70.9285 19.8774 70.9298 19.8752 70.931C19.873 70.9323 19.8708 70.9336 19.8686 70.9348C19.8664 70.9361 19.8642 70.9373 19.862 70.9386C19.8598 70.9398 19.8576 70.9411 19.8554 70.9423C19.8533 70.9436 19.8511 70.9448 19.8489 70.9461C19.8467 70.9473 19.8445 70.9486 19.8423 70.9498C19.8402 70.9511 19.838 70.9523 19.8358 70.9536C19.8337 70.9548 19.8315 70.956 19.8293 70.9573C19.8271 70.9585 19.825 70.9598 19.8228 70.961C19.8207 70.9622 19.8185 70.9635 19.8164 70.9647C19.8142 70.9659 19.812 70.9671 19.8099 70.9684C19.8078 70.9696 19.8056 70.9708 19.8035 70.972C19.8013 70.9733 19.7992 70.9745 19.797 70.9757C19.7949 70.9769 19.7928 70.9782 19.7906 70.9794C19.7885 70.9806 19.7864 70.9818 19.7843 70.983C19.7821 70.9842 19.78 70.9854 19.7779 70.9867C19.7758 70.9879 19.7737 70.9891 19.7716 70.9903C19.7694 70.9915 19.7673 70.9927 19.7652 70.9939C19.7631 70.9951 19.761 70.9963 19.7589 70.9975C19.7568 70.9987 19.7547 70.9999 19.7526 71.0011C19.7505 71.0023 19.7484 71.0035 19.7463 71.0047C19.7443 71.0059 19.7422 71.0071 19.7401 71.0083C19.738 71.0095 19.7359 71.0106 19.7338 71.0118C19.7318 71.013 19.7297 71.0142 19.7276 71.0154C19.7256 71.0166 19.7235 71.0178 19.7214 71.0189C19.7194 71.0201 19.7173 71.0213 19.7152 71.0225C19.7132 71.0236 19.7111 71.0248 19.7091 71.026C19.707 71.0272 19.705 71.0283 19.7029 71.0295C19.7009 71.0307 19.6988 71.0318 19.6968 71.033C19.6947 71.0342 19.6927 71.0353 19.6907 71.0365C19.6886 71.0377 19.6866 71.0388 19.6846 71.04C19.6825 71.0411 19.6805 71.0423 19.6785 71.0435C19.6765 71.0446 19.6744 71.0458 19.6724 71.0469C19.6704 71.0481 19.6684 71.0492 19.6664 71.0504C19.6644 71.0515 19.6624 71.0527 19.6604 71.0538C19.6584 71.055 19.6564 71.0561 19.6544 71.0573C19.6524 71.0584 19.6504 71.0595 19.6484 71.0607C19.6464 71.0618 19.6444 71.063 19.6424 71.0641C19.6404 71.0652 19.6384 71.0664 19.6364 71.0675C19.6345 71.0686 19.6325 71.0698 19.6305 71.0709C19.6285 71.072 19.6265 71.0731 19.6246 71.0743C19.6226 71.0754 19.6206 71.0765 19.6187 71.0776C19.6167 71.0788 19.6148 71.0799 19.6128 71.081C19.6108 71.0821 19.6089 71.0832 19.6069 71.0844C19.605 71.0855 19.603 71.0866 19.6011 71.0877C19.5991 71.0888 19.5972 71.0899 19.5952 71.091C19.5933 71.0921 19.5914 71.0932 19.5894 71.0944C19.5875 71.0955 19.5856 71.0966 19.5836 71.0977C19.5817 71.0988 19.5798 71.0999 19.5779 71.101C19.5759 71.1021 19.574 71.1032 19.5721 71.1043C19.5702 71.1054 19.5683 71.1064 19.5664 71.1075C19.5645 71.1086 19.5625 71.1097 19.5606 71.1108C19.5587 71.1119 19.5568 71.113 19.5549 71.1141C19.553 71.1152 19.5511 71.1162 19.5492 71.1173C19.5474 71.1184 19.5455 71.1195 19.5436 71.1206C19.5417 71.1216 19.5398 71.1227 19.5379 71.1238C19.536 71.1249 19.5342 71.1259 19.5323 71.127C19.5304 71.1281 19.5285 71.1292 19.5267 71.1302C19.5248 71.1313 19.5229 71.1324 19.5211 71.1334C19.5192 71.1345 19.5174 71.1355 19.5155 71.1366C19.5136 71.1377 19.5118 71.1387 19.5099 71.1398C19.5081 71.1408 19.5062 71.1419 19.5044 71.143C19.5025 71.144 19.5007 71.1451 19.4989 71.1461C19.497 71.1472 19.4952 71.1482 19.4933 71.1493C19.4915 71.1503 19.4897 71.1514 19.4879 71.1524C19.486 71.1534 19.4842 71.1545 19.4824 71.1555C19.4806 71.1566 19.4787 71.1576 19.4769 71.1586C19.4751 71.1597 19.4733 71.1607 19.4715 71.1618C19.4697 71.1628 19.4679 71.1638 19.4661 71.1649C19.4643 71.1659 19.4625 71.1669 19.4607 71.1679C19.4589 71.169 19.4571 71.17 19.4553 71.171C19.4535 71.172 19.4517 71.1731 19.4499 71.1741C19.4481 71.1751 19.4463 71.1761 19.4446 71.1771C19.4428 71.1782 19.441 71.1792 19.4392 71.1802C19.4375 71.1812 19.4357 71.1822 19.4339 71.1832C19.4321 71.1842 19.4304 71.1852 19.4286 71.1863C19.4269 71.1873 19.4251 71.1883 19.4233 71.1893C19.4216 71.1903 19.4198 71.1913 19.4181 71.1923C19.4163 71.1933 19.4146 71.1943 19.4128 71.1953C19.4111 71.1963 19.4093 71.1973 19.4076 71.1983C19.4059 71.1992 19.4041 71.2002 19.4024 71.2012C19.4007 71.2022 19.3989 71.2032 19.3972 71.2042C19.3955 71.2052 19.3938 71.2062 19.392 71.2071C19.3903 71.2081 19.3886 71.2091 19.3869 71.2101C19.3852 71.2111 19.3835 71.2121 19.3818 71.213C19.38 71.214 19.3783 71.215 19.3766 71.216C19.3749 71.2169 19.3732 71.2179 19.3715 71.2189C19.3698 71.2198 19.3681 71.2208 19.3664 71.2218C19.3648 71.2227 19.3631 71.2237 19.3614 71.2247C19.3597 71.2256 19.358 71.2266 19.3563 71.2276C19.3547 71.2285 19.353 71.2295 19.3513 71.2304C19.3496 71.2314 19.348 71.2323 19.3463 71.2333C19.3446 71.2342 19.343 71.2352 19.3413 71.2361C19.3396 71.2371 19.338 71.238 19.3363 71.239C19.3347 71.2399 19.333 71.2409 19.3314 71.2418C19.3297 71.2428 19.3281 71.2437 19.3264 71.2446C19.3248 71.2456 19.3231 71.2465 19.3215 71.2475C19.3199 71.2484 19.3182 71.2493 19.3166 71.2503C19.315 71.2512 19.3133 71.2521 19.3117 71.253C19.3101 71.254 19.3085 71.2549 19.3068 71.2558C19.3052 71.2568 19.3036 71.2577 19.302 71.2586C19.3004 71.2595 19.2988 71.2604 19.2972 71.2614C19.2956 71.2623 19.2939 71.2632 19.2923 71.2641C19.2907 71.265 19.2891 71.2659 19.2875 71.2669C19.286 71.2678 19.2844 71.2687 19.2828 71.2696C19.2812 71.2705 19.2796 71.2714 19.278 71.2723C19.2764 71.2732 19.2748 71.2741 19.2733 71.275C19.2717 71.2759 19.2701 71.2768 19.2685 71.2777C19.267 71.2786 19.2654 71.2795 19.2638 71.2804C19.2623 71.2813 19.2607 71.2822 19.2591 71.2831C19.2576 71.284 19.256 71.2849 19.2545 71.2858C19.2529 71.2867 19.2514 71.2875 19.2498 71.2884C19.2483 71.2893 19.2467 71.2902 19.2452 71.2911C19.2436 71.292 19.2421 71.2928 19.2406 71.2937C19.239 71.2946 19.2375 71.2955 19.2359 71.2963C19.2344 71.2972 19.2329 71.2981 19.2314 71.299C19.2298 71.2998 19.2283 71.3007 19.2268 71.3016C19.2253 71.3024 19.2238 71.3033 19.2222 71.3042C19.2207 71.305 19.2192 71.3059 19.2177 71.3068C19.2162 71.3076 19.2147 71.3085 19.2132 71.3093C19.2117 71.3102 19.2102 71.3111 19.2087 71.3119C19.2072 71.3128 19.2057 71.3136 19.2042 71.3145C19.2027 71.3153 19.2013 71.3162 19.1998 71.317C19.1983 71.3179 19.1968 71.3187 19.1953 71.3196C19.1939 71.3204 19.1924 71.3212 19.1909 71.3221C19.1894 71.3229 19.188 71.3238 19.1865 71.3246C19.185 71.3254 19.1836 71.3263 19.1821 71.3271C19.1807 71.3279 19.1792 71.3288 19.1777 71.3296C19.1763 71.3304 19.1748 71.3313 19.1734 71.3321C19.1719 71.3329 19.1705 71.3337 19.1691 71.3346C19.1676 71.3354 19.1662 71.3362 19.1647 71.337C19.1633 71.3379 19.1619 71.3387 19.1604 71.3395C19.159 71.3403 19.1576 71.3411 19.1562 71.3419C19.1547 71.3428 19.1533 71.3436 19.1519 71.3444C19.1505 71.3452 19.1491 71.346 19.1476 71.3468C19.1462 71.3476 19.1448 71.3484 19.1434 71.3492C19.142 71.35 19.1406 71.3508 19.1392 71.3516C19.1378 71.3524 19.1364 71.3532 19.135 71.354C19.1336 71.3548 19.1322 71.3556 19.1308 71.3564C19.1295 71.3572 19.1281 71.358 19.1267 71.3588C19.1253 71.3596 19.1239 71.3604 19.1225 71.3611C19.1212 71.3619 19.1198 71.3627 19.1184 71.3635C19.1171 71.3643 19.1157 71.3651 19.1143 71.3658C19.113 71.3666 19.1116 71.3674 19.1102 71.3682C19.1089 71.369 19.1075 71.3697 19.1062 71.3705C19.1048 71.3713 19.1035 71.3721 19.1021 71.3728C19.1008 71.3736 19.0994 71.3744 19.0981 71.3751C19.0967 71.3759 19.0954 71.3767 19.0941 71.3774C19.0927 71.3782 19.0914 71.3789 19.0901 71.3797C19.0887 71.3805 19.0874 71.3812 19.0861 71.382C19.0848 71.3827 19.0835 71.3835 19.0821 71.3842C19.0808 71.385 19.0795 71.3857 19.0782 71.3865C19.0769 71.3872 19.0756 71.388 19.0743 71.3887C19.073 71.3895 19.0717 71.3902 19.0704 71.391C19.0691 71.3917 19.0678 71.3925 19.0665 71.3932C19.0652 71.3939 19.0639 71.3947 19.0626 71.3954C19.0613 71.3961 19.06 71.3969 19.0587 71.3976C19.0575 71.3983 19.0562 71.3991 19.0549 71.3998C19.0536 71.4005 19.0524 71.4013 19.0511 71.402C19.0498 71.4027 19.0485 71.4034 19.0473 71.4042C19.046 71.4049 19.0448 71.4056 19.0435 71.4063C19.0422 71.407 19.041 71.4078 19.0397 71.4085C19.0385 71.4092 19.0372 71.4099 19.036 71.4106C19.0347 71.4113 19.0335 71.412 19.0323 71.4127C19.031 71.4134 19.0298 71.4142 19.0285 71.4149C19.0273 71.4156 19.0261 71.4163 19.0249 71.417C19.0236 71.4177 19.0224 71.4184 19.0212 71.4191C19.02 71.4198 19.0187 71.4205 19.0175 71.4212C19.0163 71.4219 19.0151 71.4226 19.0139 71.4232C19.0127 71.4239 19.0115 71.4246 19.0103 71.4253C19.0091 71.426 19.0079 71.4267 19.0067 71.4274C19.0055 71.4281 19.0043 71.4287 19.0031 71.4294C19.0019 71.4301 19.0007 71.4308 18.9995 71.4315C18.9983 71.4321 18.9971 71.4328 18.9959 71.4335C18.9948 71.4342 18.9936 71.4348 18.9924 71.4355C18.9912 71.4362 18.9901 71.4369 18.9889 71.4375C18.9877 71.4382 18.9866 71.4389 18.9854 71.4395C18.9842 71.4402 18.9831 71.4408 18.9819 71.4415C18.9808 71.4422 18.9796 71.4428 18.9785 71.4435C18.9773 71.4441 18.9762 71.4448 18.975 71.4455C18.9739 71.4461 18.9727 71.4468 18.9716 71.4474C18.9704 71.4481 18.9693 71.4487 18.9682 71.4494C18.967 71.45 18.9659 71.4507 18.9648 71.4513C18.9637 71.4519 18.9625 71.4526 18.9614 71.4532C18.9603 71.4539 18.9592 71.4545 18.9581 71.4551C18.9569 71.4558 18.9558 71.4564 18.9547 71.4571C18.9536 71.4577 18.9525 71.4583 18.9514 71.459C18.9503 71.4596 18.9492 71.4602 18.9481 71.4608C18.947 71.4615 18.9459 71.4621 18.9448 71.4627C18.9437 71.4633 18.9426 71.464 18.9415 71.4646C18.9405 71.4652 18.9394 71.4658 18.9383 71.4664C18.9372 71.4671 18.9361 71.4677 18.9351 71.4683C18.934 71.4689 18.9329 71.4695 18.9318 71.4701C18.9308 71.4707 18.9297 71.4713 18.9286 71.4719C18.9276 71.4726 18.9265 71.4732 18.9255 71.4738C18.9244 71.4744 18.9234 71.475 18.9223 71.4756C18.9213 71.4762 18.9202 71.4768 18.9192 71.4774C18.9181 71.478 18.9171 71.4786 18.916 71.4791C18.915 71.4797 18.914 71.4803 18.9129 71.4809C18.9119 71.4815 18.9109 71.4821 18.9099 71.4827C18.9088 71.4833 18.9078 71.4839 18.9068 71.4844C18.9058 71.485 18.9047 71.4856 18.9037 71.4862C18.9027 71.4868 18.9017 71.4873 18.9007 71.4879C18.8997 71.4885 18.8987 71.4891 18.8977 71.4896C18.8967 71.4902 18.8957 71.4908 18.8947 71.4914C18.8937 71.4919 18.8927 71.4925 18.8917 71.4931C18.8907 71.4936 18.8897 71.4942 18.8887 71.4948C18.8877 71.4953 18.8868 71.4959 18.8858 71.4964C18.8848 71.497 18.8838 71.4976 18.8829 71.4981C18.8819 71.4987 18.8809 71.4992 18.8799 71.4998C18.879 71.5003 18.878 71.5009 18.877 71.5014C18.8761 71.502 18.8751 71.5025 18.8742 71.5031C18.8732 71.5036 18.8723 71.5042 18.8713 71.5047C18.8704 71.5052 18.8694 71.5058 18.8685 71.5063C18.8675 71.5069 18.8666 71.5074 18.8657 71.5079C18.8647 71.5085 18.8638 71.509 18.8629 71.5095C18.8619 71.5101 18.861 71.5106 18.8601 71.5111C18.8591 71.5117 18.8582 71.5122 18.8573 71.5127C18.8564 71.5132 18.8555 71.5138 18.8545 71.5143C18.8536 71.5148 18.8527 71.5153 18.8518 71.5159C18.8509 71.5164 18.85 71.5169 18.8491 71.5174C18.8482 71.5179 18.8473 71.5184 18.8464 71.5189C18.8455 71.5195 18.8446 71.52 18.8437 71.5205C18.8428 71.521 18.8419 71.5215 18.8411 71.522C18.8402 71.5225 18.8393 71.523 18.8384 71.5235C18.8375 71.524 18.8367 71.5245 18.8358 71.525C18.8349 71.5255 18.8341 71.526 18.8332 71.5265C18.8323 71.527 18.8315 71.5275 18.8306 71.528C18.8297 71.5285 18.8289 71.529 18.828 71.5294C18.8272 71.5299 18.8263 71.5304 18.8255 71.5309C18.8246 71.5314 18.8238 71.5319 18.8229 71.5324C18.8221 71.5328 18.8212 71.5333 18.8204 71.5338C18.8196 71.5343 18.8187 71.5347 18.8179 71.5352C18.8171 71.5357 18.8163 71.5362 18.8154 71.5366C18.8146 71.5371 18.8138 71.5376 18.813 71.5381C18.8121 71.5385 18.8113 71.539 18.8105 71.5395C18.8097 71.5399 18.8089 71.5404 18.8081 71.5408C18.8073 71.5413 18.8065 71.5418 18.8057 71.5422C18.8049 71.5427 18.8041 71.5431 18.8033 71.5436C18.8025 71.544 18.8017 71.5445 18.8009 71.5449C18.8001 71.5454 18.7993 71.5458 18.7985 71.5463C18.7978 71.5467 18.797 71.5472 18.7962 71.5476C18.7954 71.5481 18.7946 71.5485 18.7939 71.549C18.7931 71.5494 18.7923 71.5498 18.7916 71.5503C18.7908 71.5507 18.79 71.5511 18.7893 71.5516C18.7885 71.552 18.7878 71.5525 18.787 71.5529C18.7863 71.5533 18.7855 71.5537 18.7848 71.5542C18.784 71.5546 18.7833 71.555 18.7825 71.5554C18.7818 71.5559 18.781 71.5563 18.7803 71.5567C18.7796 71.5571 18.7788 71.5576 18.7781 71.558C18.7774 71.5584 18.7767 71.5588 18.7759 71.5592C18.7752 71.5596 18.7745 71.56 18.7738 71.5604C18.773 71.5609 18.7723 71.5613 18.7716 71.5617C18.7709 71.5621 18.7702 71.5625 18.7695 71.5629C18.7688 71.5633 18.7681 71.5637 18.7674 71.5641C18.7667 71.5645 18.766 71.5649 18.7653 71.5653C18.7646 71.5657 18.7639 71.5661 18.7632 71.5665C18.7625 71.5669 18.7618 71.5673 18.7612 71.5677C18.7605 71.568 18.7598 71.5684 18.7591 71.5688C18.7584 71.5692 18.7578 71.5696 18.7571 71.57C18.7564 71.5704 18.7558 71.5707 18.7551 71.5711C18.7544 71.5715 18.7538 71.5719 18.7531 71.5723C18.7525 71.5726 18.7518 71.573 18.7512 71.5734C18.7505 71.5737 18.7498 71.5741 18.7492 71.5745C18.7486 71.5749 18.7479 71.5752 18.7473 71.5756C18.7466 71.576 18.746 71.5763 18.7454 71.5767C18.7447 71.577 18.7441 71.5774 18.7435 71.5778C18.7428 71.5781 18.7422 71.5785 18.7416 71.5788C18.741 71.5792 18.7403 71.5796 18.7397 71.5799C18.7391 71.5803 18.7385 71.5806 18.7379 71.581C18.7373 71.5813 18.7367 71.5817 18.7361 71.582C18.7354 71.5823 18.7348 71.5827 18.7342 71.583C18.7336 71.5834 18.7331 71.5837 18.7325 71.5841C18.7319 71.5844 18.7313 71.5847 18.7307 71.5851C18.7301 71.5854 18.7295 71.5857 18.7289 71.5861C18.7284 71.5864 18.7278 71.5867 18.7272 71.5871C18.7266 71.5874 18.726 71.5877 18.7255 71.588C18.7249 71.5884 18.7243 71.5887 18.7238 71.589C18.7232 71.5893 18.7227 71.5897 18.7221 71.59C18.7215 71.5903 18.721 71.5906 18.7204 71.5909C18.7199 71.5912 18.7193 71.5916 18.7188 71.5919C18.7182 71.5922 18.7177 71.5925 18.7172 71.5928C18.7166 71.5931 18.7161 71.5934 18.7155 71.5937C18.715 71.594 18.7145 71.5943 18.714 71.5946C18.7134 71.5949 18.7129 71.5952 18.7124 71.5955C18.7119 71.5958 18.7113 71.5961 18.7108 71.5964C18.7103 71.5967 18.7098 71.597 18.7093 71.5973C18.7088 71.5976 18.7083 71.5979 18.7078 71.5982C18.7073 71.5985 18.7067 71.5987 18.7063 71.599C18.7058 71.5993 18.7053 71.5996 18.7048 71.5999C18.7043 71.6002 18.7038 71.6004 18.7033 71.6007C18.7028 71.601 18.7023 71.6013 18.7018 71.6015C18.7014 71.6018 18.7009 71.6021 18.7004 71.6024C18.6999 71.6026 18.6995 71.6029 18.699 71.6032C18.6985 71.6034 18.6981 71.6037 18.6976 71.604C18.6971 71.6042 18.6967 71.6045 18.6962 71.6048C18.6958 71.605 18.6953 71.6053 18.6949 71.6055C18.6944 71.6058 18.694 71.6061 18.6935 71.6063C18.6931 71.6066 18.6926 71.6068 18.6922 71.6071C18.6917 71.6073 18.6913 71.6076 18.6909 71.6078C18.6904 71.6081 18.69 71.6083 18.6896 71.6086C18.6892 71.6088 18.6887 71.609 18.6883 71.6093C18.6879 71.6095 18.6875 71.6098 18.6871 71.61C18.6866 71.6102 18.6862 71.6105 18.6858 71.6107C18.6854 71.6109 18.685 71.6112 18.6846 71.6114C18.6842 71.6116 18.6838 71.6119 18.6834 71.6121C18.683 71.6123 18.6826 71.6125 18.6822 71.6128C18.6818 71.613 18.6814 71.6132 18.6811 71.6134C18.6807 71.6136 18.6803 71.6139 18.6799 71.6141C18.6795 71.6143 18.6791 71.6145 18.6788 71.6147C18.6784 71.6149 18.678 71.6152 18.6777 71.6154C18.6773 71.6156 18.6769 71.6158 18.6766 71.616C18.6762 71.6162 18.6758 71.6164 18.6755 71.6166C18.6751 71.6168 18.6748 71.617 18.6744 71.6172C18.6741 71.6174 18.6737 71.6176 18.6734 71.6178C18.673 71.618 18.6727 71.6182 18.6724 71.6184C18.672 71.6186 18.6717 71.6188 18.6714 71.619C18.671 71.6192 18.6707 71.6193 18.6704 71.6195C18.67 71.6197 18.6697 71.6199 18.6694 71.6201C18.6691 71.6203 18.6688 71.6205 18.6684 71.6206C18.6681 71.6208 18.6678 71.621 18.6675 71.6212C18.6672 71.6213 18.6669 71.6215 18.6666 71.6217C18.6663 71.6219 18.666 71.622 18.6657 71.6222C18.6654 71.6224 18.6651 71.6225 18.6648 71.6227C18.6645 71.6229 18.6642 71.623 18.664 71.6232C18.6637 71.6234 18.6634 71.6235 18.6631 71.6237C18.6628 71.6238 18.6626 71.624 18.6623 71.6242C18.662 71.6243 18.6617 71.6245 18.6615 71.6246C18.6612 71.6248 18.6609 71.6249 18.6607 71.6251C18.6604 71.6252 18.6602 71.6254 18.6599 71.6255C18.6596 71.6257 18.6594 71.6258 18.6591 71.6259C18.6589 71.6261 18.6587 71.6262 18.6584 71.6264C18.6582 71.6265 18.6579 71.6266 18.6577 71.6268C18.6574 71.6269 18.6572 71.6271 18.657 71.6272C18.6568 71.6273 18.6565 71.6274 18.6563 71.6276C18.6561 71.6277 18.6558 71.6278 18.6556 71.628C18.6554 71.6281 18.6552 71.6282 18.655 71.6283C18.6548 71.6285 18.6546 71.6286 18.6543 71.6287C18.6541 71.6288 18.6539 71.6289 18.6537 71.629C18.6535 71.6292 18.6533 71.6293 18.6531 71.6294C18.6529 71.6295 18.6527 71.6296 18.6526 71.6297C18.6524 71.6298 18.6522 71.6299 18.652 71.63C18.6518 71.6301 18.6516 71.6302 18.6515 71.6303C18.6513 71.6304 18.6511 71.6305 18.6509 71.6306C18.6508 71.6307 18.6506 71.6308 18.6504 71.6309C18.6503 71.631 18.6501 71.6311 18.6499 71.6312C18.6498 71.6313 18.6496 71.6314 18.6495 71.6315C18.6493 71.6316 18.6492 71.6317 18.649 71.6317C18.6489 71.6318 18.6487 71.6319 18.6486 71.632C18.6484 71.6321 18.6483 71.6322 18.6482 71.6322C18.648 71.6323 18.6479 71.6324 18.6478 71.6325C18.6476 71.6325 18.6475 71.6326 18.6474 71.6327C18.6472 71.6327 18.6471 71.6328 18.647 71.6329C18.6469 71.633 18.6468 71.633 18.6467 71.6331C18.6465 71.6331 18.6464 71.6332 18.6463 71.6333C18.6462 71.6333 18.6461 71.6334 18.646 71.6334C18.6459 71.6335 18.6458 71.6336 18.6457 71.6336C18.6456 71.6337 18.6455 71.6337 18.6454 71.6338C18.6454 71.6338 18.6453 71.6339 18.6452 71.6339C18.6451 71.634 18.645 71.634 18.6449 71.6341C18.6449 71.6341 18.6448 71.6341 18.6447 71.6342C18.6447 71.6342 18.6446 71.6343 18.6445 71.6343C18.6445 71.6343 18.6444 71.6344 18.6443 71.6344C18.6443 71.6344 18.6442 71.6345 18.6442 71.6345C18.6441 71.6345 18.6441 71.6346 18.644 71.6346C18.644 71.6346 18.6439 71.6346 18.6439 71.6347C18.6438 71.6347 18.6438 71.6347 18.6438 71.6347C18.6437 71.6348 18.6437 71.6348 18.6437 71.6348C18.6436 71.6348 18.6436 71.6348 18.6436 71.6348C18.6436 71.6349 18.6435 71.6349 18.6435 71.6349C18.6435 71.6349 18.6435 71.6349 18.6435 71.6349C18.6435 71.6349 18.6435 71.6349 18.6435 71.6349C18.6434 71.6349 18.6434 71.6349 19.9403 73.9044ZM23.6106 74.817C25.1625 73.8933 27.0669 72.7654 29.3246 71.433L26.6676 66.9309C24.4066 68.2653 22.4961 69.3967 20.9367 70.3249L23.6106 74.817ZM29.3086 71.4424C31.6103 70.106 33.8934 68.7695 36.1582 67.4329L33.5012 62.9308C31.2472 64.261 28.9747 65.5912 26.6836 66.9216L29.3086 71.4424ZM36.1422 67.4423C38.4356 66.1106 40.3559 65.0027 41.9045 64.1178L39.3108 59.579C37.7481 60.4719 35.8165 61.5863 33.5172 62.9214L36.1422 67.4423ZM41.9446 64.0945C42.241 63.918 42.7662 63.6054 42.9655 63.4868C43.0534 63.4344 43.3028 63.286 43.3665 63.2481C43.4475 63.1998 43.4647 63.1896 43.5397 63.145C43.5805 63.1207 43.6599 63.0734 43.6946 63.0527C43.7467 63.0217 43.7147 63.0408 43.7653 63.0107C43.7992 62.9905 43.799 62.9907 43.8314 62.9714C43.8324 62.9708 43.8621 62.9531 43.8627 62.9527C43.9261 62.915 43.8299 62.9722 43.8929 62.9347C43.9399 62.9068 43.9044 62.9279 43.9499 62.9008C44.1246 62.7968 43.9817 62.8819 44.1322 62.7923C44.1376 62.7891 44.1313 62.7928 44.1367 62.7896C44.1395 62.7879 44.1383 62.7887 44.1411 62.787C44.15 62.7817 44.1411 62.787 44.1498 62.7818C44.1573 62.7774 44.1592 62.7762 44.1663 62.772C44.1927 62.7563 44.1711 62.7691 44.196 62.7543C44.2605 62.7159 44.1831 62.762 44.2415 62.7272C44.2444 62.7255 44.2561 62.7185 44.2575 62.7177C44.2688 62.711 44.259 62.7168 44.2689 62.7109C44.2704 62.71 44.2685 62.7112 44.27 62.7103C44.2702 62.7102 44.2703 62.7101 44.2705 62.71C44.2707 62.7099 44.2709 62.7098 44.271 62.7097C44.2726 62.7087 44.2714 62.7095 44.2729 62.7086C44.2746 62.7075 44.2743 62.7077 44.2757 62.7069C44.2766 62.7063 44.2759 62.7068 44.2767 62.7063C44.2776 62.7057 44.2766 62.7064 44.2774 62.7059C44.2775 62.7058 44.2775 62.7058 44.2776 62.7058C44.2776 62.7057 44.2776 62.7057 44.2777 62.7057C44.2779 62.7056 44.2777 62.7057 44.2779 62.7056C44.2779 62.7056 44.2779 62.7056 44.2779 62.7056C44.2779 62.7056 44.2779 62.7055 44.278 62.7055C44.278 62.7055 44.278 62.7055 44.278 62.7055C44.278 62.7055 44.278 62.7055 42.9411 60.4595C41.6041 58.2134 41.6041 58.2134 41.6041 58.2134C41.6041 58.2134 41.6041 58.2134 41.6041 58.2134C41.6041 58.2134 41.604 58.2135 41.604 58.2135C41.6039 58.2136 41.6038 58.2136 41.6036 58.2137C41.6033 58.2139 41.6024 58.2144 41.6018 58.2148C41.6004 58.2156 41.598 58.2171 41.595 58.2188C41.5876 58.2233 41.5812 58.2271 41.5677 58.2351C41.5534 58.2436 41.4969 58.2773 41.4583 58.3002C41.287 58.4022 41.2893 58.4008 41.0208 58.5606C40.6102 58.8051 40.0702 59.1264 39.2707 59.6023L41.9446 64.0945ZM42.9411 63.0733H66.4974V57.8456H42.9411V63.0733ZM63.9408 59.9155L46.8847 140.085L51.9979 141.173L69.054 61.0034L63.9408 59.9155ZM49.4413 138.015H25.8849V143.243H49.4413V138.015ZM119.725 95.0162V92.4024C118.713 92.4024 117.792 92.9864 117.361 93.9017L119.725 95.0162ZM98.2243 140.629V143.243C99.2362 143.243 100.157 142.659 100.589 141.743L98.2243 140.629ZM75.9457 140.629L73.3346 140.748C73.3985 142.144 74.5486 143.243 75.9457 143.243V140.629ZM72.2789 60.4595V57.8456C71.565 57.8456 70.8821 58.1377 70.3889 58.6539C69.8958 59.1702 69.6352 59.8657 69.6678 60.5789L72.2789 60.4595ZM96.502 60.4595L99.1149 60.5292C99.1337 59.8241 98.8668 59.1414 98.3748 58.636C97.8827 58.1307 97.2073 57.8456 96.502 57.8456V60.4595ZM95.1686 110.406L92.5557 110.336C92.5369 111.041 92.8038 111.724 93.2959 112.229C93.7879 112.734 94.4633 113.019 95.1686 113.019V110.406ZM95.6131 110.406V113.019C96.6404 113.019 97.5724 112.418 97.9953 111.481L95.6131 110.406ZM118.169 60.4595V57.8456C117.142 57.8456 116.21 58.4474 115.787 59.3836L118.169 60.4595ZM136.392 60.4595L139.004 60.3607C138.951 58.9565 137.797 57.8456 136.392 57.8456V60.4595ZM138.281 110.406L135.669 110.504C135.722 111.909 136.876 113.019 138.281 113.019V110.406ZM138.726 110.406V113.019C139.803 113.019 140.77 112.358 141.161 111.354L138.726 110.406ZM158.171 60.4595V57.8456C157.093 57.8456 156.126 58.507 155.735 59.5112L158.171 60.4595ZM182.394 60.4595L184.76 61.571C185.14 60.7614 185.08 59.8134 184.6 59.0583C184.121 58.3031 183.288 57.8456 182.394 57.8456V60.4595ZM144.726 140.629V143.243C145.739 143.243 146.661 142.657 147.092 141.74L144.726 140.629ZM122.725 140.629L120.115 140.775C120.193 142.16 121.338 143.243 122.725 143.243V140.629ZM120.169 95.0162L122.779 94.87C122.702 93.4854 121.556 92.4024 120.169 92.4024V95.0162ZM117.361 93.9017L95.8599 139.514L100.589 141.743L122.089 96.1307L117.361 93.9017ZM98.2243 138.015H75.9457V143.243H98.2243V138.015ZM78.5568 140.509L74.8901 60.34L69.6678 60.5789L73.3346 140.748L78.5568 140.509ZM72.2789 63.0733H96.502V57.8456H72.2789V63.0733ZM93.8891 60.3897L92.5557 110.336L97.7815 110.475L99.1149 60.5292L93.8891 60.3897ZM95.1686 113.019H95.6131V107.792H95.1686V113.019ZM97.9953 111.481L120.552 61.5353L115.787 59.3836L93.2309 109.33L97.9953 111.481ZM118.169 63.0733H136.392V57.8456H118.169V63.0733ZM133.78 60.5582L135.669 110.504L140.893 110.307L139.004 60.3607L133.78 60.5582ZM138.281 113.019H138.726V107.792H138.281V113.019ZM141.161 111.354L160.607 61.4078L155.735 59.5112L136.29 109.457L141.161 111.354ZM158.171 63.0733H182.394V57.8456H158.171V63.0733ZM180.028 59.3479L142.36 139.517L147.092 141.74L184.76 61.571L180.028 59.3479ZM144.726 138.015H122.725V143.243H144.726V138.015ZM125.335 140.483L122.779 94.87L117.56 95.1624L120.115 140.775L125.335 140.483ZM120.169 92.4024H119.725V97.63H120.169V92.4024Z" fill="#001724" mask="url(#path-34-outside-1_488_3167)"/>
</svg>
