<svg width="200" height="200" viewBox="0 0 200 200" fill="none" xmlns="http://www.w3.org/2000/svg">
<g clip-path="url(#clip0_14_2826)">
<path d="M108.456 53.1026C114.957 51.0512 122.257 50.017 130.117 50.017H130.134C138.028 50.017 144.904 51.2207 150.574 53.6281C154.633 55.3496 158.007 57.5875 160.668 60.3182L174.409 74.0406C175.902 75.5326 177.193 77.194 178.245 78.9912C181.284 84.196 182.031 90.2146 180.418 96.8605L179.162 102.048H166.752L170.131 105.422C171.896 107.185 173.186 109.22 173.984 111.509C175.427 115.628 175.308 120.562 173.645 126.174C171.811 132.396 168.28 137.906 163.17 142.534C158.298 146.959 152.288 150.401 145.277 152.774C138.453 155.097 131.204 156.267 122.767 156.267C114.329 156.267 107.047 154.978 101.139 152.435C97.2172 150.757 93.9238 148.587 91.3095 145.976L82.6855 137.363L77.5247 154.741H46.3732L32.4017 140.788L44.8793 98.7255L38.9545 99.7088L24.983 85.7558L32.0282 62.0373L33.1996 58.0701L37.2739 57.2902L67.6785 51.5259H90.0482L90.0432 51.5428H90.0702L96.8753 58.3389C100.326 56.1982 104.199 54.4485 108.456 53.1026Z" fill="#001724"/>
<path d="M88.5084 135.346C94.0087 137.702 100.816 138.906 108.795 138.906L108.744 138.889C116.468 138.889 123.683 137.787 130.168 135.583C136.738 133.362 142.357 130.158 146.873 126.055C151.508 121.851 154.716 116.866 156.38 111.237C157.84 106.321 157.976 102.099 156.77 98.6576C155.497 95.0126 152.543 92.1304 148.027 90.079C144.004 88.2649 138.538 87.0103 131.391 86.2304L116.112 84.3147C110.493 83.5856 108.846 82.5684 108.473 82.2632L108.462 82.2541C108.226 82.0525 107.935 81.8038 108.303 80.5678C108.897 78.6012 110.527 77.0584 113.294 75.8547C116.57 74.4305 120.746 73.7185 125.704 73.7185C129.218 73.7185 132.138 74.1084 134.395 74.8883C136.331 75.5495 137.689 76.4311 138.419 77.4653C139.081 78.3977 139.302 79.4828 139.098 80.8391L138.538 84.7215H162.508L163.136 82.1276C164.528 76.3633 163.917 71.1923 161.32 66.7504C158.79 62.4611 154.733 59.1042 149.216 56.7646C143.97 54.5267 137.621 53.4077 130.1 53.4077C122.58 53.4077 115.637 54.391 109.457 56.3407C103.159 58.3243 97.7775 61.2574 93.4655 65.055C89.0177 68.9714 85.928 73.7693 84.2813 79.3472C82.0574 86.8916 83.076 92.9781 87.3201 97.437C91.2925 101.625 98.2868 104.219 108.71 105.388L123.463 107.101C129.795 107.847 131.543 108.932 131.917 109.237L131.929 109.247C132.184 109.468 132.572 109.803 132.138 111.254C131.526 113.357 129.744 115.018 126.705 116.324C123.174 117.832 118.59 118.612 113.09 118.612C109.406 118.612 106.3 118.155 103.872 117.256C101.75 116.476 100.239 115.408 99.3563 114.103C98.5414 112.882 98.2698 111.492 98.5075 109.745L99.0337 105.897H75.0971L74.469 108.474C72.9751 114.526 73.5183 119.986 76.0478 124.665C78.5433 129.276 82.7365 132.871 88.5084 135.346Z" fill="white"/>
<path d="M54.7935 77.3466L36.9683 137.397H61.0407L85.5036 54.8996H68.001L35.8818 61.003L29.8043 81.5172L54.7935 77.3466Z" fill="white"/>
</g>
<defs>
<clipPath id="clip0_14_2826">
<rect width="156.25" height="106.25" fill="white" transform="translate(25 50)"/>
</clipPath>
</defs>
</svg>
