<svg width="22" height="28" viewBox="0 0 22 28" fill="none" xmlns="http://www.w3.org/2000/svg">
<path d="M12.6992 27.1719C12.5352 27.1719 12.3945 27.1133 12.2773 26.9961C12.1602 26.8867 12.0859 26.7461 12.0547 26.5742C11.8672 25.3008 11.6641 24.2266 11.4453 23.3516C11.2344 22.4844 10.9609 21.7773 10.625 21.2305C10.2891 20.6758 9.84375 20.2305 9.28906 19.8945C8.73438 19.5586 8.02734 19.2891 7.16797 19.0859C6.31641 18.8828 5.26953 18.6992 4.02734 18.5352C3.84766 18.5117 3.69922 18.4414 3.58203 18.3242C3.46484 18.1992 3.40625 18.0508 3.40625 17.8789C3.40625 17.707 3.46484 17.5625 3.58203 17.4453C3.69922 17.3203 3.84766 17.2461 4.02734 17.2227C5.28516 17.082 6.34375 16.9141 7.20312 16.7188C8.0625 16.5234 8.76953 16.2578 9.32422 15.9219C9.88672 15.5781 10.3359 15.125 10.6719 14.5625C11.0078 13.9922 11.2773 13.2695 11.4805 12.3945C11.6914 11.5195 11.8828 10.4492 12.0547 9.18359C12.0859 9.01172 12.1602 8.87109 12.2773 8.76172C12.3945 8.65234 12.5352 8.59766 12.6992 8.59766C12.8633 8.59766 13.0039 8.65234 13.1211 8.76172C13.2461 8.87109 13.3242 9.01172 13.3555 9.18359C13.5352 10.457 13.7305 11.5312 13.9414 12.4062C14.1523 13.2812 14.4258 14 14.7617 14.5625C15.1055 15.125 15.5547 15.5742 16.1094 15.9102C16.6641 16.2461 17.3672 16.5117 18.2188 16.707C19.0703 16.9023 20.125 17.0742 21.3828 17.2227C21.5625 17.2461 21.707 17.3203 21.8164 17.4453C21.9336 17.5625 21.9922 17.707 21.9922 17.8789C21.9922 18.0508 21.9336 18.1992 21.8164 18.3242C21.707 18.4414 21.5625 18.5117 21.3828 18.5352C20.1172 18.6758 19.0547 18.8438 18.1953 19.0391C17.3438 19.2344 16.6367 19.5039 16.0742 19.8477C15.5195 20.1836 15.0742 20.6367 14.7383 21.207C14.4023 21.7695 14.1289 22.4844 13.918 23.3516C13.7148 24.2266 13.5273 25.3008 13.3555 26.5742C13.3242 26.7461 13.25 26.8867 13.1328 26.9961C13.0156 27.1133 12.8711 27.1719 12.6992 27.1719ZM4.57812 14.2227C4.3125 14.2227 4.16016 14.082 4.12109 13.8008C4.02734 13.0273 3.92969 12.4219 3.82812 11.9844C3.72656 11.5391 3.5625 11.2031 3.33594 10.9766C3.10938 10.75 2.76953 10.5781 2.31641 10.4609C1.86328 10.3438 1.23828 10.2266 0.441406 10.1094C0.144531 10.0625 -0.00390625 9.91016 -0.00390625 9.65234C-0.00390625 9.40234 0.128906 9.25391 0.394531 9.20703C1.19922 9.05859 1.82812 8.92578 2.28125 8.80859C2.74219 8.68359 3.08594 8.51562 3.3125 8.30469C3.54688 8.08594 3.71484 7.76172 3.81641 7.33203C3.92578 6.89453 4.02734 6.28906 4.12109 5.51562C4.16016 5.23438 4.3125 5.09375 4.57812 5.09375C4.84375 5.09375 4.99219 5.22656 5.02344 5.49219C5.125 6.28906 5.22656 6.91406 5.32812 7.36719C5.4375 7.8125 5.60547 8.14844 5.83203 8.375C6.05859 8.60156 6.39844 8.76953 6.85156 8.87891C7.3125 8.98828 7.94922 9.09766 8.76172 9.20703C8.87109 9.22266 8.96484 9.27344 9.04297 9.35938C9.12109 9.4375 9.16016 9.53516 9.16016 9.65234C9.16016 9.90234 9.02734 10.0547 8.76172 10.1094C7.94922 10.2578 7.31641 10.3945 6.86328 10.5195C6.41016 10.6367 6.06641 10.8086 5.83203 11.0352C5.60547 11.2539 5.4375 11.582 5.32812 12.0195C5.22656 12.4492 5.125 13.0508 5.02344 13.8242C5.00781 13.9414 4.95703 14.0391 4.87109 14.1172C4.79297 14.1875 4.69531 14.2227 4.57812 14.2227ZM10.2617 6.01953C10.1055 6.01953 10.0117 5.9375 9.98047 5.77344C9.89453 5.28906 9.81641 4.91016 9.74609 4.63672C9.68359 4.36328 9.58203 4.15625 9.44141 4.01562C9.30078 3.875 9.08984 3.76563 8.80859 3.6875C8.52734 3.60156 8.13672 3.51172 7.63672 3.41797C7.46484 3.38672 7.37891 3.29297 7.37891 3.13672C7.37891 2.98828 7.46094 2.89453 7.625 2.85547C8.13281 2.75391 8.52344 2.66406 8.79688 2.58594C9.07812 2.50781 9.28516 2.39844 9.41797 2.25781C9.55859 2.11719 9.66406 1.91016 9.73438 1.63672C9.80469 1.36328 9.88672 0.988281 9.98047 0.511719C10.0117 0.339844 10.1055 0.253906 10.2617 0.253906C10.418 0.253906 10.5117 0.335938 10.543 0.5C10.6367 0.984375 10.7188 1.36719 10.7891 1.64844C10.8594 1.92187 10.9609 2.12891 11.0938 2.26953C11.2344 2.41016 11.4414 2.51953 11.7148 2.59766C11.9961 2.67578 12.3867 2.76172 12.8867 2.85547C13.0586 2.88672 13.1445 2.98047 13.1445 3.13672C13.1445 3.29297 13.0625 3.38672 12.8984 3.41797C12.3906 3.51953 11.9961 3.61328 11.7148 3.69922C11.4336 3.77734 11.2227 3.88672 11.082 4.02734C10.9492 4.16016 10.8438 4.36328 10.7656 4.63672C10.6953 4.91016 10.6211 5.28906 10.543 5.77344C10.5117 5.9375 10.418 6.01953 10.2617 6.01953Z" fill="white"/>
</svg>
