<svg width="32" height="32" viewBox="0 0 32 32" fill="none" xmlns="http://www.w3.org/2000/svg">
<path d="M10.5508 29.1602C9.27734 29.1602 8.3125 28.8359 7.65625 28.1875C7.00781 27.5391 6.68359 26.5859 6.68359 25.3281V13.4805C6.68359 12.2227 7.00781 11.2734 7.65625 10.6328C8.3125 9.98438 9.27734 9.66016 10.5508 9.66016H27.6133C28.8789 9.66016 29.8359 9.98438 30.4844 10.6328C31.1406 11.2812 31.4688 12.2305 31.4688 13.4805V25.3281C31.4688 26.5781 31.1406 27.5273 30.4844 28.1758C29.8359 28.832 28.8789 29.1602 27.6133 29.1602H10.5508ZM0.53125 19.7383V7.78516C0.53125 6.52734 0.855469 5.57422 1.50391 4.92578C2.16016 4.27734 3.125 3.95312 4.39844 3.95312H21.5781C22.8438 3.95312 23.8008 4.28125 24.4492 4.9375C25.1055 5.58594 25.4336 6.53125 25.4336 7.77344V7.9375H10.4102C9.23828 7.9375 8.24609 8.14453 7.43359 8.55859C6.62891 8.97266 6.01562 9.58203 5.59375 10.3867C5.17188 11.1914 4.96094 12.1758 4.96094 13.3398V23.5703H4.39844C3.125 23.5703 2.16016 23.2461 1.50391 22.5977C0.855469 21.9492 0.53125 20.9961 0.53125 19.7383Z" fill="white"/>
</svg>
