<svg width="33" height="33" viewBox="0 0 33 33" fill="none" xmlns="http://www.w3.org/2000/svg">
<g clip-path="url(#clip0_307_1790)">
<path d="M18.082 27.9375C17.6289 27.9375 17.25 27.7891 16.9453 27.4922C16.6484 27.1953 16.5 26.8242 16.5 26.3789V22.1484H16.207C14.7773 22.1484 13.5195 22.3008 12.4336 22.6055C11.3477 22.9102 10.3945 23.4062 9.57422 24.0938C8.75391 24.7812 8.03516 25.7031 7.41797 26.8594C7.19141 27.2812 6.9375 27.5586 6.65625 27.6914C6.38281 27.8242 6.09375 27.8906 5.78906 27.8906C5.38281 27.8906 5.03906 27.7031 4.75781 27.3281C4.48438 26.9609 4.34766 26.4141 4.34766 25.6875C4.34766 23.5625 4.58594 21.6562 5.0625 19.9688C5.53906 18.2734 6.26172 16.8281 7.23047 15.6328C8.20703 14.4375 9.4375 13.5273 10.9219 12.9023C12.4141 12.2695 14.1758 11.9531 16.207 11.9531H16.5V7.75781C16.5 7.3125 16.6484 6.93359 16.9453 6.62109C17.25 6.30078 17.6328 6.14062 18.0938 6.14062C18.4062 6.14062 18.6875 6.21094 18.9375 6.35156C19.1953 6.48437 19.4922 6.71094 19.8281 7.03125L29.1094 15.6797C29.3359 15.8906 29.4961 16.1172 29.5898 16.3594C29.6914 16.5938 29.7422 16.8203 29.7422 17.0391C29.7422 17.25 29.6914 17.4766 29.5898 17.7188C29.4961 17.9609 29.3359 18.1875 29.1094 18.3984L19.8281 27.1172C19.5234 27.4062 19.2305 27.6133 18.9492 27.7383C18.6758 27.8711 18.3867 27.9375 18.082 27.9375Z" fill="white"/>
</g>
<defs>
<clipPath id="clip0_307_1790">
<rect width="32" height="32" fill="white" transform="translate(0.5 0.5)"/>
</clipPath>
</defs>
</svg>
