<svg width="32" height="32" viewBox="0 0 32 32" fill="none" xmlns="http://www.w3.org/2000/svg">
<path d="M12.8125 26.8398H19.1758V20.0781C19.1758 19.8047 19.0938 19.5859 18.9297 19.4219C18.7656 19.2578 18.5469 19.1758 18.2734 19.1758H13.7266C13.4531 19.1758 13.2305 19.2578 13.0586 19.4219C12.8945 19.5859 12.8125 19.8047 12.8125 20.0781V26.8398ZM5.47656 26.3945V17.4414L15.2734 9.22656C15.75 8.82031 16.2305 8.82031 16.7148 9.22656L26.5117 17.4414V26.3945C26.5117 27.2383 26.2617 27.8984 25.7617 28.375C25.2617 28.8516 24.582 29.0898 23.7227 29.0898H8.26562C7.39844 29.0898 6.71484 28.8516 6.21484 28.375C5.72266 27.8984 5.47656 27.2383 5.47656 26.3945ZM2.88672 16.9258C2.51172 16.9258 2.21484 16.8164 1.99609 16.5977C1.78516 16.3711 1.67969 16.1055 1.67969 15.8008C1.67969 15.4336 1.83203 15.125 2.13672 14.875L14.3477 4.62109C14.8555 4.19141 15.4023 3.97656 15.9883 3.97656C16.582 3.97656 17.1289 4.19141 17.6289 4.62109L29.8398 14.875C30.1523 15.125 30.3086 15.4336 30.3086 15.8008C30.3086 16.1055 30.1992 16.3711 29.9805 16.5977C29.7695 16.8164 29.4766 16.9258 29.1016 16.9258C28.9219 16.9258 28.75 16.8867 28.5859 16.8086C28.4297 16.7227 28.2812 16.6211 28.1406 16.5039L16.4922 6.73047C16.3359 6.59766 16.168 6.53125 15.9883 6.53125C15.8164 6.53125 15.6523 6.59766 15.4961 6.73047L3.85938 16.5039C3.71094 16.6211 3.55469 16.7227 3.39062 16.8086C3.23438 16.8867 3.06641 16.9258 2.88672 16.9258ZM23.4297 10.1289V7.41016C23.4297 7.14453 23.5078 6.93359 23.6641 6.77734C23.8281 6.62109 24.0391 6.54297 24.2969 6.54297H25.8789C26.1445 6.54297 26.3555 6.62109 26.5117 6.77734C26.668 6.93359 26.7461 7.14453 26.7461 7.41016V12.918L23.4297 10.1289Z" fill="white" fill-opacity="0.2"/>
</svg>
