<svg width="26" height="27" viewBox="0 0 26 27" fill="none" xmlns="http://www.w3.org/2000/svg">
<path d="M0.601562 18.0156C0.601562 16.7266 0.820312 15.5625 1.25781 14.5234C1.69531 13.4766 2.28906 12.6484 3.03906 12.0391C3.79688 11.4219 4.64844 11.1133 5.59375 11.1133H7.25781C6.86719 11.6289 6.5 12.2188 6.15625 12.8828C5.82031 13.5469 5.54297 14.2969 5.32422 15.1328C5.10547 15.9609 4.98828 16.8789 4.97266 17.8867C4.94922 19.3086 5.19922 20.6211 5.72266 21.8242C6.25391 23.0273 7.0625 24.043 8.14844 24.8711H6.03906C5.00781 24.8711 4.07812 24.5586 3.25 23.9336C2.42969 23.3164 1.78125 22.4922 1.30469 21.4609C0.835938 20.4219 0.601562 19.2734 0.601562 18.0156ZM6.70703 17.9219C6.72266 16.9531 6.81641 16.0859 6.98828 15.3203C7.16797 14.5469 7.43359 13.8164 7.78516 13.1289C8.14453 12.4336 8.59766 11.7266 9.14453 11.0078C10.082 9.76562 11.1133 8.41016 12.2383 6.94141C13.3633 5.46484 14.3828 3.83203 15.2969 2.04297C15.5625 1.54297 15.832 1.15234 16.1055 0.871094C16.3867 0.582031 16.7539 0.4375 17.207 0.4375C17.7305 0.4375 18.1641 0.613281 18.5078 0.964844C18.8516 1.30859 19.0234 1.77734 19.0234 2.37109C19.0234 2.93359 18.918 3.53125 18.707 4.16406C18.5039 4.78906 18.2656 5.41797 17.9922 6.05078C17.7188 6.68359 17.4766 7.27734 17.2656 7.83203C17.0547 8.38672 16.9492 8.87109 16.9492 9.28516C16.9492 9.69922 17.1055 10.0312 17.418 10.2812C17.7383 10.5312 18.1641 10.6562 18.6953 10.6562H23.0547C23.4844 10.6562 23.8672 10.7578 24.2031 10.9609C24.5469 11.1641 24.8164 11.4375 25.0117 11.7812C25.2148 12.125 25.3164 12.5078 25.3164 12.9297C25.3164 13.2812 25.2617 13.6016 25.1523 13.8906C25.043 14.1719 24.8906 14.3945 24.6953 14.5586C24.5312 14.6992 24.5156 14.8359 24.6484 14.9688C24.8125 15.1328 24.9375 15.3555 25.0234 15.6367C25.1094 15.918 25.1523 16.2031 25.1523 16.4922C25.1523 16.8984 25.0664 17.2695 24.8945 17.6055C24.7227 17.9414 24.4922 18.1992 24.2031 18.3789C24.0312 18.4883 24.0039 18.625 24.1211 18.7891C24.4023 19.1719 24.543 19.6406 24.543 20.1953C24.543 20.6875 24.4062 21.1133 24.1328 21.4727C23.8672 21.8242 23.5352 22.0898 23.1367 22.2695C23.0117 22.332 22.9922 22.4336 23.0781 22.5742C23.1484 22.707 23.2109 22.8594 23.2656 23.0312C23.3203 23.2109 23.3477 23.418 23.3477 23.6523C23.3477 24.2461 23.1445 24.7148 22.7383 25.0586C22.3398 25.4023 21.875 25.6406 21.3438 25.7734C21 25.8672 20.5312 25.9375 19.9375 25.9844C19.3438 26.0391 18.6523 26.0625 17.8633 26.0547L16.1641 26.043C14.7266 26.0273 13.4219 25.8125 12.25 25.3984C11.0781 24.9922 10.0742 24.4219 9.23828 23.6875C8.41016 22.9609 7.77734 22.1094 7.33984 21.1328C6.90234 20.1484 6.69141 19.0781 6.70703 17.9219Z" fill="white"/>
</svg>
