<svg width="32" height="32" viewBox="0 0 32 32" fill="none" xmlns="http://www.w3.org/2000/svg">
<path d="M25.832 14.0664C26.2539 14.0664 26.6133 13.918 26.9102 13.6211C27.207 13.3242 27.3555 12.9688 27.3555 12.5547C27.3555 12.1406 27.207 11.7852 26.9102 11.4883C26.6133 11.1914 26.2539 11.043 25.832 11.043C25.418 11.043 25.0625 11.1914 24.7656 11.4883C24.4688 11.7852 24.3203 12.1406 24.3203 12.5547C24.3203 12.9688 24.4688 13.3242 24.7656 13.6211C25.0625 13.918 25.418 14.0664 25.832 14.0664ZM5.35938 27.4961C4.09375 27.4961 3.13672 27.1719 2.48828 26.5234C1.83984 25.8828 1.51562 24.9375 1.51562 23.6875V11.3945C1.51562 10.1445 1.83984 9.19922 2.48828 8.55859C3.13672 7.91016 4.09375 7.58594 5.35938 7.58594H8.42969C8.89062 7.58594 9.23438 7.53516 9.46094 7.43359C9.6875 7.32422 9.9375 7.125 10.2109 6.83594L11.1367 5.82812C11.4492 5.50781 11.7812 5.26953 12.1328 5.11328C12.4844 4.94922 12.9609 4.86719 13.5625 4.86719H18.3789C18.9727 4.86719 19.4453 4.94922 19.7969 5.11328C20.1562 5.26953 20.4883 5.50781 20.793 5.82812L21.7188 6.83594C21.9062 7.03125 22.0742 7.18359 22.2227 7.29297C22.3789 7.40234 22.5508 7.48047 22.7383 7.52734C22.9336 7.56641 23.1875 7.58594 23.5 7.58594H26.6289C27.8945 7.58594 28.8516 7.91016 29.5 8.55859C30.1562 9.19922 30.4844 10.1445 30.4844 11.3945V23.6875C30.4844 24.9375 30.1562 25.8828 29.5 26.5234C28.8516 27.1719 27.8945 27.4961 26.6289 27.4961H5.35938ZM16 23.8281C16.875 23.8281 17.6953 23.668 18.4609 23.3477C19.2266 23.0195 19.8984 22.5664 20.4766 21.9883C21.0547 21.4102 21.5039 20.7383 21.8242 19.9727C22.1523 19.207 22.3164 18.3789 22.3164 17.4883C22.3164 16.3164 22.0352 15.25 21.4727 14.2891C20.9102 13.3281 20.1484 12.5664 19.1875 12.0039C18.2266 11.4414 17.1641 11.1602 16 11.1602C15.1172 11.1602 14.293 11.3242 13.5273 11.6523C12.7617 11.9727 12.0898 12.4219 11.5117 13C10.9414 13.5781 10.4922 14.25 10.1641 15.0156C9.83594 15.7812 9.67188 16.6055 9.67188 17.4883C9.67188 18.3789 9.83594 19.207 10.1641 19.9727C10.4922 20.7383 10.9414 21.4102 11.5117 21.9883C12.0898 22.5664 12.7617 23.0195 13.5273 23.3477C14.293 23.668 15.1172 23.8281 16 23.8281ZM16 21.7305C15.2188 21.7305 14.5078 21.543 13.8672 21.168C13.2266 20.7852 12.7148 20.2734 12.332 19.6328C11.9492 18.9922 11.7578 18.2773 11.7578 17.4883C11.7578 16.707 11.9492 15.9961 12.332 15.3555C12.7148 14.7148 13.2266 14.2031 13.8672 13.8203C14.5078 13.4375 15.2188 13.2461 16 13.2461C16.7812 13.2461 17.4922 13.4375 18.1328 13.8203C18.7734 14.2031 19.2812 14.7148 19.6562 15.3555C20.0391 15.9961 20.2305 16.707 20.2305 17.4883C20.2305 18.2773 20.0391 18.9922 19.6562 19.6328C19.2812 20.2734 18.7734 20.7852 18.1328 21.168C17.4922 21.543 16.7812 21.7305 16 21.7305Z" fill="white"/>
</svg>
