<svg width="33" height="33" viewBox="0 0 33 33" fill="none" xmlns="http://www.w3.org/2000/svg">
<g clip-path="url(#clip0_307_1822)">
<path d="M16.4883 29.1445C14.8164 29.1445 13.25 28.8281 11.7891 28.1953C10.3281 27.5703 9.04297 26.7031 7.93359 25.5938C6.82422 24.4844 5.95312 23.1992 5.32031 21.7383C4.69531 20.2773 4.38281 18.7109 4.38281 17.0391C4.38281 15.3672 4.69531 13.8008 5.32031 12.3398C5.95312 10.8711 6.82422 9.58594 7.93359 8.48438C9.04297 7.375 10.3281 6.50781 11.7891 5.88281C13.25 5.25 14.8164 4.93359 16.4883 4.93359C18.1602 4.93359 19.7266 5.25 21.1875 5.88281C22.6562 6.50781 23.9453 7.375 25.0547 8.48438C26.1641 9.58594 27.0312 10.8711 27.6562 12.3398C28.2891 13.8008 28.6055 15.3672 28.6055 17.0391C28.6055 18.7109 28.2891 20.2773 27.6562 21.7383C27.0312 23.1992 26.1641 24.4844 25.0547 25.5938C23.9453 26.7031 22.6562 27.5703 21.1875 28.1953C19.7266 28.8281 18.1602 29.1445 16.4883 29.1445ZM16.5 19.0664C17.1953 19.0664 17.5508 18.7031 17.5664 17.9766L17.7539 12.0938C17.7695 11.7344 17.6562 11.4414 17.4141 11.2148C17.1719 10.9805 16.8633 10.8633 16.4883 10.8633C16.1055 10.8633 15.7969 10.9805 15.5625 11.2148C15.3281 11.4414 15.2188 11.7305 15.2344 12.082L15.3984 17.9883C15.4219 18.707 15.7891 19.0664 16.5 19.0664ZM16.5 23.0977C16.8906 23.0977 17.2266 22.9727 17.5078 22.7227C17.7891 22.4727 17.9297 22.1523 17.9297 21.7617C17.9297 21.3789 17.7891 21.0586 17.5078 20.8008C17.2266 20.543 16.8906 20.4141 16.5 20.4141C16.1016 20.4141 15.7617 20.543 15.4805 20.8008C15.1992 21.0586 15.0586 21.3789 15.0586 21.7617C15.0586 22.1523 15.1992 22.4727 15.4805 22.7227C15.7695 22.9727 16.1094 23.0977 16.5 23.0977Z" fill="white"/>
</g>
<defs>
<clipPath id="clip0_307_1822">
<rect width="32" height="32" fill="white" transform="translate(0.5 0.5)"/>
</clipPath>
</defs>
</svg>
