<svg width="32" height="32" viewBox="0 0 32 32" fill="none" xmlns="http://www.w3.org/2000/svg">
<path d="M7.92578 26.0078C7.04297 26.0078 6.35547 25.7578 5.86328 25.2578C5.37891 24.7656 5.13672 24.0664 5.13672 23.1602V5.6875C5.13672 4.78125 5.37891 4.08203 5.86328 3.58984C6.35547 3.08984 7.04297 2.83984 7.92578 2.83984H12.1211C13.0117 2.83984 13.6992 3.08984 14.1836 3.58984C14.6758 4.08203 14.9219 4.78125 14.9219 5.6875V23.1602C14.9219 24.0664 14.6758 24.7656 14.1836 25.2578C13.6992 25.7578 13.0117 26.0078 12.1211 26.0078H7.92578ZM19.9141 26.0078C19.0156 26.0078 18.3203 25.7578 17.8281 25.2578C17.3438 24.7656 17.1016 24.0664 17.1016 23.1602V13.8555C17.1016 12.9492 17.3438 12.25 17.8281 11.7578C18.3203 11.2578 19.0156 11.0078 19.9141 11.0078H24.0977C24.9883 11.0078 25.6758 11.2578 26.1602 11.7578C26.6523 12.25 26.8984 12.9492 26.8984 13.8555V23.1602C26.8984 24.0664 26.6523 24.7656 26.1602 25.2578C25.6758 25.7578 24.9883 26.0078 24.0977 26.0078H19.9141ZM3.07422 30.2617C2.78516 30.2617 2.53906 30.1562 2.33594 29.9453C2.14062 29.7344 2.04297 29.4844 2.04297 29.1953C2.04297 28.9062 2.14062 28.6562 2.33594 28.4453C2.53906 28.2344 2.78516 28.1289 3.07422 28.1289H28.9375C29.2188 28.1289 29.457 28.2344 29.6523 28.4453C29.8555 28.6562 29.957 28.9062 29.957 29.1953C29.957 29.4844 29.8555 29.7344 29.6523 29.9453C29.457 30.1562 29.2188 30.2617 28.9375 30.2617H3.07422Z" fill="white" fill-opacity="0.2"/>
</svg>
