<svg width="34" height="32" viewBox="0 0 34 32" fill="none" xmlns="http://www.w3.org/2000/svg">
<path d="M20.8906 9.84766C20.8125 10.1445 20.7617 10.457 20.7383 10.7852C20.7227 11.1055 20.7305 11.4453 20.7617 11.8047L16.8477 7.87891C16.8711 7.84766 16.8945 7.82031 16.918 7.79688C17.1836 7.53125 17.5039 7.39844 17.8789 7.39844C18.2539 7.39844 18.5742 7.53125 18.8398 7.79688L20.8906 9.84766ZM30.9688 27.7422C30.25 28.4531 29.4727 29.0234 28.6367 29.4531C27.8008 29.8906 26.9453 30.168 26.0703 30.2852C26.6406 29.9023 27.1758 29.4531 27.6758 28.9375C29.1133 27.5156 30.0508 25.9844 30.4883 24.3438C30.9258 22.6953 30.8789 20.9062 30.3477 18.9766C30.2305 18.4297 30.0664 17.8672 29.8555 17.2891C29.6523 16.7109 29.4219 16.1367 29.1641 15.5664C28.9141 14.9961 28.6523 14.4414 28.3789 13.9023C28.1055 13.3633 27.8438 12.8516 27.5938 12.3672C27.4375 12.0859 27.2852 11.8008 27.1367 11.5117C26.9961 11.2227 26.8477 10.9336 26.6914 10.6445C26.7695 10.3945 26.918 10.1797 27.1367 10C27.4102 9.76562 27.7031 9.66016 28.0156 9.68359C28.3281 9.69922 28.5977 9.83984 28.8242 10.1055C28.957 10.2539 29.1172 10.4883 29.3047 10.8086C29.4922 11.1289 29.6797 11.4805 29.8672 11.8633C30.0625 12.2383 30.25 12.5977 30.4297 12.9414C30.6953 13.4414 30.9648 13.957 31.2383 14.4883C31.5117 15.0117 31.7734 15.5508 32.0234 16.1055C32.2734 16.6523 32.5 17.1992 32.7031 17.7461C32.9062 18.293 33.0664 18.8242 33.1836 19.3398C33.6445 20.9414 33.707 22.4258 33.3711 23.793C33.0352 25.1602 32.2344 26.4766 30.9688 27.7422ZM4.26172 11.4062L1.01562 10.7266C0.796875 10.6797 0.621094 10.5625 0.488281 10.375C0.355469 10.1875 0.308594 9.98438 0.347656 9.76562C0.386719 9.52344 0.503906 9.33203 0.699219 9.19141C0.894531 9.05078 1.11719 9.00781 1.36719 9.0625L4.58984 9.75391C4.83203 9.80859 5.01172 9.93359 5.12891 10.1289C5.25391 10.3164 5.29297 10.5234 5.24609 10.75C5.20703 10.9766 5.08594 11.1562 4.88281 11.2891C4.6875 11.4141 4.48047 11.4531 4.26172 11.4062ZM5.46875 7.38672L3.125 5.05469C2.96094 4.88281 2.87891 4.68359 2.87891 4.45703C2.88672 4.23047 2.96875 4.03125 3.125 3.85938C3.29688 3.6875 3.49609 3.60156 3.72266 3.60156C3.95703 3.60156 4.15625 3.6875 4.32031 3.85938L6.66406 6.19141C6.82812 6.36328 6.91016 6.56641 6.91016 6.80078C6.91016 7.02734 6.82812 7.22266 6.66406 7.38672C6.50781 7.55859 6.30859 7.64453 6.06641 7.64453C5.83203 7.64453 5.63281 7.55859 5.46875 7.38672ZM10.0273 6.13281C9.79297 6.1875 9.57812 6.14844 9.38281 6.01562C9.1875 5.88281 9.0625 5.70312 9.00781 5.47656L8.31641 2.26562C8.26953 2.03125 8.3125 1.81641 8.44531 1.62109C8.58594 1.42578 8.76562 1.30469 8.98438 1.25781C9.21094 1.21094 9.42188 1.25 9.61719 1.375C9.82031 1.5 9.94531 1.67969 9.99219 1.91406L10.6836 5.13672C10.7383 5.35547 10.6992 5.56641 10.5664 5.76953C10.4336 5.96484 10.2539 6.08594 10.0273 6.13281ZM14.6445 27.6602L6.65234 19.668C6.38672 19.4023 6.25391 19.0859 6.25391 18.7188C6.25391 18.3438 6.38672 18.0234 6.65234 17.7578C6.92578 17.4844 7.24609 17.3477 7.61328 17.3477C7.98828 17.3477 8.30859 17.4844 8.57422 17.7578L13.6133 22.8086C13.6523 22.6289 13.6953 22.4492 13.7422 22.2695C13.7969 22.0898 13.8594 21.9062 13.9297 21.7188L6.6875 14.4766C6.42188 14.2109 6.28906 13.8906 6.28906 13.5156C6.28906 13.1406 6.42188 12.8203 6.6875 12.5547C6.94531 12.2891 7.26172 12.1602 7.63672 12.168C8.01172 12.168 8.33203 12.3008 8.59766 12.5664L15.2773 19.2344C15.3711 19.1016 15.4688 18.9648 15.5703 18.8242C15.6797 18.6836 15.793 18.5508 15.9102 18.4258L8.63281 11.1367C8.36719 10.8711 8.23438 10.5547 8.23438 10.1875C8.23438 9.8125 8.36719 9.49219 8.63281 9.22656C8.89844 8.95312 9.21484 8.81641 9.58203 8.81641C9.95703 8.81641 10.2773 8.95312 10.543 9.22656L17.9141 16.5977C18.0625 16.4961 18.207 16.4023 18.3477 16.3164C18.4961 16.2305 18.6445 16.1562 18.793 16.0938L12.418 9.71875C12.1523 9.45312 12.0195 9.13672 12.0195 8.76953C12.0195 8.39453 12.1523 8.07031 12.418 7.79688C12.6836 7.53125 13 7.39844 13.3672 7.39844C13.7422 7.39844 14.0625 7.53125 14.3281 7.79688L23.0938 16.5625C23.2266 16.6953 23.3438 16.7656 23.4453 16.7734C23.5469 16.7734 23.6367 16.7344 23.7148 16.6562C23.7773 16.5938 23.8125 16.5078 23.8203 16.3984C23.8281 16.2891 23.8008 16.1484 23.7383 15.9766L22.3906 12.3203C22.1953 11.7656 22.1094 11.3086 22.1328 10.9492C22.1641 10.582 22.332 10.2656 22.6367 10C22.9023 9.76562 23.1914 9.66016 23.5039 9.68359C23.8164 9.69922 24.0938 9.83594 24.3359 10.0938C24.4688 10.25 24.625 10.4883 24.8047 10.8086C24.9844 11.1289 25.1719 11.4805 25.3672 11.8633C25.5625 12.2383 25.75 12.5977 25.9297 12.9414C26.1953 13.4414 26.4648 13.957 26.7383 14.4883C27.0117 15.0195 27.2734 15.5586 27.5234 16.1055C27.7734 16.6523 27.9961 17.1992 28.1914 17.7461C28.3945 18.293 28.5586 18.8281 28.6836 19.3516C29.1445 20.9453 29.207 22.4258 28.8711 23.793C28.5352 25.1602 27.7344 26.4727 26.4688 27.7305C25.625 28.5742 24.7109 29.2188 23.7266 29.6641C22.75 30.1094 21.7383 30.3398 20.6914 30.3555C19.6445 30.3711 18.6055 30.1562 17.5742 29.7109C16.5508 29.2734 15.5742 28.5898 14.6445 27.6602Z" fill="white"/>
</svg>
