<svg width="48" height="48" viewBox="0 0 48 48" fill="none" xmlns="http://www.w3.org/2000/svg">
<path d="M0 24C0 10.7452 10.7452 0 24 0C37.2548 0 48 10.7452 48 24C48 37.2548 37.2548 48 24 48C10.7452 48 0 37.2548 0 24Z" fill="white" fill-opacity="0.05"/>
<path d="M22.9219 37.0078C22.5703 37.0078 22.2695 36.9102 22.0195 36.7148C21.7695 36.5195 21.6055 36.2461 21.5273 35.8945L20.9414 33.4219C20.7461 33.3516 20.5547 33.2773 20.3672 33.1992C20.1797 33.1289 20 33.0547 19.8281 32.9766L17.6602 34.3008C17.3633 34.4805 17.0547 34.5547 16.7344 34.5234C16.4219 34.5 16.1445 34.3672 15.9023 34.125L14.4023 32.625C14.1602 32.3828 14.0234 32.0977 13.9922 31.7695C13.9609 31.4336 14.043 31.1211 14.2383 30.832L15.5508 28.6875C15.4727 28.5078 15.3945 28.3281 15.3164 28.1484C15.2461 27.9688 15.1836 27.7891 15.1289 27.6094L12.6211 27.0117C12.2773 26.9336 12.0078 26.7734 11.8125 26.5312C11.6172 26.2812 11.5195 25.9766 11.5195 25.6172V23.5195C11.5195 23.168 11.6172 22.8711 11.8125 22.6289C12.0078 22.3789 12.2773 22.2148 12.6211 22.1367L15.1055 21.5508C15.1602 21.3398 15.2266 21.1445 15.3047 20.9648C15.3828 20.7773 15.457 20.6055 15.5273 20.4492L14.2031 18.2578C14.0156 17.9609 13.9336 17.6562 13.957 17.3438C13.9883 17.0234 14.1289 16.7422 14.3789 16.5L15.9023 14.9883C16.1523 14.7539 16.4258 14.6211 16.7227 14.5898C17.0195 14.5508 17.3164 14.6133 17.6133 14.7773L19.8164 16.1367C19.9805 16.0508 20.1602 15.9688 20.3555 15.8906C20.5508 15.8125 20.7461 15.7383 20.9414 15.668L21.5273 13.1836C21.6055 12.8398 21.7695 12.5703 22.0195 12.375C22.2695 12.1719 22.5703 12.0703 22.9219 12.0703H25.0664C25.418 12.0703 25.7188 12.1719 25.9688 12.375C26.2188 12.5703 26.3789 12.8398 26.4492 13.1836L27.0469 15.6914C27.25 15.7617 27.4453 15.8359 27.6328 15.9141C27.8203 15.9844 27.9961 16.0625 28.1602 16.1484L30.375 14.7773C30.6719 14.6133 30.9648 14.5508 31.2539 14.5898C31.5508 14.6289 31.8242 14.7617 32.0742 14.9883L33.6094 16.5C33.8672 16.7422 34.0078 17.0234 34.0312 17.3438C34.0547 17.6562 33.9727 17.9609 33.7852 18.2578L32.4609 20.4492C32.5234 20.6055 32.5938 20.7773 32.6719 20.9648C32.75 21.1445 32.8242 21.3398 32.8945 21.5508L35.3672 22.1367C35.7109 22.2148 35.9805 22.3789 36.1758 22.6289C36.3711 22.8711 36.4688 23.168 36.4688 23.5195V25.6172C36.4688 25.9766 36.3711 26.2812 36.1758 26.5312C35.9805 26.7734 35.7109 26.9336 35.3672 27.0117L32.8711 27.6094C32.8086 27.7891 32.7422 27.9688 32.6719 28.1484C32.6016 28.3281 32.5234 28.5078 32.4375 28.6875L33.7617 30.832C33.957 31.1211 34.0391 31.4336 34.0078 31.7695C33.9766 32.0977 33.8359 32.3828 33.5859 32.625L32.0859 34.125C31.8438 34.3672 31.5625 34.5 31.2422 34.5234C30.9219 34.5547 30.6172 34.4805 30.3281 34.3008L28.1602 32.9766C27.9883 33.0547 27.8086 33.1289 27.6211 33.1992C27.4336 33.2773 27.2422 33.3516 27.0469 33.4219L26.4492 35.8945C26.3789 36.2461 26.2188 36.5195 25.9688 36.7148C25.7188 36.9102 25.418 37.0078 25.0664 37.0078H22.9219ZM24 28.6406C24.75 28.6406 25.4336 28.457 26.0508 28.0898C26.6758 27.7148 27.1719 27.2148 27.5391 26.5898C27.9062 25.9648 28.0898 25.2773 28.0898 24.5273C28.0898 23.7773 27.9062 23.0977 27.5391 22.4883C27.1719 21.8711 26.6758 21.3789 26.0508 21.0117C25.4336 20.6367 24.75 20.4492 24 20.4492C23.25 20.4492 22.5625 20.6367 21.9375 21.0117C21.3203 21.3789 20.8242 21.8711 20.4492 22.4883C20.082 23.0977 19.8984 23.7773 19.8984 24.5273C19.8984 25.2773 20.082 25.9648 20.4492 26.5898C20.8164 27.2148 21.3125 27.7148 21.9375 28.0898C22.5625 28.457 23.25 28.6406 24 28.6406Z" fill="white"/>
</svg>
